<?xml version="1.0" encoding="utf-8"?>
<!-- Generator: Adobe Illustrator 23.1.0, SVG Export Plug-In . SVG Version: 6.00 Build 0)  -->
<svg version="1.1" id="Слой_2" xmlns="http://www.w3.org/2000/svg" xmlns:xlink="http://www.w3.org/1999/xlink" x="0px" y="0px"
	 viewBox="0 0 1366 1498.0322266" style="enable-background:new 0 0 1366 1498.0322266;" xml:space="preserve">
<g>
	<g>
		<path style="fill:#1C1C1C;" d="M420.1328735,624.72052c-1.6281738-0.703125-2.7474976-2.343689-2.7035522-4.227356
			c0.057251-2.4732056,2.1188354-4.4261475,4.5878296-4.3688354c20.8284912,0.5120239,42.3707886,3.1125488,64.0448303,7.7377319
			c47.1861877,10.0523682,89.6874084,28.5928345,119.7029114,52.1852417
			c1.9462891,1.5332031,2.2718506,4.3432007,0.7490234,6.2921143c-1.527771,1.9486694-4.3240967,2.300415-6.2926636,0.7556763
			c-28.9664917-22.7715454-70.1687012-40.7038574-116.0235596-50.4636841
			c-21.1316223-4.5125732-42.1159973-7.0458374-62.3973694-7.5448608
			C421.2045898,625.0705566,420.6482239,624.9430542,420.1328735,624.72052z"/>
	</g>
	<g>
		<path style="fill:#1C1C1C;" d="M381.3870544,783.664978c-63.1042175-27.2502441-101.7164001-69.1141357-93.5061035-107.6294556
			c7.5401001-35.3270874,53.1938477-58.284729,119.1437378-59.9180298c2.4505615-0.0722046,4.5282593,1.8833618,4.5925293,4.3683472
			c0.0596619,2.4742432-1.8932495,4.5309448-4.3750305,4.59198
			c-60.6534119,1.5010376-104.0651855,22.2356567-110.5997314,52.8250732
			c-9.5819397,44.9634399,58.9463501,97.8104858,152.7929077,117.8258667
			c93.8120117,19.9916992,177.9232788-0.3226929,187.5251465-45.2798462
			c2.9611816-13.9015503-1.7609863-29.3449707-13.6469116-44.6505127c-1.5153809-1.9562378-1.1696167-4.7744141,0.800293-6.2839355
			c1.9471436-1.5198364,4.7543945-1.164917,6.2746582,0.7800903c13.565979,17.4660034,18.855835,35.4519043,15.3334351,52.0217285
			c-10.6281128,49.789917-99.5161133,73.2024536-198.1662598,52.1756592
			C423.552887,799.3754272,401.242981,792.2393188,381.3870544,783.664978z"/>
	</g>
	<g>
		<path style="fill:#1C1C1C;" d="M274.280304,1386.3718262c-53.0107269-22.8916016-86.4184113-61.4543457-78.8912964-96.7148438
			c7.0786133-33.2609863,48.1742096-55.3303223,104.6535034-56.2011719c2.4534607-0.0372314,4.5261536,1.9138184,4.548584,4.4016113
			c0.047699,2.4708252-1.9283447,4.5286865-4.4050903,4.5469971c-52.16185,0.8215332-89.8513184,20.114624-96.032959,49.1140137
			c-8.5065308,39.807251,44.4850311,85.0036621,118.1157837,100.6962891
			c36.10495,7.6929932,71.6379395,7.1374512,100.0375061-1.5537109
			c27.5050354-8.427124,44.8564453-23.4100342,48.8552856-42.2230225
			c6.165741-28.8256836-20.1289673-61.6723633-66.9747009-83.675415c-2.2480774-1.0655518-3.2094727-3.7193604-2.1615295-5.979248
			c1.0482178-2.2282715,3.6622925-3.3695068,5.9692688-2.1385498c50.7577515,23.8547363,78.9890442,60.6201172,71.9441833,93.65625
			c-4.7094727,22.1303711-24.2495728,39.5168457-55.0014343,48.9206543
			c-29.8450928,9.1542969-66.9641418,9.7653809-104.5214539,1.7562256
			C303.9024353,1397.4664307,288.4002075,1392.4692383,274.280304,1386.3718262z"/>
	</g>
	<g>
		<path style="fill:#1C1C1C;" d="M267.6839294,1414.3668213c-18.4603271-7.9718018-34.8331146-17.975708-48.0235291-29.4758301
			c-24.2368622-21.1308594-34.9964447-44.9489746-30.283783-67.0866699l6.0123901-28.1473389
			c0.5135193-2.4232178,2.8930359-3.9726563,5.2976074-3.4578857c2.434967,0.5279541,3.9740601,2.8895264,3.4664307,5.3193359
			l-6.0108795,28.1439209c-3.9953156,18.8144531,5.7238159,39.5657959,27.4220276,58.4855957
			c22.3781738,19.529541,54.6156158,34.5379639,90.7057343,42.2246094
			c73.6190796,15.6876221,140.4043579-3.9484863,148.9173279-43.7703857l5.9743652-28.1641846
			c0.5306091-2.4199219,2.8893738-3.9737549,5.3091125-3.4523926c2.4535217,0.5266113,3.9674988,2.9046631,3.4713135,5.3081055
			l-5.9892578,28.1665039c-9.5279236,44.6595459-81.1027832,67.3817139-159.5493774,50.6654053
			C297.9050598,1425.6207275,282.1462402,1420.6120605,267.6839294,1414.3668213z"/>
	</g>
	<g>
		<path style="fill:#1C1C1C;" d="M400.9262085,1364.1070557c-10.5480652-4.5549316-19.807251-20.5494385-24.5317993-29.9780273
			c-12.3267517-24.6529541-21.9971924-60.6605225-15.5836792-78.8771973
			c4.8512573-13.7642822,22.4154053-38.4266357,41.0394592-64.5084229
			c17.3753662-24.3824463,35.3906555-49.6079102,41.4129639-64.2025146
			c10.4962158-25.4666748,22.5537415-79.6217041,34.2133179-131.9766846
			c17.304657-77.8131104,28.5920105-125.7839966,39.0953674-135.9137573
			c8.1168213-7.7912598,20.1484375-16.8100586,31.4825439-15.5061035
			c5.9387817,0.6803589,10.9101563,4.0300903,14.7547607,9.9462891c1.1206665,1.7316895,0.6333008,4.0418091-1.1105347,5.1637573
			c-1.7376099,1.118103-4.0599365,0.6120605-5.1569214-1.100647c-2.607666-4.0053101-5.6721802-6.168335-9.3485107-6.5912476
			c-6.5940552-0.7628174-15.6149292,4.0320435-25.444458,13.4693604
			c-9.6467896,9.2966309-24.1729126,74.5601807-36.9955444,132.1491089
			c-11.7080383,52.6769409-23.8324585,107.1326294-34.5855103,133.215271
			c-6.3643494,15.3856201-24.6043396,40.9654541-42.2315063,65.6903076
			c-17.5017395,24.5178223-35.576355,49.8709717-40.0774841,62.6671143
			c-5.505188,15.6530762,3.4006653,49.4393311,15.208313,73.046875
			c7.4255676,14.8370361,15.3981323,24.8553467,21.7281799,26.7722168
			c17.095459,5.3830566,29.7135315-29.9404297,29.8188477-30.2785645
			c3.0460205-6.8128662-6.5699768-21.7519531-15.8555908-36.2008057c-1.8074951-2.8071289-3.6362305-5.6367188-5.4171448-8.5043945
			c-1.1075439-1.7418213-0.585907-4.0574951,1.1706238-5.1359863c1.7607117-1.098877,4.0731812-0.5698242,5.1455994,1.1794434
			c1.7658386,2.8297119,3.5888367,5.6522217,5.3792419,8.4251709c11.3188782,17.6010742,21.0991821,32.7963867,16.5327454,42.973999
			c-0.4793091,1.4128418-14.7716064,42.2957764-39.0170898,34.6783447
			C401.9970398,1364.532959,401.4625854,1364.338623,400.9262085,1364.1070557z"/>
	</g>
	<g>
		<path style="fill:#1C1C1C;" d="M408.1204224,1273.6503906c-0.8900452-0.3843994-1.6564026-1.0443115-2.1521606-1.9447021
			c-9.0436096-16.2442627-11.9694824-27.7480469-9.4633179-37.2717285
			c4.2831116-16.1900635,19.9306641-27.6029053,39.7669373-42.059082
			c17.0410461-12.4041748,36.3419495-26.4777832,53.611908-47.2182617
			c26.1088257-31.3435059,51.4178467-153.7791138,66.5299072-226.9225464
			c6.333313-30.6873779,11.3428345-54.9240112,14.6589355-64.7458496
			c11.5463867-34.2630005,56.0765991-84.144104,57.9616699-86.2522583c1.6503906-1.8462524,4.5162354-1.9715576,6.3233032-0.3449707
			c1.8447266,1.6538696,1.9976807,4.4868164,0.3485107,6.3312988c-0.4547119,0.4986572-45.1861572,50.6154175-56.1334839,83.1263428
			c-3.140686,9.3106689-8.1069336,33.3113403-14.381958,63.6966553
			c-16.2797241,78.7520752-40.8578491,197.770874-68.4300842,230.8520508
			c-17.9679871,21.5948486-38.6116943,36.6451416-55.2059021,48.7144775
			c-18.3991089,13.4064941-32.907135,23.9892578-36.3733826,37.1060791
			c-1.8458862,7.0335693,0.8913269,16.7589111,8.6254272,30.6417236c1.1949463,2.1451416,0.4266968,4.8959961-1.7423706,6.0939941
			C410.8065796,1274.1605225,409.345459,1274.1793213,408.1204224,1273.6503906z"/>
	</g>
	<g>
		<path style="fill:#1C1C1C;" d="M241.1336212,1290.9968262c-1.5822144-0.6832275-2.6922302-2.2727051-2.7061768-4.111084
			c0.0087128-11.5593262,15.2609558-21.545166,32.9345551-33.1035156
			c17.298584-11.3182373,36.9342957-24.1594238,39.0776978-37.2651367
			c2.1960144-13.3946533-6.7585754-28.9866943-18.0762634-48.7224121
			c-10.2200012-17.8040771-22.953125-39.9470215-30.5682068-66.9705811
			c-11.6682892-41.4465332,14.4310303-160.1513672,31.6965942-238.6990356
			c6.6587219-30.3033447,11.9198914-54.2441406,12.8545837-64.0221558
			c3.2588806-34.1566162-17.1503296-98.1530151-17.3581543-98.7955322c-0.7617188-2.3596191,0.5335388-4.8828125,2.8876038-5.642334
			c2.3552551-0.7612305,4.8867188,0.5352173,5.6393433,2.8955688c0.8690796,2.6953125,21.1834717,66.3997803,17.7574463,102.3956909
			c-0.9866638,10.3222046-6.29953,34.492981-13.0253296,65.0811157
			c-16.0429382,72.9734497-42.8634644,195.0682983-31.8178406,234.3500366
			c7.322113,25.9672852,19.2102051,46.6711426,29.6950378,64.9279785
			c12.2308655,21.2993164,21.8804626,38.1254883,19.1522522,54.6436768
			c-2.7790527,17.001709-23.2248535,30.3822021-43.0124207,43.324585
			c-13.5506287,8.8568115-28.8741455,18.8933105-28.8516388,25.5825195c-0.0118713,2.4729004-2.0031891,4.4921875-4.4856567,4.50354
			C242.2843323,1291.362915,241.6929626,1291.2384033,241.1336212,1290.9968262z"/>
	</g>
	<g>
		<path style="fill:#1C1C1C;" d="M609.0044556,791.8599854c-0.8327637-0.3596191-1.5234375-1.0076904-1.9207764-1.885437
			c-0.8516846-1.8730469-0.0287476-4.0922852,1.8468018-4.9456787c3.1027222-1.4154663,4.7730103-3.0049438,4.9400635-4.7402954
			c0.3815308-4.1540527-6.1268921-10.2052002-9.3248291-12.4776001c-1.2717285-0.9013672-1.8654175-2.5048828-1.4491577-4.0018311
			c2.2625732-8.604248-0.6489868-15.9406738-8.6599121-21.8032227c-1.6678467-1.217041-2.0232544-3.5500488-0.7999268-5.2132568
			c1.1945801-1.6682739,3.4881592-2.0994263,5.2036743-0.8151245c9.711792,7.0984497,13.9085083,16.704895,12.0183105,27.2797241
			c3.7734985,3.0917358,11.1586304,10.1851196,10.4371948,17.7398682
			c-0.3050537,3.1518555-2.1550903,7.5923462-9.2840576,10.8282471
			C611.0281372,792.2851563,609.925293,792.2576294,609.0044556,791.8599854z"/>
	</g>
	<g>
		<path style="fill:#1C1C1C;" d="M307.5515747,731.5324097c-1.2725525-0.5494995-2.1953125-1.7987671-2.2530212-3.2790527
			c-0.0458984-1.1843872-0.8984985-29.1642456,20.509491-40.4502563c14.7457275-7.7631226,24.962738-5.0388794,30.1166077-2.3621826
			c2.3331909-3.7313843,6.6416931-9.1099854,13.1365051-11.5045166c4.8643188-1.789856,10.0298157-1.6282959,15.3903809,0.4744263
			c3.5428162-3.6942749,11.4815979-10.6912231,20.4935608-10.3970337c4.8523865,0.1663818,9.1931458,2.3158569,12.9334717,6.4155884
			c4.1948547-3.0466919,12.0355835-7.6066284,20.6434326-6.5949097c5.5959167,0.649231,10.5125732,3.487793,14.6481934,8.4486084
			c5.0214844-3.8949585,15.2243042-10.2775269,26.0385437-8.2932129c7.7580261,1.432251,14.2249756,6.7745361,19.1963501,15.9035034
			c4.9608459-2.0508423,14.0216675-4.7635498,21.0270996-0.4295654c4.4089355,2.6872559,7.0090942,7.5040283,7.75177,14.3438721
			c5.020752-1.8235474,12.7149658-3.5355835,19.7371826-0.5032349c0.1748657,0.0755615,0.3480835,0.1549683,0.5388794,0.2461548
			c5.7789917,2.7122803,9.828186,8.1141357,12.076355,16.0759277c5.7250977-3.0361328,15.4436646-6.791626,23.210144-2.7247314
			c1.8235474,0.9612427,2.512146,3.2130127,1.5595703,5.0421753c-0.9649048,1.8266602-3.3816528,2.3963623-5.048645,1.5637817
			c-5.699646-3.0523682-16.7797852,2.7484131-20.0891724,5.0609131c-1.0576172,0.7347412-2.4190063,0.8779297-3.5916748,0.3849487
			l-0.0303955-0.0131226c-1.1677856-0.5042725-2.0003662-1.5653076-2.2043457-2.8180542
			c-1.3859253-8.3071289-4.423645-13.6262207-9.0424194-15.8060913c-0.1124878-0.0531616-0.2215576-0.1044312-0.3392334-0.1552734
			c-7.9160767-3.418396-18.3065186,2.4995728-18.4241943,2.5527344c-1.1712036,0.6745605-2.6222534,0.6594238-3.7824097-0.0199585
			c-1.1586914-0.6921387-1.8446045-1.9473267-1.8108521-3.3002319c0.1194458-4.8860474-0.5396118-11.197998-4.4086914-13.5569458
			c-4.9669495-3.0881348-14.1936646,0.6990356-17.0367737,2.2562256c-0.9025269,0.50177-1.980896,0.5952759-2.9660645,0.2738647
			c-0.9604797-0.3154297-1.7882385-1.0430298-2.2077637-1.9733276c-4.1060791-8.854248-9.3122559-13.9076538-15.4270935-15.0471802
			c-11.1435547-2.0682983-22.6412659,8.9321289-22.759552,9.0390625c-0.805481,0.7780151-1.9013672,1.1625366-3.02005,1.0357666
			c-1.1253662-0.1315308-2.1019592-0.7339478-2.7055969-1.6670532c-3.3197937-5.093811-7.2782898-7.9562378-11.7228394-8.4923096
			c-8.9590149-1.0750732-17.7296753,7.0702515-17.8074951,7.156311c-0.7869873,0.7457886-1.8707275,1.112854-2.9612122,0.9936523
			c-1.0776062-0.1062012-2.0480957-0.6810303-2.6801758-1.5792847c-2.8796997-4.1588135-6.011261-6.2241821-9.5398865-6.3513184
			c-6.8479004-0.222168-14.1317139,6.9832764-16.3627625,9.7771606c-1.0999451,1.3870239-2.9432373,1.8092651-4.5982666,1.0067749
			c-4.448761-2.2076416-8.4030151-2.6762085-12.0971069-1.3178101
			c-7.1139832,2.6212158-10.8977966,11.2368164-10.9356384,11.3244629c-0.4798584,1.1422729-1.4945374,1.972229-2.7125244,2.2157593
			c-1.2218018,0.2372437-2.483429-0.1384277-3.3553162-1.0089722c-0.3246155-0.2982178-8.692627-7.8381958-25.3435669,0.9345703
			c-17.2915344,9.1122437-16.5412903,33.2998047-16.5279236,33.5449829c0.0813904,2.05896-1.5285339,3.7965088-3.5869751,3.8757935
			C308.6016846,731.8597412,308.055603,731.750061,307.5515747,731.5324097z"/>
	</g>
	<g>
		<path style="fill:#1C1C1C;" d="M344.899353,726.6490479c-3.8305054-1.6541138-5.9035339-6.1868896-4.9256287-10.78125
			c1.1151733-5.2163086,5.7846375-8.6514282,10.4028625-7.661377c4.6769409,0.9793091,7.4798279,6.1004028,6.3626099,11.2432861
			c-0.5679321,2.7000122-2.1448059,5.0609741-4.3198547,6.4708252c-1.855835,1.2089233-4.0091553,1.6331787-6.0671387,1.1890869
			C345.8492126,727.005188,345.3617249,726.8486938,344.899353,726.6490479z M350.3424377,712.095459
			c-0.2340698-0.1010742-0.4861755-0.1808472-0.7475281-0.2391357c-2.6031799-0.5557251-5.2806702,1.593811-5.9706421,4.7915649
			c-0.6615601,3.1148682,0.8159485,6.2623901,3.5050049,6.8075562c1.3871765,0.2990723,2.5397644-0.1964111,3.2597046-0.6660767
			c1.3454895-0.8747559,2.3265686-2.3782349,2.7003479-4.1213379
			C353.697998,715.8575439,352.51828,713.0350342,350.3424377,712.095459z"/>
	</g>
	<g>
		<path style="fill:#1C1C1C;" d="M376.1397095,717.1383057c-4.7606506-2.0557861-7.3829041-5.5511475-6.6793213-8.9098511
			c0.9082031-4.2200928,6.8638306-6.4051514,13.5639954-4.9741211c1.2816772,0.2715454,2.5175476,0.6652222,3.670105,1.1629639
			c4.7606812,2.0557861,7.3858643,5.5496216,6.6828918,8.9016724c-0.9185791,4.2183228-6.8800354,6.4009399-13.5747986,4.9786987
			C378.5203552,718.0263062,377.2922974,717.6360474,376.1397095,717.1383057z M385.213623,707.8465576
			c-0.9243164-0.3991089-1.9228516-0.715271-2.9709167-0.9423218c-4.7504883-1.0134277-8.7374268,0.270752-9.12854,2.1011353
			c-0.4006653,1.9006348,3.1994934,4.7303467,7.4707947,5.6408081c4.7513123,1.0114746,8.7412109-0.2806396,9.1392822-2.1057129
			C390.0261841,711.1092529,388.0855408,709.086731,385.213623,707.8465576z"/>
	</g>
	<g>
		<path style="fill:#1C1C1C;" d="M424.4053955,727.6906128c-3.7432251-1.6164551-5.5371094-7.1188965-4.282196-13.086853
			c0.645752-2.9797974,1.9690247-5.6577148,3.7288513-7.5380859c2.0021362-2.1278076,4.3587341-3.0280762,6.6323242-2.5449829
			c4.3862,0.9730225,6.7589111,6.9329834,5.3498535,13.4259033c-1.414856,6.5897827-5.9564514,11.0238647-10.3546143,10.0881958
			C425.1084595,727.9534912,424.7551575,727.8416138,424.4053955,727.6906128z M430.075531,708.2886353
			c-1.2919922-0.3097534-2.4334106,0.2219238-3.498291,1.3394165c-1.2937927,1.3661499-2.3045349,3.4659424-2.7836609,5.757019
			c-1.0339355,4.8182983,0.4291077,8.5483398,2.4716187,9.0014648c1.9701538,0.413147,4.8954163-2.4418945,5.9307251-7.2120361
			C433.1532593,712.668335,431.8482056,709.0541382,430.075531,708.2886353z"/>
	</g>
	<g>
		<path style="fill:#1C1C1C;" d="M482.8102722,734.00354c-4.979187-2.1501465-7.8037415-6.6035767-6.9109802-10.8552856
			c1.0888062-5.1038208,7.2607422-8.1184082,13.7248535-6.7421265c6.665863,1.4324341,10.842926,6.7564087,9.7740173,11.7509766
			c-1.0844421,5.1033936-7.2480774,8.1308594-13.7223206,6.7566528
			C484.6702576,734.7027588,483.7155151,734.3944092,482.8102722,734.00354z M491.0049438,720.7439575
			c-0.6617737-0.2857666-1.3982849-0.5247803-2.1511841-0.6830444c-4.401001-0.9387817-8.6585083,0.8307495-9.2974548,3.8674927
			c-0.6401672,2.9776001,2.3979492,6.3724365,6.9051208,7.3371582c4.3829651,0.9290771,8.6387024-0.8480835,9.2984314-3.8804932
			C496.286499,724.9111938,494.322052,722.1763916,491.0049438,720.7439575z"/>
	</g>
	<g>
		<path style="fill:#1C1C1C;" d="M461.7744141,770.4576416c-4.7127686-2.0350952-7.3304443-7.2929688-6.2022095-12.4966431
			c1.2774353-6.010498,7.0192871-9.8901367,12.7936096-8.6513672c5.8285522,1.2598877,9.3909607,7.2237549,8.1371765,13.1066895
			c-0.6116638,2.8997803-2.2698975,5.392395-4.6660156,7.0317383c-2.4382324,1.6437378-5.3049927,2.2312622-8.1225281,1.6282959
			C463.0291443,770.9274292,462.379303,770.7188721,461.7744141,770.4576416z M468.821106,753.355957
			c-0.3996582-0.1726074-0.8136902-0.31073-1.2482605-0.4013672c-3.7522888-0.8013916-7.4920044,1.7971191-8.3643799,5.7821655
			c-0.8191223,3.9249268,1.4547729,7.90802,5.2837524,8.6880493c1.8096008,0.3867798,3.6694946,0.0095825,5.2311401-1.0671387
			c1.6073914-1.0884399,2.7076111-2.7683105,3.1254578-4.7183838
			C473.5941162,758.1677856,471.9021606,754.6864014,468.821106,753.355957z"/>
	</g>
	<g>
		<path style="fill:#1C1C1C;" d="M527.7826538,749.6531982c-4.7244263-2.0401001-7.2983398-7.6807251-6.055603-13.3904419
			c0.7131958-3.37677,2.6653442-6.3294678,5.383728-8.078186c2.277832-1.4916382,4.9398193-2.0119019,7.4780884-1.4620361
			c5.803894,1.2538452,9.2125854,7.5640869,7.8284912,13.9458008c-0.7084961,3.3861694-2.6784668,6.3287964-5.3710327,8.0905762
			c-2.2999878,1.4797363-4.961792,2.0005493-7.4833374,1.4644165
			C528.9478149,750.0907593,528.3494263,749.8979492,527.7826538,749.6531982z M534.8783569,730.7129517
			c-0.3497925-0.151062-0.7061157-0.2665405-1.078125-0.3458862c-1.550354-0.3288574-3.2189941,0.0024414-4.6731567,0.9448853
			c-1.8641357,1.2238159-3.2339478,3.3085938-3.7630615,5.7250366c-0.9324341,4.354248,1.2706299,8.7421875,4.9702148,9.5296021
			c1.5522461,0.3342896,3.2177734-0.0006104,4.6728516-0.9450073c1.8877563-1.2154541,3.2553711-3.3058472,3.7645264-5.7285156
			C539.6175537,735.9797363,537.9290161,732.0303345,534.8783569,730.7129517z"/>
	</g>
	<g>
		<path style="fill:#1C1C1C;" d="M387.8659058,754.6043701c-3.9710999-1.7148438-6.1235352-4.6639404-5.5001831-7.5180054
			c0.7667542-3.6248779,5.5810852-5.4520264,11.1654053-4.2633667c5.6481018,1.2069092,9.2149658,4.9451294,8.4573669,8.4450684
			c-0.7587891,3.6278687-5.5743408,5.4567871-11.164032,4.2709351
			C389.7669067,755.3125,388.7559509,754.9887085,387.8659058,754.6043701z M394.9999084,747.1872559
			c-0.6808777-0.2940063-1.4342651-0.5357056-2.255188-0.7141113c-3.7068481-0.7910767-6.5027161,0.3215942-6.7457275,1.3969727
			c-0.2340698,1.0857544,2.0502014,3.2478638,5.6110535,4.0206909c3.6965332,0.7838135,6.5067749-0.3203125,6.7242737-1.3997803
			C398.5127258,749.6497192,397.3163452,748.187561,394.9999084,747.1872559z"/>
	</g>
	<g>
		<path style="fill:#1C1C1C;" d="M426.1531677,785.1174927c-4.541748-1.9612427-7.0759277-6.3978882-6.1563416-10.7844849
			c1.0975952-5.1337891,6.6350098-8.300354,12.342865-7.074585c5.8551636,1.2196045,9.4327698,6.427063,8.3825073,11.492981
			c-1.1126099,5.1162109-6.6500549,8.2828369-12.3389587,7.0762939
			C427.6048279,785.6653442,426.8609314,785.4230957,426.1531677,785.1174927z M433.0753784,771.3874512
			c-0.464325-0.2005005-0.9760742-0.362793-1.5057068-0.4741211c-3.715332-0.8034668-7.2484436,1.0875244-7.9336853,4.1898193
			c-0.6374207,3.0535889,1.7619934,6.2558594,5.5211487,7.0712891c3.6879272,0.7824097,7.2403564-1.0997314,7.9127808-4.2034302
			C437.6181335,775.3530273,435.9815369,772.6424561,433.0753784,771.3874512z"/>
	</g>
	<g>
		<path style="fill:#1C1C1C;" d="M504.6929626,786.3374634c-3.7276611-1.6096802-5.7696228-5.8901367-4.8451843-10.1734619
			c0.5229492-2.4546509,1.9715881-4.6384888,4.0048523-5.9607544c1.8506775-1.2023926,4.0216064-1.6213379,6.1063538-1.1813965
			c4.6798096,1.0142822,7.3432617,5.8205566,6.3172607,10.6418457c-1.0375977,4.911499-5.5756226,8.1149902-10.1065979,7.1422729
			C505.6495056,786.6941528,505.1724548,786.5445557,504.6929626,786.3374634z M509.9461365,772.9182129
			c-0.2395325-0.1033936-0.4849548-0.1826172-0.7583923-0.2396851c-1.1184692-0.2416992-2.2697449-0.0007935-3.300293,0.6508179
			c-1.1906433,0.7923584-2.0613708,2.1087646-2.3789368,3.6168823c-0.6299133,2.848877,0.8870239,5.6386108,3.450592,6.2132568
			c2.4961853,0.5316772,5.0474854-1.3835449,5.6657104-4.2781372
			C513.1739502,776.3339844,512.0460205,773.8250122,509.9461365,772.9182129z"/>
	</g>
	<g>
		<g>
			<path style="fill:#1C1C1C;" d="M556.9547729,879.0430298c-1.2285156-0.5305176-1.930542-1.8832397-1.6184082-3.2332764
				l2.6188965-10.8517456c0.3488159-1.5075684,1.867981-2.4335327,3.3738403-2.0744019
				c1.4781494,0.3494873,2.4384155,1.8673096,2.06604,3.3674927l-2.6205444,10.8759155
				c-0.3528442,1.5063477-1.8699341,2.4285278-3.3702393,2.0671997
				C557.2536011,879.1558838,557.0993042,879.1054077,556.9547729,879.0430298z"/>
		</g>
		<g>
			<path style="fill:#1C1C1C;" d="M420.3035889,1207.0390625c-0.3081055-0.1330566-0.5973511-0.3299561-0.8431702-0.5761719
				c-1.1135864-1.0899658-1.1307983-2.8577881-0.0386047-3.9658203c4.0272827-4.0692139,8.5743408-8.473999,13.3982544-13.133667
				l2.2356262-2.1259766c1.1108093-1.0772705,2.8840332-1.0246582,3.9486389,0.0534668
				c1.0780029,1.119873,1.051178,2.8953857-0.0575867,3.9689941l-2.2420349,2.1503906
				c-4.7780457,4.6166992-9.3035889,8.9716797-13.2880554,13.0145264
				C422.575531,1207.2756348,421.3346558,1207.484375,420.3035889,1207.0390625z M446.2695007,1181.6815186
				c-0.3158875-0.1364746-0.6225586-0.3455811-0.8869629-0.5905762c-1.0889893-1.1158447-1.0742798-2.8740234,0.0169373-3.9689941
				c5.7903137-5.7268066,10.6758728-10.8427734,14.9500732-15.6091309c1.0454102-1.1461182,2.7963562-1.2293701,3.9764709-0.2099609
				c1.1472168,1.0324707,1.2315674,2.8018799,0.1918945,3.9552002c-4.3601379,4.850708-9.3161316,10.0356445-15.1746521,15.8370361
				C448.5047913,1181.9290771,447.2923889,1182.1231689,446.2695007,1181.6815186z M470.7251282,1154.8864746
				c-0.228241-0.0985107-0.4443665-0.2144775-0.6515808-0.37146c-1.2124634-0.9658203-1.3985596-2.7298584-0.4360962-3.9345703
				c4.7686462-6.0150146,8.8766479-11.9223633,12.1508484-17.5396729c0.8028564-1.3369141,2.4342346-1.864502,3.8501587-1.0048828
				c1.3370667,0.7714844,1.7781982,2.4875488,0.9956055,3.8193359c-3.4365234,5.8679199-7.6708069,11.9736328-12.6031189,18.2114258
				C473.2210693,1155.0750732,471.8473206,1155.3710938,470.7251282,1154.8864746z M489.4061279,1123.9594727
				c-1.3921204-0.6010742-2.0545349-2.1826172-1.4929199-3.6190186c2.1194763-5.2314453,4.5713501-12.0799561,7.2980042-20.3485107
				c0.4713135-1.4573975,2.0611877-2.2645264,3.534668-1.7681885c1.4434509,0.5239258,2.270813,2.0679932,1.7787476,3.5211182
				c-2.7638245,8.3651123-5.2389832,15.329834-7.41745,20.6988525c-0.5565796,1.4248047-2.2024536,2.1314697-3.6212158,1.550293
				C489.4594727,1123.9825439,489.4326172,1123.9709473,489.4061279,1123.9594727z M501.1580505,1089.6068115
				c-1.2931824-0.5583496-1.9770203-2.0270996-1.5460815-3.411377c2.0019226-6.5280762,4.1011658-13.510498,6.2445984-20.826416
				c0.4328308-1.4829102,1.9905396-2.3311768,3.4626465-1.8936768c1.5742798,0.4404297,2.3496399,1.9892578,1.9204102,3.4649658
				c-2.1493835,7.348877-4.2669067,14.3641357-6.2802734,20.9187012c-0.4633789,1.4700928-2.040741,2.3006592-3.5082397,1.8430176
				C501.3552246,1089.6832275,501.245697,1089.6446533,501.1580505,1089.6068115z M511.4515381,1054.7648926
				c-1.2593079-0.5438232-1.9646606-1.97229-1.58078-3.3321533c1.9234619-6.805542,3.8876648-13.8101807,5.8453674-20.9669189
				c0.4031982-1.4868164,1.9588623-2.3720703,3.4515991-1.9621582c1.5470581,0.4831543,2.3671875,1.9700928,1.9527588,3.4520264
				c-1.9614868,7.1546631-3.9155273,14.1776123-5.8451538,20.9984131c-0.4255981,1.4864502-1.9908447,2.362915-3.4682922,1.9282227
				C511.6797791,1054.8634033,511.5656433,1054.814209,511.4515381,1054.7648926z M521.1160889,1019.7590332
				c-1.2593384-0.5438232-1.9480591-1.9379272-1.59021-3.2996826c1.8816528-6.9589844,3.7670898-14.0115356,5.6187134-21.0380249
				c0.4029541-1.4864502,1.9204712-2.3881836,3.4282837-1.9810791c1.4442749,0.3755493,2.3803101,1.9397583,1.9866333,3.4260864
				c-1.8568115,7.0375977-3.7411499,14.0767822-5.617981,21.0470581c-0.3977051,1.5160522-1.935791,2.382019-3.4500122,1.9897461
				C521.3740234,1019.8616333,521.2493286,1019.8165894,521.1160889,1019.7590332z M530.4275513,984.6824951
				c-1.2553711-0.5421143-1.9529419-1.9266357-1.602417-3.2915649l5.4546509-21.0861816
				c0.3762207-1.4985352,1.9128418-2.3919678,3.4057007-2.0134888c1.5896606,0.4156494,2.3954468,1.9143677,2.020874,3.4089355
				l-5.4478149,21.1025391c-0.4098511,1.4927979-1.9279175,2.3947144-3.4376831,2.0135498
				C530.692749,984.7789917,530.5377808,984.7301025,530.4275513,984.6824951z M539.4605103,949.4986572
				c-1.2402344-0.5355835-1.9382324-1.897644-1.5980225-3.2398071l5.3297729-21.1308594
				c0.3779297-1.5023804,1.8964233-2.4170532,3.3909912-2.0424805c1.5621338,0.4171753,2.4089355,1.90448,2.0308228,3.397583
				l-5.3322754,21.1367188c-0.3760376,1.4981079-1.8859253,2.4035645-3.3842773,2.0268555
				C539.734314,949.6168823,539.59375,949.5561523,539.4605103,949.4986572z M548.2980347,914.276123
				c-1.2402344-0.5355835-1.9382324-1.897583-1.5931396-3.2404175c1.9406128-7.8587036,3.6873169-14.9868774,5.2022705-21.1610107
				c0.3782959-1.5021973,1.8967896-2.4168701,3.4001465-2.0518799c1.4871216,0.3394775,2.40979,1.8822021,2.0547485,3.3828735
				c-1.5061646,6.1848145-3.2737427,13.3197021-5.2360229,21.1760254c-0.3762207,1.4984741-1.8928833,2.4185791-3.3918457,2.0444336
				C548.5751953,914.3865967,548.4312134,914.3336792,548.2980347,914.276123z"/>
		</g>
		<g>
			<path style="fill:#1C1C1C;" d="M405.0323181,1227.1762695c-1.3087769-0.5651855-2.0050049-2.0350342-1.5375366-3.4216309
				c0.9511719-2.9967041,2.9714661-6.4208984,6.1668396-10.4343262c0.9616394-1.2230225,2.7019653-1.4282227,3.9325867-0.4637451
				c1.2139587,0.9624023,1.4349976,2.7182617,0.4652405,3.9290771c-2.7427673,3.4459229-4.5037231,6.3637695-5.2403259,8.6859131
				c-0.4667053,1.4681396-2.05896,2.2701416-3.519928,1.7972412
				C405.208374,1227.2384033,405.1160889,1227.2124023,405.0323181,1227.1762695z"/>
		</g>
	</g>
	<g>
		<path style="fill:#1C1C1C;" d="M836.0734863,713.3049927c-1.2246094-0.5288086-2.354187-1.2264404-3.354187-2.0668335
			c-4.3262329-3.6419067-6.0750122-9.6253662-4.8909912-16.8408203c1.0523682-6.5230713,4.4356689-13.4385376,9.5019531-19.473877
			c10.934082-13.0193481,26.5083618-17.8883667,34.9611816-10.8219604c4.3353271,3.6412354,6.0822754,9.6289673,4.9034424,16.84198
			c-1.0839233,6.5136719-4.4445801,13.4389038-9.52771,19.4715576
			C858.0413208,711.87854,845.0620117,717.1864624,836.0734863,713.3049927z M865.9607544,668.8845825
			c-4.9717407-2.1469116-14.9074707,1.3183594-22.9136963,10.8386841
			c-4.2112427,5.0281982-7.0070801,10.6561279-7.8575439,15.8757935c-0.4318237,2.6095581-0.6990356,7.3776855,2.3301392,9.9155884
			c4.4116821,3.694519,15.5211792,0.6885376,24.4237061-9.9047241c4.2388306-5.0181274,7.0150146-10.6637573,7.8744507-15.8731079
			c0.4252319-2.6146851,0.6868896-7.3806152-2.3306274-9.9134521
			C867.039856,669.4476318,866.5314331,669.1310425,865.9607544,668.8845825z"/>
	</g>
	<g>
		<path style="fill:#1C1C1C;" d="M346.0189209,1251.4412842c-1.5899963-0.6866455-2.5407715-2.4147949-2.161499-4.1920166
			c1.175354-5.5535889,8.239563-21.526123,17.1841431-41.7684326
			c11.4916992-25.9846191,25.7706909-58.3294678,32.1126404-78.9105225
			c13.2129517-42.8474121,56.3411255-187.8173828,56.7058105-254.2544556
			c0.1417847-24.9101563-11.5426636-33.7311401-21.5054626-36.7990112
			c-12.5978699-3.8739014-26.4524841,0.4085693-29.6589355,5.1798096c-1.1464233,1.7139893-3.5049744,2.1489868-5.177063,1.0253296
			c-1.7155151-1.149353-2.1759033-3.4694214-1.021698-5.1801147c5.2153625-7.7719116,22.5894775-12.9196777,38.0366516-8.1716919
			c10.0623474,3.0770264,26.9736938,12.9318848,26.7996826,43.9890747
			c-0.3796997,67.4436035-43.7394409,213.3062744-57.03479,256.4161377
			c-6.4856873,20.9973145-20.8576355,53.5683594-32.4248657,79.7277832
			c-8.0625916,18.2629395-15.6898499,35.5179443-16.7239075,40.3066406
			c-0.4135437,2.0235596-2.4093933,3.3010254-4.4326782,2.8653564
			C346.4771118,1251.6345215,346.2510681,1251.5415039,346.0189209,1251.4412842z"/>
	</g>
	<g>
		<path style="fill:#1C1C1C;" d="M302.6847229,1369.8933105c-1.3960266-0.6029053-2.0597229-2.1802979-1.4968872-3.5982666
			c0.5800171-1.4372559,2.1900635-2.1455078,3.6378174-1.5791016c8.5299072,3.3765869,15.7828064,4.1077881,18.9761658,1.8852539
			c1.2931519-0.8724365,3.0240784-0.553833,3.901947,0.7052002c0.8855286,1.2628174,0.5606995,3.0178223-0.7000122,3.8995361
			c-6.6635742,4.614502-18.0432129,1.1899414-24.2313843-1.2747803
			C302.7458801,1369.9196777,302.7189941,1369.9080811,302.6847229,1369.8933105z M289.4205933,1363.0373535
			c-0.1254272-0.0541992-0.2565002-0.1380615-0.4047852-0.2335205
			c-8.0397949-5.2006836-14.0010986-11.0964355-16.8033447-16.6258545c-0.691803-1.3773193-0.1369019-3.0690918,1.2366028-3.7625732
			c1.3808899-0.7213135,3.0753784-0.1610107,3.7636108,1.2236328c2.3227844,4.5911865,7.7403259,9.8551025,14.8452148,14.4714355
			c1.3126526,0.8376465,1.6793213,2.5709229,0.8299561,3.87854
			C292.1433105,1363.1385498,290.6682129,1363.5760498,289.4205933,1363.0373535z M329.506012,1357.8128662
			c-1.1790466-0.5091553-1.8899536-1.7685547-1.6446838-3.0888672c1.0376892-5.4864502,2.1786499-12.9145508,3.3351135-22.041748
			c0.1887817-1.5341797,1.6039429-2.6065674,3.1329346-2.4154053c1.495697,0.1943359,2.6135254,1.5976563,2.4230347,3.1357422
			c-1.1748962,9.2319336-2.3261108,16.7684326-3.3886108,22.3752441c-0.2774048,1.5092773-1.7375793,2.5083008-3.2609253,2.2207031
			C329.9005127,1357.96521,329.6999817,1357.8966064,329.506012,1357.8128662z M274.4609985,1333.05896
			c-1.3504639-0.583252-2.0311584-2.1318359-1.5220032-3.5411377c0.334137-0.8668213,0.6879883-1.7386475,1.0723267-2.6286621
			c2.1321411-4.9375,5.2702942-10.730957,9.5639954-17.6955566c0.8158264-1.3359375,2.4497375-1.7539063,3.8587341-0.9199219
			c1.3056946,0.8120117,1.7120972,2.5357666,0.9112549,3.8370361c-4.1646118,6.7587891-7.1571045,12.2994385-9.1873169,17.0008545
			c-0.349884,0.8101807-0.6665344,1.5853271-0.9641418,2.3686523c-0.524353,1.4432373-2.1430969,2.1931152-3.5996399,1.6362305
			C274.5638123,1333.1032715,274.5182495,1333.0836182,274.4609985,1333.05896z M334.6624451,1320.7475586
			c-1.1148071-0.4814453-1.8101501-1.630249-1.6712952-2.8924561c0.8378906-7.4370117,1.6547546-15.0457764,2.4029236-22.2866211
			c0.1533508-1.5356445,1.5247803-2.6630859,3.0800171-2.501709c1.5226135,0.1523438,2.6515808,1.5512695,2.4810486,3.0753174
			c-0.7416077,7.2663574-1.5577698,14.8841553-2.4083862,22.3516846c-0.1674805,1.5479736-1.5553284,2.6503906-3.0933838,2.4598389
			C335.1585693,1320.9256592,334.9132996,1320.855835,334.6624451,1320.7475586z M292.9840698,1300.6782227
			c-0.1483765-0.0640869-0.307251-0.1552734-0.458252-0.2658691c-1.2691345-0.8548584-1.6227417-2.5959473-0.7408752-3.8760986
			c4.1335144-6.1539307,8.5480957-12.4160156,12.8530273-18.4552002c0.8901672-1.267334,2.6212463-1.5762939,3.907196-0.6553955
			c1.2558594,0.8856201,1.5451965,2.6396484,0.6549988,3.9069824c-4.2774353,5.9969482-8.6617737,12.2093506-12.791748,18.3240967
			C295.6565552,1300.8123779,294.209137,1301.2072754,292.9840698,1300.6782227z M338.590271,1283.5263672
			c-1.1065979-0.4777832-1.8100586-1.5982666-1.6835022-2.852417c0.988678-9.7412109,1.7964478-17.8095703,2.4115295-22.4316406
			c0.2164001-1.5361328,1.6127319-2.616333,3.1332092-2.4066162c1.5189819,0.182251,2.6270447,1.6081543,2.4067383,3.1425781
			c-0.5860596,4.5666504-1.401062,12.5777588-2.3842163,22.2540283c-0.1602478,1.5418701-1.532196,2.65979-3.0549622,2.5078125
			C339.1210938,1283.7196045,338.8453979,1283.6365967,338.590271,1283.5263672z M314.4847717,1270.0977783
			c-0.1900635-0.0821533-0.3535156-0.1842041-0.5097351-0.2922363c-1.273407-0.8974609-1.5680237-2.6403809-0.6761475-3.9116211
			c4.585083-6.4685059,9.2450867-13.1940918,12.399353-18.4394531c0.807251-1.3256836,2.5762939-1.7440186,3.8627625-0.9494629
			c1.3245239,0.7886963,1.738739,2.5157471,0.9515076,3.836792c-3.2523499,5.4104004-7.9836121,12.2175293-12.6260681,18.7879639
			C317.1063538,1270.2458496,315.6603394,1270.6053467,314.4847717,1270.0977783z M332.8218689,1237.7720947
			c-1.2515259-0.5404053-1.9468384-1.9193115-1.6045837-3.2652588c1.4369812-5.6799316,2.4768677-12.9575195,3.0821838-21.6550293
			c0.0873413-1.5506592,1.4427185-2.7030029,2.9868774-2.6004639c1.5396118,0.0830078,2.6988831,1.4321289,2.5868835,2.9766846
			c-0.6089478,9.1650391-1.6806335,16.5910645-3.2497253,22.670166c-0.3800049,1.49646-1.8902588,2.4017334-3.3920593,2.0235596
			C333.0805054,1237.8837891,332.9399109,1237.8231201,332.8218689,1237.7720947z M336.5717468,1200.6816406
			c-1.0002747-0.4318848-1.7106323-1.4517822-1.6838989-2.6224365c0.116272-6.6337891,0.0509644-13.9238281-0.1594238-22.3098145
			c-0.0418701-1.5437012,1.187439-2.8226318,2.723999-2.8587646c1.5432739-0.0419922,2.8460083,1.1749268,2.8887634,2.7369385
			c0.2151794,8.4379883,0.2571411,15.8034668,0.1450195,22.5112305c-0.0328674,1.5700684-1.3042603,2.7901611-2.8552246,2.7655029
			C337.2506714,1200.9073486,336.9102173,1200.8278809,336.5717468,1200.6816406z M335.9243774,1163.3126221
			c-0.9664001-0.4172363-1.6595459-1.3303223-1.6907349-2.4492188c-0.3112183-7.432251-0.6653442-14.9416504-1.0466919-22.3774414
			c-0.0794067-1.5412598,1.0997925-2.8603516,2.6582336-2.9365234c1.5563965-0.0725098,2.8735352,1.1101074,2.9210205,2.6514893
			c0.3790588,7.4527588,0.752594,14.9793701,1.0685425,22.4316406c0.0648499,1.5535889-1.1462097,2.8630371-2.6876526,2.9105225
			C336.7017212,1163.5716553,336.2971191,1163.4736328,335.9243774,1163.3126221z M334.1101074,1125.9906006
			c-0.9434204-0.4073486-1.6264954-1.3341064-1.6865234-2.4387207l-0.0540466-1.2960205
			c-0.2777405-5.6486816-0.2018738-12.8684082,0.2619324-21.4147949c0.0874939-1.5511475,1.4062195-2.7235107,2.9361572-2.6405029
			c1.5598755,0.0778809,2.7456055,1.3977051,2.6562195,2.9521484c-0.4490662,8.3452148-0.5324402,15.3630371-0.249176,20.8426514
			l0.0452881,1.3056641c0.0769958,1.5362549-1.1246033,2.8450928-2.6607666,2.9221191
			C334.9164734,1126.2348633,334.4980774,1126.1582031,334.1101074,1125.9906006z M335.3614197,1088.6245117
			c-1.0649414-0.4599609-1.7700806-1.576416-1.6698303-2.8017578c0.5883789-7.0164795,1.3556519-14.5200195,2.2565002-22.4173584
			c0.1871033-1.5302734,1.572876-2.6287842,3.1000671-2.4656982c1.5545349,0.1523438,2.6415405,1.5649414,2.467804,3.0963135
			c-0.8928528,7.8468018-1.6630249,15.2949219-2.2494202,22.244873c-0.1425476,1.5628662-1.4835815,2.7034912-3.009552,2.5588379
			C335.9179993,1088.8199463,335.6430359,1088.7460938,335.3614197,1088.6245117z M339.4546814,1051.4387207
			c-1.1182861-0.4829102-1.8366394-1.6416016-1.6856689-2.9212646c0.9215393-7.2335205,1.9643555-14.6860352,3.0809021-22.2780762
			c0.2321472-1.5200195,1.6544189-2.5982666,3.1871338-2.3740845c1.522583,0.2466431,2.5849304,1.6532593,2.3573608,3.1841431
			c-1.1017456,7.5577393-2.1314697,14.9798584-3.0663147,22.1715088c-0.1904907,1.5380859-1.6014709,2.6212158-3.1260071,2.4411621
			C339.9248352,1051.6149902,339.6829224,1051.5373535,339.4546814,1051.4387207z M344.7862854,1014.4268188
			c-1.1599731-0.5009155-1.8576355-1.7181396-1.6786194-2.9995728c1.1740417-7.3592529,2.3713379-14.7722778,3.6669922-22.1830444
			c0.2612915-1.5255127,1.6995239-2.5561523,3.2378235-2.293457c1.4868469,0.2672729,2.5512695,1.7108154,2.2658386,3.2397461
			c-1.2649536,7.3920898-2.4849243,14.7634888-3.6210632,22.107666c-0.2506714,1.5213013-1.6804199,2.5643921-3.2067566,2.3253784
			C345.2255554,1014.5805054,344.9919434,1014.515686,344.7862854,1014.4268188z M351.0221863,977.5480347
			c-1.1716614-0.5059814-1.8858948-1.7576294-1.664093-3.0654297c1.3516235-7.4364624,2.7502441-14.8341675,4.1753235-22.0855103
			c0.2930603-1.5252075,1.7642822-2.4963379,3.2703552-2.2114868c1.5667114,0.3016968,2.5282593,1.7641602,2.2077026,3.2908936
			c-1.3986816,7.230835-2.8035583,14.5809937-4.1412048,22.0054932c-0.2583313,1.5175781-1.7103882,2.5288696-3.2547913,2.2589111
			C351.401825,977.7026978,351.216156,977.6317749,351.0221863,977.5480347z M358.1233215,940.8487549
			c-1.1981506-0.517395-1.9161987-1.8340454-1.6312561-3.1413574c1.5560608-7.5964355,3.1428528-14.9493408,4.7506409-21.9859619
			c0.3233032-1.5213623,1.8370361-2.4560547,3.3312378-2.1223145c1.5365906,0.3608398,2.4606934,1.8477783,2.1125793,3.3538208
			c-1.572052,7.0159302-3.1453552,14.3386841-4.7106628,21.8719482c-0.3190002,1.5231934-1.8104553,2.4994507-3.3145752,2.1886597
			C358.4771423,940.9700928,358.2904358,940.9208984,358.1233215,940.8487549z M366.2647705,904.3324585
			c-1.2250061-0.5289917-1.9360046-1.8920288-1.5934143-3.2289429c1.9130554-7.8891602,3.8187866-15.2078857,5.6883545-21.8157959
			c0.423645-1.5140381,1.9732971-2.3746338,3.4529419-1.9343872c1.5857239,0.4139404,2.3633118,1.9684448,1.937561,3.4455566
			c-1.8520813,6.5567017-3.7580566,13.8032837-5.6398315,21.6199341c-0.3794861,1.5059204-1.888855,2.4198608-3.3890381,2.0474854
			C366.5613708,904.4291382,366.4014893,904.3915405,366.2647705,904.3324585z M376.3076172,868.2943726
			c-1.3200684-0.5700073-1.999176-2.0593262-1.5380554-3.451416c1.475647-4.4307251,2.8919983-8.2446289,4.226532-11.335022
			c2.1535034-4.9869995,4.1352234-8.258667,6.0435791-10.0023193c1.1331177-1.0454712,2.918396-0.9469604,3.9573975,0.1787109
			c1.0344849,1.137207,0.9550781,2.9104004-0.1828003,3.9561157c-0.7322693,0.6607666-2.3085632,2.5977173-4.678894,8.086731
			c-1.2706299,2.9424438-2.621582,6.614502-4.0547791,10.8837891c-0.4984741,1.4678955-2.0854797,2.258728-3.5452576,1.772522
			C376.4595032,868.3599854,376.3835754,868.3272095,376.3076172,868.2943726z"/>
	</g>
	<g>
		<path style="fill:#1C1C1C;" d="M309.3013916,1199.9222412c-5.5080566-26.5827637-17.982666-93.1999512-16.1389465-142.4732666
			c0.8616028-22.6674805,10.6083374-66.43396,20.9393311-112.7959595
			c12.3923035-55.7662354,29.4102173-132.1415405,20.6644897-139.930603
			c-3.7634277-3.355957-7.2019348-4.6420288-10.4680786-3.9247437c-6.0795288,1.3441162-10.8326721,9.5342407-12.1468506,12.5775146
			c-0.8156128,1.8887329-3.0114746,2.7614136-4.9015198,1.9498291c-0.007782-0.0033569-0.007782-0.0033569-0.007782-0.0033569
			c-1.8868103-0.8147583-2.7643127-2.9993286-1.9522095-4.8960571c0.2521362-0.5839233,6.3018188-14.4467163,17.3646851-16.9154663
			c5.7039795-1.2738037,11.4463501,0.6148071,17.0794067,5.635376
			c11.2140808,9.9830322,0.5419617,62.2366333-18.3609924,147.1264648
			c-10.2460632,46.0197144-19.9211731,89.4737549-20.7357788,111.4577637
			c-1.8166504,48.4677734,10.5236511,114.3504639,15.9266357,140.4455566L309.3013916,1199.9222412z"/>
	</g>
	<g>
		<path style="fill:#1C1C1C;" d="M506.9254456,811.0588379c-0.2625427-0.1133423-0.5033264-0.2556763-0.7348938-0.4301147
			c-1.6683655-1.2371216-2.0074463-3.5769043-0.7632141-5.2242432
			c31.3847351-42.1400146,188.8166809-252.6469727,205.7841492-258.6724243
			c1.3591309-0.4825439,2.8980103-0.1271362,3.9153442,0.9032593c1.0065308,1.0349731,1.3258057,2.5740967,0.8108521,3.9336548
			c-3.7469482,9.9310913-7.9821167,28.0574341-3.3536377,34.4475098c0.8093872,1.1051636,2.3216553,2.557251,6.2371826,2.3726807
			c1.4859619-0.0645142,2.8577271,0.7399902,3.5326538,2.0828247c0.6506958,1.3259277,0.4684448,2.9285278-0.4973755,4.057373
			L540.5864258,809.6337891c-1.3206787,1.5847168-3.6616211,1.8012695-5.2704468,0.4475098
			c-1.5665283-1.3262329-1.7683105-3.6811523-0.446228-5.2583008l177.0779419-210.1206665
			c-2.5806274-1.0894165-4.296814-2.769165-5.3977051-4.2963867c-5.1047974-7.0219116-3.6373901-19.4291992-1.3862915-28.8961792
			c-30.7452393,32.7373657-128.1184082,160.2565918-193.7586365,248.3515015
			C510.3514099,811.2770386,508.4924622,811.7355347,506.9254456,811.0588379z"/>
	</g>
	<g>
		<path style="fill:#1C1C1C;" d="M724.8132935,596.0021362c-0.7381592-0.3187256-1.4960327-0.6954956-2.2609863-1.1298218
			c-4.0031128-2.2679443-8.6280518-7.496521-7.9993286-19.5390015c0.725769-14.3479004,9.1798706-34.0505371,15.8688354-36.9888306
			c1.8844604-0.8310547,4.086853,0.0363159,4.9292603,1.9210815c0.8182373,1.8788452-0.0275879,4.0772095-1.9128418,4.9101563
			c-3.1183472,1.6615601-11.2858276,18.2025757-11.473877,31.7963867c-0.0690918,4.0588379,0.630249,9.336792,4.2579956,11.3973999
			c1.6846924,0.9489136,3.0180664,1.3939209,4.0869751,1.541687c-1.9595337-2.725769-3.8676147-6.7833862-4.0526733-12.3855591
			c-0.2576294-7.7542725,4.9215698-21.6186523,13.0375977-29.8885498c4.9732056-5.078186,10.6815796-7.7106934,16.4570923-7.633667
			c2.0487671,0.0320435,3.7167358,1.7293091,3.675415,3.7897339c-0.0169678,2.0663452-1.7119751,3.7130737-3.7905884,3.6774292
			c-3.7422485-0.0498047-7.4383545,1.7680054-11.0089722,5.3961792c-7.0245361,7.1528931-11.086792,19.0376587-10.9141235,24.406189
			c0.2580566,7.5650024,4.8988647,10.6453857,5.0916748,10.7734985c0.8616333,0.5550537,1.4736328,1.4376831,1.6607056,2.4257202
			c0.2016602,0.9960938,0.000061,2.0375977-0.5674438,2.8712158
			C738.1015015,595.9251099,732.7897949,599.4465942,724.8132935,596.0021362z"/>
	</g>
	<g>
		<path style="fill:#1C1C1C;" d="M742.9146118,600.5606689c-2.571167-1.1103516-4.6509399-2.888855-6.0809326-5.2324829
			c-2.0755615-3.4395142-3.6575928-9.725769,0.6871948-20.1210938
			c10.3491211-24.8123169,33.0252075-24.168457,33.9885254-24.1314087c2.0827026,0.1095581,3.6802368,1.835083,3.579895,3.8858032
			c-0.0890503,2.055542-1.8182373,3.6560669-3.8634644,3.5848999c-0.8583984-0.0296021-18.5411987-0.300293-26.8157959,19.5409546
			c-2.4486084,5.8480225-2.8701782,10.5966797-1.190918,13.3659058c1.3128662,2.1535034,3.7293701,2.7658691,5.5474854,2.9349365
			c2.0578613,0.1778564,3.585083,1.9816284,3.411377,4.0458984c-0.1789551,2.0551147-1.991272,3.576355-4.0484619,3.3969116
			C746.2366943,601.6680298,744.4894409,601.2406616,742.9146118,600.5606689z"/>
	</g>
	<g>
		<path style="fill:#1C1C1C;" d="M833.6306763,711.8032227c-0.5250854-0.2267456-1.0010986-0.5765381-1.406311-1.0606689
			c-13.7714844-16.7695923-82.5661011-100.9244385-85.175293-111.1227417
			c-2.9559937-11.6748657,3.8759766-22.2282104,11.2715454-28.2027588
			c11.9520264-9.62854,23.9671021-6.2863159,24.4772339-6.1405029c0.6807251,0.2108154,1.2805786,0.5779419,1.7313843,1.0910645
			l85.6091309,95.2785645c1.3736572,1.5322876,1.2365723,3.8873291-0.2825928,5.2735596
			c-1.539978,1.3818359-3.9172363,1.2329102-5.2869873-0.2879639l-84.7860107-94.3731689
			c-2.4735718-0.3956909-9.5303955-0.8499146-16.7596436,4.9801636
			c-5.6063232,4.5066528-10.8327026,12.2825928-8.7384644,20.5388184
			c2.1744995,7.2034912,52.4990845,70.2079468,83.7143555,108.2259521c1.3134766,1.5987549,1.0765381,3.944397-0.5031738,5.2619629
			C836.3610229,712.1790161,834.8705444,712.338623,833.6306763,711.8032227z"/>
	</g>
	<g>
		<path style="fill:#1C1C1C;" d="M419.8435364,705.0500488c-0.1974792-0.0853271-0.368866-0.1796265-0.5544434-0.2935181
			c-0.895752-0.5809326-1.5101624-1.5297852-1.6585388-2.5870361l-24.2009888-164.3029785
			c-0.2995605-2.0385132,1.1079102-3.9397583,3.1513367-4.2399902c2.0395203-0.3018799,3.9475098,1.1112671,4.2342834,3.1484375
			l23.5814514,160.0933228l3.1621399-0.9046021L404.175354,537.5854492
			c-0.3010864-2.0415039,1.1061096-3.940979,3.1509399-4.2401733c2.01651-0.3118286,3.9316406,1.1062622,4.2346802,3.1485596
			l23.8768921,161.6244507c0.2692871,1.8540039-0.875061,3.6253052-2.6692505,4.1436157l-10.4201965,2.9561157
			C421.5028687,705.4509277,420.6159668,705.3835449,419.8435364,705.0500488z"/>
	</g>
	<g>
		<path style="fill:#1C1C1C;" d="M266.2988892,635.0870361c-15.4302673-6.663208-24.3929291-15.4910278-25.7064972-25.883606
			c-3.9840698-31.6968994,66.2358856-65.7455444,159.8531036-77.5142212
			c93.6044922-11.7648926,170.0581055,3.869873,174.0493164,35.5652466
			c2.8292847,22.4927368-29.8639526,45.965271-87.418335,62.7976074c-2.0045776,0.5762939-4.0620422-0.553894-4.6318054-2.5371704
			c-0.5993042-1.9876709,0.5435791-4.0595703,2.5176086-4.6379395c51.3526001-15.001709,84.3425903-36.987854,82.1251221-54.6891479
			c-3.0020142-23.7226563-70.2661743-41.0731812-165.7113342-29.0900269
			c-95.432251,12.0001831-156.3515625,45.4551392-153.3744965,69.1735229
			c1.8376465,14.5878296,26.7108002,26.0825195,66.5315094,30.7359619c2.0661926,0.2581787,3.5189209,2.0996094,3.2724609,4.1439819
			c-0.2338867,2.0516968-2.0886536,3.513916-4.1407776,3.2756958
			C294.3250732,644.1657104,278.3458252,640.2892456,266.2988892,635.0870361z"/>
	</g>
	<g>
		<path style="fill:#1C1C1C;" d="M228.4257355,610.5703125c-0.5153351-0.2225342-0.982605-0.5574341-1.367157-1.0100708
			c-1.3330994-1.5683594-1.1412048-3.9251709,0.4279938-5.2601929l165.0672607-140.297821
			c1.1513367-0.9784851,2.6015625-1.1850281,4.1321716-0.4764709l161.6330872,83.2875977
			c1.8336182,0.9475708,2.5645752,3.2060547,1.6157227,5.0372925c-0.9560547,1.8276367-3.2675781,2.3934326-5.0319824,1.6088257
			l-159.4182434-82.1504211L232.3235474,609.9880371C231.205246,610.9423828,229.6846466,611.1138916,228.4257355,610.5703125z"/>
	</g>
	<g>
		<path style="fill:#1C1C1C;" d="M352.8074036,559.2849121c-0.0210571-0.0090942-0.0475464-0.0205078-0.0744324-0.0321045
			c-1.8768616-0.8580933-2.7029419-3.0740356-1.8428955-4.9501343l40.6847534-89.010498
			c0.5375977-1.1667786,1.632782-1.9776917,2.9072571-2.1496887c1.2784424-0.1587219,2.5443726,0.3269348,3.3624878,1.3166199
			l63.5591736,76.5932007c1.3157654,1.5881348,1.1044006,3.9430542-0.490448,5.2582397
			c-1.591095,1.3278809-3.9421997,1.102417-5.2571106-0.4876709l-59.7565002-72.0150452l-38.2146606,83.6028748
			C356.8369751,559.2600708,354.6673279,560.0880737,352.8074036,559.2849121z"/>
	</g>
	<g>
		<path style="fill:#1C1C1C;" d="M506.2952271,635.5664063c-0.4603882-0.1988525-0.8883972-0.53479-1.202301-0.9882813
			l-69.1567383-100.8946533c-0.8731079-1.2754517-0.5471497-3.0234985,0.7251282-3.8956909
			c1.2795105-0.8824463,3.0146179-0.5532837,3.8994141,0.7272339l69.1508789,100.8920898
			c0.8797913,1.276062,0.5614014,3.0269165-0.7255249,3.8955078
			C508.1614685,635.8648071,507.1549072,635.9376221,506.2952271,635.5664063z"/>
	</g>
	<g>
		<path style="fill:#1C1C1C;" d="M346.4708252,632.1356812c-1.2608643-0.5444946-1.9639893-1.9470825-1.5931091-3.3078613
			l24.2337341-89.1189575c0.4031677-1.4933472,1.943512-2.3740845,3.4379578-1.9681396
			c1.4579163,0.3610229,2.3712463,1.9404297,1.9668274,3.4355469l-24.2324524,89.1213379
			c-0.4052734,1.4929199-1.9455872,2.3736572-3.4390259,1.965332
			C346.7156982,632.2321777,346.5907898,632.1875,346.4708252,632.1356812z"/>
	</g>
	<g>
		<path style="fill:#1C1C1C;" d="M261.6973267,650.1533203c-0.178772-0.0772095-0.3594971-0.1755371-0.5279236-0.2982178
			c-1.256012-0.9056396-1.5387878-2.65448-0.6327209-3.906189l71.3533936-99.0209351
			c0.9009094-1.2557983,2.6200867-1.5426025,3.9137268-0.6340942c1.2533569,0.9021606,1.5394592,2.6529541,0.6318665,3.9081421
			l-71.3560486,99.0174561C264.3015137,650.3096924,262.8842163,650.6658325,261.6973267,650.1533203z"/>
	</g>
	<g>
		<path style="fill:#1C1C1C;" d="M567.1774902,612.9615479c-0.2282715-0.0985718-0.4425659-0.2294922-0.6413574-0.3855591
			l-98.368927-78.7259521c-1.2112122-0.9676514-1.4020996-2.7313843-0.434845-3.9363403
			c0.9573059-1.2087402,2.6980591-1.4298706,3.9312744-0.4393311l98.3817139,78.727356
			c1.2108154,0.9697266,1.3973999,2.7316284,0.4333496,3.9398193
			C569.6742554,613.1482544,568.3187256,613.4544067,567.1774902,612.9615479z"/>
	</g>
</g>
<g>
	<path style="fill:#1C1C1C;" d="M1244.1557617,1037.1022949l32.8347168,10.942627l-0.0390625,13.9520264l-104.3837891-35.7906494
		l0.0449219-16.2769775l104.5826416-35.3627319l-0.0402832,14.4160156l-32.8956299,11.0703125L1244.1557617,1037.1022949z
		 M1233.710083,1002.8138428l-30.1019287,10.1472778c-6.8273926,2.3060303-13.0324707,3.8392334-19.0811768,5.3723755
		l-0.0010986,0.3105469c6.1959229,1.5670776,12.5469971,3.2900391,18.8970947,5.3234863l30.199707,10.3151855
		L1233.710083,1002.8138428z"/>
	<path style="fill:#1C1C1C;" d="M1172.755127,958.9284668l0.0368652-13.4867554l93.1661377,0.2593384l0.1242676-44.6456299
		l11.3164063,0.0316162l-0.1610107,58.1323853L1172.755127,958.9284668z"/>
	<path style="fill:#1C1C1C;" d="M1274.2174072,819.0727539c2.4659424,4.9675293,4.9193115,14.8956909,4.8835449,27.6066284
		c-0.081543,29.4538574-18.7463379,51.5701904-53.0061035,51.4753418
		c-32.7081299-0.0914307-54.8129883-22.321106-54.7233887-54.7199097
		c0.0368652-13.0214844,2.8500977-21.2290039,4.7191162-24.7893677l10.9978027,3.2860107
		c-2.4946289,5.1084595-4.3751221,12.3895264-4.399292,21.0697632
		c-0.0678711,24.4931641,15.5432129,40.8139038,42.9813232,40.8898315
		c25.5783691,0.0712891,42.0509033-14.609314,42.1223145-40.032959c0.0229492-8.2155762-1.65979-16.5916138-4.2797852-22.0244141
		L1274.2174072,819.0727539z"/>
	<path style="fill:#1C1C1C;" d="M1224.5870361,716.0025635c35.9642334,0.1000366,54.9716797,22.0111084,54.8969727,48.6740723
		c-0.0759277,27.5934448-21.5229492,46.9120483-53.147583,46.8240356
		c-33.1740723-0.0925903-54.817627-20.7706909-54.7406006-48.6740723
		C1171.6751709,734.3026733,1193.583374,715.9162598,1224.5870361,716.0025635z M1226.0672607,797.0823364
		c22.3222656,0.0620728,42.3533936-11.9731445,42.4121094-33.2108154
		c0.0596924-21.3929443-19.5941162-33.5391846-43.3127441-33.6052856
		c-20.7717285-0.0581055-42.5040283,10.732666-42.5661621,33.2107544
		C1182.5384521,785.7998657,1203.1239014,797.0184937,1226.0672607,797.0823364z"/>
	<path style="fill:#1C1C1C;" d="M1173.5177002,684.8568726l43.71521,0.1218872l0.1402588-50.5361938l-43.7150879-0.1218872
		l0.0379639-13.6420288l104.4825439,0.2910156l-0.0379639,13.6419678l-48.9863281-0.1362915l-0.1403809,50.5361938
		l48.9864502,0.1362915l-0.0379639,13.4862061l-104.482666-0.2910156L1173.5177002,684.8568726z"/>
	<path style="fill:#1C1C1C;" d="M1225.1655273,508.1236572c35.9642334,0.1000671,54.9718018,22.0111694,54.8969727,48.6735229
		c-0.0758057,27.5934448-21.5228271,46.9120483-53.147583,46.8240356
		c-33.1739502-0.0925903-54.817627-20.7706909-54.7406006-48.6740723
		C1172.2536621,526.4238281,1194.1618652,508.0374146,1225.1655273,508.1236572z M1226.645752,589.2028809
		c22.3222656,0.0620728,42.3533936-11.9731445,42.4121094-33.2113647
		c0.0598145-21.3917847-19.5941162-33.5380249-43.3126221-33.604187
		c-20.7718506-0.0580444-42.5041504,10.7327271-42.5661621,33.2102661
		C1183.1169434,577.9204102,1203.7023926,589.1390381,1226.645752,589.2028809z"/>
	<path style="fill:#1C1C1C;" d="M1174.0582275,490.4647217l0.0379639-13.4867249l93.1662598,0.2593384l0.1242676-44.6456604
		l11.3162842,0.0316467l-0.1621094,58.1323853L1174.0582275,490.4647217z"/>
	<path style="fill:#1C1C1C;" d="M1174.3538818,384.43573l0.1563721-56.2720032l11.3164063,0.0316162l-0.1196289,42.7852783
		l34.7232666,0.0966187l0.1104736-39.5297546l11.1622314,0.0310364l-0.1103516,39.5297852l47.2806396,0.1316833
		l-0.0368652,13.4867554L1174.3538818,384.43573z"/>
	<path style="fill:#1C1C1C;" d="M1175.958374,308.9451599c-1.3756104-6.8250427-2.1231689-16.5927429-2.0968018-25.8940735
		c0.0402832-14.4166565,2.7005615-23.7110596,8.6090088-30.2048492c4.6661377-5.2585297,11.8040771-8.1828003,19.8643799-8.1603699
		c13.7972412,0.0385284,22.9191895,8.7440643,26.6088867,19.760849l0.4645996,0.0011597
		c2.8133545-8.0528259,10.2674561-12.8374786,21.125-15.2879028c14.5827637-3.3699493,24.6662598-5.8220978,28.7021484-7.9809418
		l-0.0390625,13.951416c-2.9501953,1.6970673-11.947876,3.9973602-24.9780273,6.9061127
		c-14.4240723,3.0605774-19.8666992,8.6261902-20.3647461,20.8713379l-0.0356445,12.7115479l45.265625,0.125946
		l-0.0379639,13.4867249L1175.958374,308.9451599z M1223.5864258,295.5906982l0.0378418-13.7967224
		c0.0402832-14.4166565-7.8405762-23.5845642-19.7768555-23.6179199
		c-13.4855957-0.037384-19.4020996,9.7125244-19.5975342,23.973877c-0.0184326,6.5110474,0.5888672,11.1628723,1.2030029,13.3349304
		L1223.5864258,295.5906982z"/>
	<path style="fill:#1C1C1C;" d="M1230.4425049,171.5950928l-0.112793,40.6149292l37.6699219,0.10466l0.1253662-45.2655945
		l11.3164063,0.0316315l-0.163208,58.7523499l-104.482666-0.2910004l0.1575928-56.426712l11.3164063,0.0316162
		l-0.1196289,42.9399872l33.0186768,0.0920105l0.112793-40.6149292L1230.4425049,171.5950928z"/>
	<path style="fill:#1C1C1C;" d="M1230.6540527,95.3275757l-0.1126709,40.6143646l37.6699219,0.10466l0.1265869-45.2650223
		l11.3164063,0.0316315l-0.1633301,58.7517624l-104.482666-0.2909851l0.1564941-56.4261475l11.3162842,0.0316238
		l-0.1195068,42.9393997l33.0186768,0.0920105l0.1126709-40.6143494L1230.6540527,95.3275757z"/>
</g>
</svg>
