<?xml version="1.0" encoding="utf-8"?>
<!-- Generator: Adobe Illustrator 23.1.0, SVG Export Plug-In . SVG Version: 6.00 Build 0)  -->
<svg version="1.1" id="Слой_1" xmlns="http://www.w3.org/2000/svg" xmlns:xlink="http://www.w3.org/1999/xlink" x="0px" y="0px"
	 viewBox="0 0 1976.4193115 3801.2902832" style="enable-background:new 0 0 1976.4193115 3801.2902832;" xml:space="preserve">
<g>
	<path style="fill:#1C1C1A;" d="M1854.5012207,1622.4750977c0.8272705-100.2850342,3.84375-200.8806152,2.4866943-301.1655273
		c-0.6604004-48.553833-4.4702148-97.7659912-20.6890869-143.4689941
		c-17.0606689-48.0893555-59.8272705-72.3078613-75.1027832-107.2978516
		c-23.6882324-54.2554932-22.7669678-146.5800171-31.5428467-205.5734863
		c-10.3215332-69.4013062-22.0750732-139.1768799-28.0716553-209.2391357
		c6.4779053-8.3188477,17.9436035-15.1060791,23.0887451-25.8536377c6.845459-14.2938232,0.2200928-28.7814331-7.6749268-41.7905273
		c3.7537842,0.2335815,7.8442383,0.5866089,12.7763672,1.0909424c11.8240967,1.2130737,18.1710205-12.7808228,16.3277588-23.5177612
		c-4.2161865-24.5742188-11.9179688-59.7128296-31.3637695-75.4161072
		c-27.7232666-22.389679-84.0939941-13.7257996-115.9923096-14.4610596
		c-33.1103516-0.7644348-95.8258057-9.8928528-126.7154541,8.9028015
		c-24.0708008,14.6494751-33.6811523,51.71521-39.8083496,79.0287476c-1.4174805,6.3147583,0.0922852,11.517334,2.9632568,15.461731
		c3.0986328,5.3114014,8.4903564,8.5576782,15.3287354,7.5861816c0.2418213-0.0106201,0.4692383-0.0318604,0.7087402-0.0557251
		c0.6364746-0.1194458,1.1687012,0.0610352,1.8286133-0.1380615c2.7023926-0.8175049,5.135376-1.194458,7.6341553-1.6881714
		c-6.2553711,15.1113892-14.078125,32.4205933-7.2180176,47.2744751
		c3.0018311,6.4952393,8.2387695,11.9526367,12.9388428,16.9906616c2.7938232,2.9941406,5.701416,5.8634644,8.4927979,8.8602905
		c0.1621094,0.1751709,0.6071777,0.7192993,1.1296387,1.3590088
		c-10.9262695,128.9682007-35.0986328,257.6045532-55.1345215,385.1260986
		c-7.2277832,46.0109863-34.7769775,53.3822021-56.5738525,95.3929443
		c-25.5874023,49.3156738-33.9351807,107.9481201-36.126709,163.9289551
		c-7.6365967,195.1948242-7.2495117,396.0488281-0.3483887,591.2250977
		c5.2950439,149.7359619,127.692749,138.8530273,233.4022217,136.3234863
		c89.0213623-2.1314697,272.6033936,33.8009033,290.7404785-104.2161865
		C1864.7987061,1829.6437988,1853.6888428,1720.8223877,1854.5012207,1622.4750977z M1716.2696533,1016.6004639
		c-85.7368164,9.3327637-171.5457764,10.9891357-257.4829102,4.4885254
		c11.4124756-72.6369629,23.7247314-145.6323242,34.2036133-218.8320313
		c64.2348633,7.9047241,127.6248779,2.7366333,191.6781006-4.6053467
		c8.4299316,57.8149414,17.9992676,115.4759521,26.8040771,172.9007568
		C1713.5605469,984.1852417,1714.7840576,1000.1937866,1716.2696533,1016.6004639z M1534.6756592,592.9885864
		c16.0325928-0.3158569,23.6958008-5.9802856,32.0532227-4.8973389c12.5570068,1.6245117,23.3522949,9.0063477,36.1677246,8.074646
		c6.5577393-0.4777832,25.0770264-8.4701538,30.6164551-11.7827759c3.309082,1.6165161,11.6663818,4.0957031,13.579834,5.1016846
		c4.7023926,2.4712524,13.0549316,7.8994141,18.5749512,8.6638794c7.571167,1.0432129,11.2503662-0.0795898,14.9731445-1.9376831
		c3.3961182,6.3545532,6.8745117,13.0462646,11.1414795,18.0205688c0.1741943,0.3583374,0.3483887,0.7166748,0.522583,1.0750122
		c-0.6434326,0.8573608-1.2868652,1.7651367-1.6594238,2.1553345c-1.9980469,2.107605-4.1315918,4.0930786-6.279541,6.0652466
		c-0.4499512,0.0584106-0.8200684-0.1114502-1.2819824-0.0185547
		c-61.4311523,12.480896-126.4906006,10.6599731-188.2651367,2.8056641
		c-0.0262451-0.0053101-0.0458984,0.0079956-0.0725098,0.0053101c-3.0982666-3.302063-6.2553711-6.4050293-9.2741699-8.9080811
		c0.0266113-0.1698608,0.0483398-0.2388916,0.0749512-0.4273682c0.56604-1.8580322,1.1804199-3.6975098,1.8457031-5.5157471
		c2.9293213-8.3692627,6.2601318-16.5474243,9.1628418-24.9246216
		C1508.3145752,589.4741821,1519.8669434,593.2832031,1534.6756592,592.9885864z M1509.322876,664.855835
		c52.5922852,5.7201538,106.62146,5.967041,159.1459961-1.9695435c2.9075928,32.7550049,6.7706299,65.4569092,11.1706543,98.1243286
		c-60.6401367,6.8429565-120.7020264,11.3129272-181.4969482,4.4858398
		C1502.5574951,731.9849854,1506.376709,698.4389648,1509.322876,664.855835z M1598.7434082,512.9432373
		c23.5167236,0.4990234,56.4407959-3.079071,78.9150391,4.0930176c17.3630371,5.5449829,25.265625,17.1234131,29.9051514,31.5764771
		c-6.2650146-0.77771-12.4332275-1.0776978-17.5662842,0.4512329c-5.282959,1.5714111-9.6728516,6.2616577-14.1870117,9.4336548
		c-1.581543,1.1121826-2.3797607,1.9616089-3.2219238,2.8215942c-10.9989014-3.9788818-23.6159668-14.8326416-35.5244141-15.1219482
		c-12.4429932-0.3052979-32.5487061,13.1019897-38.5939941,13.2320557
		c-4.4749756,0.0955811-24.1359863-9.9406738-34.4958496-10.3308105
		c-11.0379639-0.411438-29.3734131,7.9577637-35.1228027,7.4959106
		c-5.7115479-0.4538574-23.2293701-13.038269-33.8702393-14.4689941c-5.350708-0.7219849-11.347168-0.2521362-17.4453125,0.5866089
		C1502.760376,505.2508545,1552.6386719,511.9664307,1598.7434082,512.9432373z M1822.2642822,1425.3239746
		c-0.9361572,113.2436523-1.869873,226.4871826-2.8060303,339.7335205
		c-0.3599854,43.59021,2.164917,88.7012939-1.0909424,132.1693115
		c-6.3907471,85.3170166-75.3302002,93.6835938-144.6590576,94.5144043
		c-73.496582,0.8812256-168.2531738,20.6590576-238.9487305-0.597168
		c-71.6849365-21.5562744-73.0540771-70.4073486-73.0540771-132.8887939c0-179.3508301-3.9959717-359.2697754,0-538.5648193
		c0.6700439-29.9732666,2.447998-59.6624756,8.3719482-89.072998
		c11.427002-56.7452393,41.3781738-83.7800293,69.6940918-127.1896973
		c8.5388184-13.0860596,11.6931152-29.0706787,13.9237061-45.4932861
		c89.0959473,7.0792236,178.052002,5.3618164,266.9403076-4.5761719
		c2.1431885,13.4523926,5.0072021,26.2145996,9.4604492,36.9196777c2.2398682,5.3911133,1.9520264,10.0627441,5.4715576,15.2626953
		c14.9973145,22.1534424,37.4018555,25.2617188,53.3372803,50.4224854
		c12.9654541,20.4705811,19.9129639,45.5358887,25.2753906,69.4570313
		C1828.548584,1289.5153809,1822.8037109,1359.9333496,1822.2642822,1425.3239746z"/>
	<path style="fill:#1C1C1A;" d="M1584.9312744,1298.2058105c-1.2166748,0.0106201-2.1116943,0.5150146-3.1905518,0.7432861
		c-0.4620361,0.0345459-0.8393555-0.1513672-1.3110352-0.0795898
		c-234.7423096,36.4923096-232.7055664,588.4061279,22.9970703,549.5247803
		C1848.2023926,1811.1746826,1835.338501,1295.7399902,1584.9312744,1298.2058105z M1598.6856689,1809.7678223
		c-211.5742188,22.7824707-204.1044922-439.3178711-12.4602051-474.3237305
		C1794.2724609,1335.3220215,1799.6258545,1788.131958,1598.6856689,1809.7678223z"/>
	<path style="fill:#1C1C1A;" d="M1433.7991943,1317.1607666c6.359375-41.8886719,23.1635742-78.2749023,50.7442627-108.1499023
		c15.5343018-16.8260498-8.4155273-43.0991211-23.9473877-26.2756348
		c-31.3516846,33.960083-52.2004395,76.7803955-59.4523926,124.5458984
		C1397.5926514,1330.6741943,1430.2191162,1340.7342529,1433.7991943,1317.1607666z"/>
	<path style="fill:#1C1C1A;" d="M1499.8725586,1169.9464111c21.7893066,0,21.8255615-37.1612549,0-37.1612549
		C1478.0825195,1132.7851563,1478.0461426,1169.9464111,1499.8725586,1169.9464111z"/>
</g>
<g>
	<path style="fill:#1C1C1A;" d="M954.2311401,3442.7961426c-70.1705322-15.9331055-144.9977417-26.6281738-212.6098022-51.4619141
		c-13.2644043-4.8723145-18.1126099,16.6162109-4.9702759,21.4440918
		c67.6282349,24.8405762,142.4526978,35.5334473,212.6101685,51.4602051
		C963.0701294,3467.3747559,968.0679321,3445.9370117,954.2311401,3442.7961426z"/>
	<path style="fill:#1C1C1A;" d="M1077.7550049,3141.4277344c78.630249-112.6115723,141.0465088-240.5375977,135.1702881-381.7548828
		c-0.1566162-3.7597656-1.8724365-6.3847656-4.230835-8.0546875c-1.1477051-0.9602051-2.5622559-1.7302246-4.2838135-2.2131348
		c-1.9669189-0.5527344-3.9550781-1.0554199-5.9233398-1.6020508c10.3343506-42.4289551-9.1697998-84.8562012-56.2003174-84.1101074
		c-0.3902588-66.0595703-91.5837402-96.3701172-130.1317749-43.770752
		c-28.3518677-34.2531738-92.6836548-38.7905273-117.9048462,0.0766602
		c-31.1376343-13.2856445-63.7689209,9.4057617-62.2687988,43.0229492
		c-1.3965454-0.3044434-2.8007202-0.6040039-4.1969604-0.9099121c-1.906189-0.4174805-3.5982666-0.2963867-5.1421509,0.104248
		c-2.7334595,0.5334473-5.2913818,2.182373-7.0214233,5.3710938
		c-67.3961792,124.2246094-67.6269531,266.5749512-46.5539551,402.2939453
		c12.4252319,80.0163574,4.1548462,138.5119629-31.2752075,212.2609863
		c-22.7677002,47.3896484-50.7737427,90.8696289-57.7536011,144.2426758
		c-0.6638794,5.0788574,0.9989624,9.4572754,5.4751587,12.1635742
		c45.8879395,27.7426758,105.517395,33.7177734,157.0803223,46.0561523
		c47.8572388,11.4538574,98.3781128,27.4177246,148.0111694,24.6569824
		c5.2404175-0.2912598,8.6777344-3.8056641,10.2663574-8.5148926
		c16.4472046-48.7336426,11.838562-97.9008789,11.5129395-148.2219238
		C1011.8424072,3268.5480957,1030.0651855,3209.723877,1077.7550049,3141.4277344z M831.3897705,2685.4145508
		c119.7520752,26.1240234,241.399292,50.4291992,359.5322266,83.1293945
		c0.8374023,39.0449219-4.0157471,78.513916-13.1544189,117.21875
		c-128.1112061-32.8500977-260.3768921-47.0515137-386.4226074-87.9707031
		C800.1516724,2758.5629883,813.2580566,2720.5388184,831.3897705,2685.4145508z M891.2669067,2643.0170898
		c5.0075073,3.8608398,14.2876587,4.4267578,17.2357178-2.7565918c25.4539185-35.2333984,56.5467529-33.5578613,93.2786865,5.026123
		c2.7412109,8.0888672,16.4863892,11.2988281,20.1904297,1.9812012
		c19.1952515-48.2856445,110.2062378-41.6787109,97.5713501,25.9960938
		c-1.170166,6.2670898,3.7200928,14.6940918,11.1762695,13.4848633
		c40.0407715,0.1242676,48.2988281,23.5385742,45.5223389,55.036377
		c-105.5024414-28.307373-213.5179443-50.4682617-320.3002319-73.5683594
		C854.0076294,2638.3161621,873.0582886,2630.967041,891.2669067,2643.0170898z M952.6095581,3485.8498535
		c-35.2816772-4.7443848-70.4667969-14.4458008-105.0455322-22.6894531
		c-36.703186-8.7507324-75.1191406-15.5288086-111.2697754-26.2802734
		c-34.7946167-10.3486328-35.9649048-13.189209-26.4035645-43.8149414
		c6.505127-20.8381348,15.4858398-40.9509277,25.680603-60.222168
		c26.3341064-49.782959,56.1226196-103.1748047,63.0464478-160.1083984
		c9.2266235-75.8728027-20.9775391-153.5605469-21.9743042-229.6064453
		c-0.5327759-40.7365723,2.7827148-82.6313477,10.3218384-123.7099609
		c125.7019653,40.7167969,257.5736694,54.9609375,385.3291626,87.6672363
		c-11.335083,40.7717285-26.9661865,80.3994141-45.5834961,117.1801758
		c-34.3946533,67.9445801-95.6252441,124.2736816-120.7423706,196.5280762
		c-18.8446045,54.2094727-15.5766602,115.1499023-13.8169556,171.5185547
		c0.6812134,21.7888184-0.1062622,43.8071289-3.4308472,65.3791504
		C984.2671509,3486.5861816,985.1047974,3490.2214355,952.6095581,3485.8498535z"/>
	<path style="fill:#1C1C1A;" d="M1035.637085,3103.7290039c4.6375732-9.5356445,16.8846436-16.645752,23.7581787-24.8674316
		c6.7468262-8.0720215,12.8566895-16.7385254,18.3901367-25.682373
		c13.1687012-21.2868652,22.9415283-44.4699707,32.6363525-67.4755859
		c5.4611816-12.9567871-13.8564453-23.5432129-19.3551025-10.4934082
		c-9.6860352,22.9802246-19.407959,46.2492676-32.6381836,67.4753418
		c-6.7270508,10.7944336-14.3375244,21.0869141-23.2113037,30.2233887
		c-6.6436768,6.8400879-14.7189941,11.6535645-18.9385376,20.3259277
		C1010.0924683,3105.9558105,1029.4334717,3116.4831543,1035.637085,3103.7290039z"/>
	<path style="fill:#1C1C1A;" d="M1111.3007813,2945.8476563c13.7974854,3.197998,18.7906494-18.2409668,4.9702148-21.4440918
		C1102.4730225,2921.2055664,1097.4797363,2942.6442871,1111.3007813,2945.8476563z"/>
</g>
<g>
	<path style="fill:#1C1C1A;" d="M1678.7719727,3519.4731445c-69.1467285,19.9123535-139.8438721,46.6594238-211.0455322,57.5415039
		c-13.9688721,2.1345215-7.8438721,23.2946777,5.996582,21.1799316
		c71.2192383-10.8835449,141.9129639-37.6315918,211.045166-57.5429688
		C1698.3758545,3536.7336426,1692.4064941,3515.5458984,1678.7719727,3519.4731445z"/>
	<path style="fill:#1C1C1A;" d="M1641.5062256,3195.911377c14.5157471-136.5773926,7.4398193-278.7419434-65.8630371-399.5871582
		c-1.9517822-3.2172852-4.7214355-4.6882324-7.5928955-5.0126953c-1.4686279-0.2868652-3.0792236-0.2785645-4.8200684,0.1293945
		c-1.9893799,0.4650879-3.9732666,0.984375-5.9609375,1.4555664c-11.4266357-42.1479492-48.9855957-69.8930664-89.815918-46.5410156
		c-32.2244873-57.668457-126.7226563-40.2019043-135.0975342,24.470459
		c-41.362915-16.315918-99.8959961,10.7587891-103.2266846,56.972168
		c-33.6831055,3.3920898-51.3106689,39.0148926-33.7719727,67.7333984
		c-1.3699951,0.4077148-2.7443848,0.8227539-4.1148682,1.2287598c-1.8710938,0.5544434-3.2946777,1.4770508-4.4533691,2.5732422
		c-2.1365967,1.786377-3.5810547,4.4650879-3.557251,8.0927734
		c0.9279785,141.326416,69.4290771,266.1113281,153.3879395,374.8063965
		c49.5009766,64.083252,70.489502,119.3063965,75.0529785,200.9973145
		c2.9313965,52.4931641-0.6119385,104.0908203,19.034668,154.204834c1.869751,4.7685547,5.439209,7.8007813,10.6657715,8.010498
		c53.5792236,2.1506348,108.6877441-21.3955078,159.8027344-35.4753418
		c47.4423828-13.0661621,99.3944092-23.4675293,141.5317383-49.8400879
		c4.4490967-2.7844238,5.7634277-7.5212402,4.8818359-12.4125977
		c-9.1157227-50.619873-36.8818359-91.4572754-61.4537354-135.3725586
		C1645.1311035,3339.0578613,1632.7003174,3278.7431641,1641.5062256,3195.911377z M1205.6463623,2915.4291992
		c117.4898682-34.9165039,235.7617188-72.3405762,355.0073242-100.7160645
		c19.5778809,33.7922363,34.3764648,70.7023926,45.0528564,109.0117188
		c-128.0571289,33.0598145-250.7524414,84.4580078-380.8950195,109.4541016
		C1213.5914307,2994.5710449,1206.7185059,2954.9428711,1205.6463623,2915.4291992z M1237.6256104,2849.3979492
		c6.2490234,0.9645996,14.6499023-3.0185547,13.7650146-10.7329102
		c5.288208-43.1430664,33.3286133-56.6821289,84.1213379-40.6174316c6.3048096,5.7614746,19.892334,1.9389648,18.6392822-8.0095215
		c-6.4925537-51.5537109,76.4056396-89.6923828,98.0018311-24.3232422
		c1.9998779,6.0534668,10.3499756,11.0739746,16.2966309,6.4162598c35.12854-19.2163086,53.6616211-2.6950684,66.4320068,26.2312012
		c-106.0634766,26.1271973-211.3614502,58.8500977-316.0325928,90.1552734
		C1202.7242432,2863.2634277,1215.8624268,2847.6323242,1237.6256104,2849.3979492z M1698.1311035,3557.9633789
		c-33.1903076,12.8728027-68.6884766,21.357666-102.9520264,30.8266602
		c-36.3687744,10.0500488-73.2857666,22.6542969-110.1362305,30.6855469
		c-35.4683838,7.7297363-37.8643799,5.8066406-44.2714844-25.6306152
		c-4.3598633-21.3901367-6.201416-43.3398438-6.5736084-65.1384277
		c-0.9630127-56.3105469-0.6422119-117.4492188-22.0562744-170.6547852
		c-28.5380859-70.9042969-92.4863281-124.3671875-130.0616455-190.4887695
		c-20.1275635-35.4208984-37.4434814-73.7133789-50.666626-113.3295898
		c129.7438965-25.0073242,252.114624-76.1779785,379.7910156-109.1921387
		c9.7502441,41.1794434,15.1859131,83.4304199,16.6320801,124.6291504
		c2.6689453,76.1074219-23.7719727,154.9936523-10.897583,230.3979492
		c9.6588135,56.5727539,41.9329834,108.3686523,70.6796875,156.8884277
		c11.1126709,18.7541504,21.0496826,38.4182129,28.5494385,58.9162598
		C1726.2127686,3543.3291016,1728.7009277,3546.1086426,1698.1311035,3557.9633789z"/>
	<path style="fill:#1C1C1A;" d="M1586.423584,3183.2214355c-0.5405273-10.5898438,6.7541504-22.7277832,8.8061523-33.2458496
		c2.0131836-10.3259277,3.1815186-20.8649902,3.7111816-31.3688965c1.2596436-24.9992676-1.3699951-50.0202637-3.9824219-74.8481445
		c-1.4703369-13.9836426-23.4985352-13.9321289-22.0159912,0.151123
		c2.6077881,24.8015137,5.3234863,49.8730469,3.9805908,74.8486328
		c-0.6820068,12.7006836-2.3797607,25.3884277-5.7420654,37.6730957
		c-2.5174561,9.1970215-7.2667236,17.3103027-6.7768555,26.9421387
		C1565.1258545,3197.5004883,1587.1459961,3197.3857422,1586.423584,3183.2214355z"/>
	<path style="fill:#1C1C1A;" d="M1576.4925537,3008.4277344c13.6275635-3.8583984,7.6536865-25.0449219-5.996582-21.1801758
		C1556.8677979,2991.105957,1562.8417969,3012.2924805,1576.4925537,3008.4277344z"/>
</g>
</svg>
