<?xml version="1.0" encoding="utf-8"?>
<!-- Generator: Adobe Illustrator 23.1.0, SVG Export Plug-In . SVG Version: 6.00 Build 0)  -->
<svg version="1.1" id="Слой_1" xmlns="http://www.w3.org/2000/svg" xmlns:xlink="http://www.w3.org/1999/xlink" x="0px" y="0px"
	 viewBox="0 0 1456.1612549 2437.9355469" style="enable-background:new 0 0 1456.1612549 2437.9355469;" xml:space="preserve">
<g id="Углы">
	<g>
		<path style="fill:#1C1C1A;" d="M567.0595093,1972.6069336c0-6.2120361-5.0541992-11.2661133-11.2661133-11.2661133
			c-6.2120361,0-11.2662354,5.0540771-11.2662354,11.2661133c0,3.4393311,1.1407471,13.0855713,3.7751465,19.0750732v214.1363525
			c0,0.4277344,0.2016602,0.8303223,0.5430908,1.0871582l3.9246826,2.9436035
			c0.0067139,0.005127,0.0151367,0.0065918,0.0218506,0.0114746c0.1026611,0.0742188,0.2158203,0.1323242,0.3371582,0.1757813
			c0.0245361,0.0087891,0.048584,0.0153809,0.0733643,0.0227051c0.1223145,0.036377,0.2490234,0.0617676,0.3831787,0.0617676
			h7.8500977c0.7501221,0,1.3586426-0.6081543,1.3586426-1.3586426v-215.7606201
			C566.2753296,1987.5332031,567.0595093,1976.5159912,567.0595093,1972.6069336z M554.3173218,1966.1586914
			c1.62146,0.822876,1.9588623,3.4155273,0.75354,5.7906494c-1.2054443,2.3753662-3.4971924,3.633667-5.1186523,2.8109131
			c-1.62146-0.822876-1.9588623-3.4155273-0.753418-5.7908936
			C550.4041138,1966.5942383,552.6957397,1965.3358154,554.3173218,1966.1586914z M554.9441528,2207.4035645v-211.3197021
			c0.2679443-0.019165,0.5462646-0.0334473,0.8492432-0.0334473c1.5089111,0,2.9664307-0.0040283,4.2836914-0.5604248v211.9135742
			H554.9441528z"/>
	</g>
	<g>
		<path style="fill:#1C1C1A;" d="M761.1386719,2163.1779785c2.180481,0.2116699,6.3553467,4.5112305,6.7901001,6.6582031
			c2.0370483,10.0627441-3.7628174,16.6154785-4.8331299,17.9494629c-0.9762573,1.2165527-4.9703369,3.0749512-6.390686,3.7202148
			c-1.041626,0.4731445-2.1997681,0.6132813-3.2948608,0.9450684c-4.9898682,1.5119629-7.8382568,6.5681152-11.4412231,10.3369141
			c-4.4182739,4.6210938-10.5368652,7.5788574-16.902832,8.1704102c-3.1210938,0.2900391-6.3206787,0.0375977-9.3453979,0.8598633
			c-1.4940796,0.40625-2.9122925,1.067627-4.4182739,1.4267578c-1.8556519,0.4423828-3.7868652,0.4135742-5.6942139,0.3820801
			c-5.0858765-0.0834961-10.1716309-0.1672363-15.2575073-0.2507324c-2.5810547-0.0424805-5.1740723-0.0842285-7.7318726,0.2636719
			c-3.6734009,0.5-7.2399292,1.798584-10.946228,1.8803711c-2.5476685,0.0563965-5.0560303-0.4655762-7.5290527-1.1218262
			c-0.0278931,0.0002441-0.0545654,0.0056152-0.0827026,0.0041504l-111.1427612-5.4460449
			c-0.4468384-0.0219727-0.8571777-0.2531738-1.1082764-0.623291l-2.8753052-4.2521973
			c-0.0048828-0.0070801-0.0060425-0.0161133-0.0108032-0.0234375c-0.0724487-0.1108398-0.1273193-0.2324219-0.1665039-0.3613281
			c-0.0078735-0.0258789-0.0136108-0.0515137-0.0200195-0.0778809c-0.0316162-0.1296387-0.0515747-0.2634277-0.0447388-0.4035645
			l0.4019775-8.2038574c0.0384521-0.7839355,0.7050781-1.3886719,1.4893799-1.3503418l113.607605,5.5668945
			c4.050354-0.1518555,8.1565552,0.9741211,11.5014038,3.270752c0.8657227,0.5944824,1.74646,1.2866211,2.7935791,1.3679199
			c0.7440186,0.0576172,1.47052-0.2050781,2.1801758-0.4360352c4.2692871-1.3894043,8.8735352-1.7375488,13.3031006-1.0061035
			c1.5098877,0.2495117,2.9995728,0.6218262,4.5187378,0.8063965c1.4813232,0.1801758,2.9780273,0.1801758,4.4702759,0.1799316
			c1.2037354-0.0002441,2.4075928-0.0004883,3.6114502-0.0007324c1.9589233-0.0004883,3.9349976-0.0024414,5.8511353-0.4099121
			c3.65625-0.7775879,4.1554565-1.8798828,7.6950073-3.0820313c1.3850098-0.470459,8.5650635-0.3537598,8.9179688-0.4196777
			c7.9311523-1.4765625,14.5635376-8.3347168,15.7739868-16.3110352c0.397583-2.6191406,0.2623291-5.3088379,0.8145142-7.8999023
			c0.552002-2.5910645,1.4365234-4.2998047,3.0591431-6.394043
			C751.3890381,2165.3991699,755.5890503,2162.6394043,761.1386719,2163.1779785z M551.6016846,2201.9343262l102.0873413,5.0021973
			c0.7631226-0.7067871,1.8787231-1.135498,2.9387207-1.2353516c0.7229614-0.0683594,1.5931396-0.1181641,1.9437866-0.7539063
			c0.1443481-0.2619629,0.1618652-0.5725098,0.1762695-0.8710938c0.0359497-0.7546387,0.0722046-1.5090332,0.1083374-2.2634277
			l-106.9915771-5.2426758L551.6016846,2201.9343262z M764.4056396,2180.7729492
			c-0.8255615,1.8898926-2.0043945,3.638916-3.5673218,4.9968262c-1.8331909,1.5925293-3.9002075,2.0634766-6.1988525,2.6220703
			c-2.1653442,0.526123-4.0939941,1.1960449-5.902771,2.5227051c-1.7559814,1.2878418-3.2904663,2.848877-4.7332764,4.4729004
			c-2.678894,3.015625-5.0866699,6.380127-8.4491577,8.6928711c-3.3579102,2.3098145-7.3283081,3.0097656-11.3250122,3.2185059
			c-2.248291,0.1171875-4.4622803,0.2080078-6.6756592,0.654541c-2.1834717,0.4406738-4.2929077,1.1501465-6.4546509,1.6743164
			c-4.3098145,1.0444336-8.6526489,0.4394531-13.0216064,0.2116699c-4.4585571-0.2319336-9.0285034-0.3391113-13.4425049,0.4411621
			c-2.085083,0.3686523-4.1257324,0.9348145-6.1710205,1.4748535c-2.0637817,0.5446777-4.1466675,1.2297363-6.2989502,1.2583008
			c-3.4747925,0.0458984-6.9562378-1.1904297-10.0841675-2.6108398c3.4802246,1.8161621,7.5355835,3.4382324,11.5344238,3.0566406
			c2.4708862-0.2355957,4.8842773-0.9787598,7.2959595-1.5285645c2.3997803-0.5471191,4.8031006-0.972168,7.2651978-1.0905762
			c4.4926758-0.2160645,8.9865112,0.1564941,13.4658813,0.4609375c2.3084106,0.1569824,4.6140747,0.3837891,6.9246216,0.1240234
			c2.2440186-0.2524414,4.3901978-0.9245605,6.567627-1.4882813c2.1643066-0.5605469,4.3320313-0.9619141,6.5656128-1.0944824
			c2.288147-0.135498,4.5822144-0.2165527,6.8450317-0.6118164c4.2023315-0.734375,7.7805176-2.6650391,10.7924805-5.6696777
			c2.8395386-2.8322754,5.1071777-6.1796875,7.9473877-9.0114746c1.3692627-1.3649902,2.9257202-2.6833496,4.732605-3.4213867
			c2.0446777-0.8352051,4.2896118-1.0668945,6.3265991-1.9020996c3.6917725-1.5136719,6.0985718-5.309082,7.1018066-9.0339355
			c0.9665527-3.588623,0.6655273-7.2189941-0.7769775-10.6225586
			C766.1392212,2172.5454102,766.1149292,2176.859375,764.4056396,2180.7729492z"/>
	</g>
</g>
<g id="Кальян">
	<g>
		<path style="fill:#1C1C1A;" d="M992.0029907,1925.1141357c-1.7937622-2.8096924-3.6863403-5.553833-5.6950684-8.1958008
			c-8.5797119-11.2849121-18.9554443-20.4660645-30.2252808-28.868042c-1.2325439-0.1075439-2.46521-0.2149658-3.7173462-0.3186035
			c7.9746704,12.3193359,14.5549927,25.5026855,18.7947998,39.4599609
			C978.1139526,1926.6018066,985.067749,1925.9309082,992.0029907,1925.1141357z"/>
		<path style="fill:#1C1C1A;" d="M855.453125,2078.2958984c119.6117554,0,214.4317627-53.567627,214.4317627-122.2918701
			c0-16.5310059-15.5737305-38.1535645-28.6638184-48.8963623c-0.1551514-0.2312012-0.3269043-0.4619141-0.5270996-0.6912842
			c-3.7325439-4.2781982-15.2637939-8.2280273-32.5709229-11.5800781
			c4.8595581,8.2017822,8.9798584,16.7996826,12.0709229,25.7753906c5.6809082-1.2823486,11.2716064-2.9071045,16.6623535-5.1933594
			c-5.206665,2.7783203-10.6339111,4.8410645-16.2070923,6.5307617c2.6264648,7.9174805,4.4707642,16.1138916,5.3241577,24.5738525
			c1.5302734,15.1652832-0.1831055,30.9743652-6.3903198,45.0012207
			c-6.138916,13.8724365-15.4492798,25.5438232-27.2044678,35.0673828
			c-13.7456665,11.1361084-29.5145264,18.4406738-45.9226074,24.717041
			c20.9945679-12.3597412,41.1245117-27.1331787,52.5845947-49.2539063
			c7.0309448-13.5715332,9.0814819-29.1750488,6.3690796-44.1568604
			c-1.9147949-10.5762939-6.0864258-20.5791016-11.5742798-29.7966309
			c-5.9994507,1.0789795-12.0249634,2.0146484-18.0653687,2.8494873c-1.1293335,0.1558838-2.2651367,0.2684326-3.3955688,0.4182129
			c0.9962158,3.7386475,1.828186,7.5288086,2.4597168,11.3745117c1.3021851,7.9296875,1.3198853,15.6490479,0.5563965,23.6245117
			c-1.1868896-6.7910156-2.7335815-13.4313965-5.5770874-19.7556152c-2.1972046-4.8864746-4.7581787-9.5046387-7.5650635-13.994873
			c-19.8167114,2.302002-39.7506104,3.7514648-59.6700439,4.5643311
			c-49.7092896,2.0283203-99.8120728,1.1535645-149.2835083-4.3597412
			c-24.0987549-2.6856689-49.0112305-5.9616699-71.7028809-14.8713379c20.4818115,6.0129395,42.0455322,7.963501,63.25177,9.6557617
			c24.4598999,1.9519043,48.9755249,2.9750977,73.5042114,3.5114746
			c46.9533691,1.0272217,94.1091309,0.4852295,140.9689941-3.0067139c-0.682312-1.0065918-1.3495483-2.019165-2.0585327-3.0158691
			c-7.9240723-11.1416016-17.961731-20.9666748-28.4877319-29.6037598
			c-4.4384766-3.6417236-9.1065063-6.9364014-13.8599243-10.1242676
			c-18.3761597-0.8334961-38.0187378-1.2872314-58.4400024-1.2872314c-52.045166,0-99.0586548,3.2965088-132.753418,8.1895752
			c1.234375-3.0356445,2.406189-6.0968018,3.4549561-9.1988525c2.7764893-8.2115479,5.0393066-16.6430664,5.6083374-25.3151855
			c-0.0234985,0.3594971-0.8527222,1.1488037-1.0689087,1.4572754c-0.5523071,0.7884521-1.0803833,1.5942383-1.5939331,2.4080811
			c-1.274353,2.0196533-2.4575195,4.0991211-3.5410156,6.2271729c-2.2210693,4.3613281-4.0946045,8.9124756-5.6402588,13.5551758
			c-1.2798462,3.8447266-2.3250732,7.7773438-3.1032104,11.7574463c-5.553772,0.8795166-10.7137451,1.8013916-15.3936157,2.7617188
			c0.0246582-0.0831299,0.053772-0.1657715,0.0782471-0.2491455c1.8607788-6.2738037,3.8383789-13.1254883,3.8383789-19.7318115
			c0,0.4237061-1.2975464,1.7858887-1.4893188,2.0695801c-4.0932617,5.9935303-7.1873779,12.6846924-9.6203003,19.5135498
			c-12.4238892,2.9724121-20.5996094,6.2205811-23.3092041,9.5175781h-0.0317993
			c-15.0687866,11.4361572-30.8844604,32.3989258-30.8844604,48.961792
			C641.0212402,2024.7282715,735.8413696,2078.2958984,855.453125,2078.2958984z M736.1763916,1941.8132324
			c6.7805786,0,12.2773438,5.4967041,12.2773438,12.2772217c0,6.7807617-5.4967651,12.2774658-12.2773438,12.2774658
			c-6.7807007,0-12.2774048-5.4967041-12.2774048-12.2774658
			C723.8989868,1947.3099365,729.3956909,1941.8132324,736.1763916,1941.8132324z M690.1001587,1934.8288574
			c10.5866699,0,19.1688843,13.4526367,19.1688843,30.0477295c0,16.5946045-8.5822144,30.0476074-19.1688843,30.0476074
			s-19.1689453-13.4530029-19.1689453-30.0476074C670.9312134,1948.2814941,679.5134888,1934.8288574,690.1001587,1934.8288574z"/>
		<path style="fill:#1C1C1A;" d="M704.8670044,1878.0111084
			C705.7598267,1876.6888428,703.9650879,1879.3320313,704.8670044,1878.0111084L704.8670044,1878.0111084z"/>
		<path style="fill:#1C1C1A;" d="M741.241333,1883.0823975c1.1588135-1.8959961,2.2608032-3.8270264,3.3048096-5.7888184
			c2.371521-4.4554443,4.5010376-9.0469971,6.4370117-13.7077637c1.9620361-4.7231445,3.7335205-9.5432129,5.1636963-14.4556885
			c1.0457764-3.5916748,1.4752808-7.230957,2.2857056-10.8491211c-0.2948608,1.1573486-2.2611084,2.7871094-2.9940796,3.8000488
			c-1.3175049,1.8204346-2.5604858,3.6970215-3.7206421,5.62146c-2.5910645,4.2979736-4.8340454,8.8173828-6.7543335,13.4526367
			c-1.99646,4.8193359-3.6552734,9.7987061-4.8411255,14.8808594c-0.4959106,2.1260986-0.8885498,4.2753906-1.1715698,6.4400635
			c-0.1077881,0.8249512-0.2000122,1.6517334-0.2659912,2.4812012c-0.0159302,0.2019043,0.0783081,1.9710693-0.104126,2.1708984
			C739.5230713,1886.7770996,740.7062378,1883.958374,741.241333,1883.0823975z"/>
		<path style="fill:#1C1C1A;" d="M765.1760254,1864.4852295c1.3496094-1.9117432,2.6383667-3.8662109,3.8671875-5.8571777
			c2.6588135-4.3076172,5.0932617-8.7587891,7.3405151-13.2937012c2.2744751-4.5905762,4.362854-9.2889404,6.1321411-14.0982666
			c0.7644043-2.078125,1.4508667-4.1842041,2.0455933-6.3171387c0.1710205-0.6132813,0.6980591-4.546875,1.0787964-4.720459
			c-0.6159668-0.0866699-2.8369141,3.1186523-3.2803345,3.6550293c-1.5314941,1.8525391-2.9841919,3.7728271-4.3479004,5.7520752
			c-2.9046631,4.2163086-5.4758301,8.6762695-7.7260742,13.2736816c-4.0180054,8.2087402-6.6297607,16.5516357-8.0819702,25.5375977
			C763.024292,1868.2918701,764.6954956,1865.1661377,765.1760254,1864.4852295z"/>
		<path style="fill:#1C1C1A;" d="M790.4707031,1847.3918457c1.4813232-1.8218994,2.906189-3.690918,4.2730103-5.6002197
			c2.9798584-4.1627197,5.7382202-8.4899902,8.3169556-12.911377c2.6309814-4.5108643,5.078064-9.1455078,7.2110596-13.9136963
			c0.3792114-0.8476563,4.4458618-11.1875,4.039978-11.293335c-1.3066406,0.6278076-2.5665894,2.4326172-3.555603,3.4833984
			c-1.6431885,1.7460938-3.2146606,3.5625-4.7011719,5.4436035c-3.1691284,4.0098877-6.0270386,8.2774658-8.5834961,12.7021484
			c-2.5961304,4.4932861-4.8913574,9.1759033-6.7715454,14.0145264c-0.8433228,2.1702881-1.5834961,4.3795166-2.2070923,6.6230469
			c-0.3244019,1.1672363-1.4906006,3.87146-1.1196899,5.0253906
			C788.5188599,1850.414917,789.6686401,1848.3782959,790.4707031,1847.3918457z"/>
		<path style="fill:#1C1C1A;" d="M831.3466187,1813.5976563c3.0144653-4.479248,5.8468628-9.1018066,8.3488159-13.8884277
			c1.1069946-2.1177979,2.133728-4.2781982,3.0563965-6.4831543c0.3865356-0.9234619,0.7576904-1.8552246,1.0894165-2.7998047
			c0.1035767-0.2940674,0.2416992-1.3703613,0.5032349-1.5551758c-0.3921509-0.2150879-3.6107788,3.090332-4.0629883,3.5161133
			c-1.7739868,1.6696777-3.4770508,3.4156494-5.1008301,5.2321777c-3.4619141,3.8731689-6.6282959,8.0236816-9.4950562,12.3547363
			c-2.859314,4.3195801-5.4393311,8.8433838-7.6150513,13.5465088c-0.4037476,0.8728027-4.265625,11.3964844-4.0688477,11.4169922
			C814.9453735,1835.8110352,830.2485962,1815.2294922,831.3466187,1813.5976563z"/>
		<path style="fill:#1C1C1A;" d="M875.6262817,1775.9608154c-0.0853271,0.0408936-0.1781006,0.1514893-0.2733765,0.2955322
			C875.5072632,1776.133667,875.6154175,1776.0270996,875.6262817,1775.9608154z"/>
		<path style="fill:#1C1C1A;" d="M841.9949341,1820.4984131c-0.0791016-0.2625732,3.4429321-3.0443115,3.8691406-3.4503174
			c1.7247925-1.6422119,3.3996582-3.3369141,5.0220337-5.0804443c3.6254272-3.8959961,7.0446777-7.9903564,10.28302-12.2127686
			c3.2679443-4.2608643,6.3657837-8.6734619,9.1450806-13.2703857c1.2260742-2.02771,2.3760986-4.102417,3.4263306-6.2266846
			c0.3044434-0.6153564,1.0282593-3.1208496,1.6123657-4.0014648c-0.4943848,0.3928223-1.5012207,0.9676514-1.6206665,1.0576172
			c-0.8266602,0.6210938-1.6364136,1.2636719-2.4337158,1.9219971c-1.8655396,1.5406494-3.6673584,3.1594238-5.3954468,4.852417
			c-3.6948242,3.6199951-7.112793,7.5356445-10.2526245,11.6447754c-3.2593384,4.2658691-6.2342529,8.7678223-8.7989502,13.4857178
			c-1.1149902,2.0512695-2.1323242,4.1536865-3.0448608,6.3027344
			C843.4458618,1816.3718262,841.6203003,1819.6851807,841.9949341,1820.4984131z"/>
		<path style="fill:#1C1C1A;" d="M871.2467651,1807.8148193c0.1467285-0.3916016,1.5193481-1.1220703,1.7964478-1.336792
			c0.7905884-0.6134033,1.5674438-1.2434082,2.3357544-1.8843994c1.8485107-1.5411377,3.6499023-3.138916,5.4012451-4.789917
			c3.9105225-3.6872559,7.6261597-7.5898438,11.1644287-11.6348877c3.5703125-4.0814209,6.9746704-8.3292236,10.0703125-12.7834473
			c2.2059937-3.1740723,4.6525879-6.6292725,6.0193481-10.2752686c-1.4028931,1.1148682-3.1097412,1.9505615-4.5748291,3.0056152
			c-2.0771484,1.4953613-4.0879517,3.083374-6.0231934,4.758667c-3.9609375,3.4287109-7.6625977,7.1748047-11.0876465,11.137207
			c-3.5341187,4.0887451-6.8029175,8.4312744-9.6607056,13.0203857
			C876.1818848,1797.8443604,870.8518677,1807.6694336,871.2467651,1807.8148193z"/>
		<path style="fill:#1C1C1A;" d="M1345.4865723,2179.1105957c-1.9776611-8.7780762-7.8684082-14.9282227-13.157959-13.7365723
			c-2.1000977,0.4729004-3.7885742,2.032959-4.9377441,4.2910156c-1.6625977,3.2663574-4.9868164,5.3723145-8.6451416,5.1467285
			c-11.5224609-0.7092285-26.008667,0.0009766-36.9179688,1.0983887
			c-4.9211426-4.2307129-11.2208252-6.9321289-18.2058105-7.2595215
			c-11.0419922-0.5183105-20.9476318,4.9916992-26.6049805,13.607666L1092.0891113,2205.625
			c-4.7647705-3.755127-10.6870117-6.1325684-17.2088623-6.4384766
			c-10.6397705-0.4995117-20.2296143,4.595459-25.9766846,12.6748047c-4.6270752-3.4101563-10.2739258-5.543457-16.446167-5.8330078
			c-12.7060547-0.5959473-23.9210205,6.7758789-28.8647461,17.699707
			c-68.0214233,6.6989746-132.7832031,9.979248-192.8241577,9.979248
			c-174.0390625-0.0041504-308.3447266-27.5476074-366.8857422-79.1040039
			c-19.3131714-17.0107422-29.1010132-35.9960938-29.0924377-56.4313965
			c0.0333862-74.3862305,76.0670166-123.3007813,205.6359558-181.730835
			c-8.6060791,15.0841064-12.9711914,30.8796387-12.9711914,47.0994873c0,39.998291,26.4503174,77.2264404,74.4799805,104.8217773
			c11.7791138,6.7678223,24.5369873,12.7575684,38.0742798,17.9404297l-34.1369629,25.3078613
			c-6.1668701,4.5732422-9.19104,11.7609863-8.090271,19.2314453c1.1512451,7.8188477,6.6340942,14.3908691,14.3068848,17.1525879
			c36.3793335,13.0917969,92.8688354,20.0107422,163.3636475,20.0107422c68.3677368,0,122.3733521-3.4248047,163.7264404-20.1340332
			c7.6427002-3.0864258,13.0083008-9.8371582,14.0012207-17.6154785c0.9217529-7.2265625-2.1065674-14.1948242-8.1055908-18.6408691
			l-34.1530151-25.3210449c13.5284424-5.1809082,26.277771-11.1679688,38.0494995-17.9316406
			c48.0284424-27.5953369,74.4799805-64.8234863,74.4799805-104.8217773c0-19.8297119-6.5073242-39.0307617-19.3304443-57.0557861
			l-0.1894531-0.269165c-0.3725586-0.5275879-0.7452393-1.0532227-1.0664063-1.4863281
			c-13.9276123-19.3496094-32.2541504-32.581543-51.6555176-46.5915527
			c-31.0349731-22.4080811-62.760376-45.3743896-80.112793-96.0465088
			c24.3157349-13.4783936,48.5253296-28.2419434,74.0534668-43.8275146
			c16.9844971-10.37146,34.5462646-21.0941162,52.5496826-31.659668
			c208.7640381-122.5212402,235.0023193-234.5756836,236.5919189-277.0650635
			c1.3074951-34.8974609-11.2849121-64.1490479-34.5463867-80.2525635
			c-52.3704834-36.2550049-119.0777588-19.0957031-171.5982666,13.2282715
			c-1.4908447-0.3382568-3.0357666-0.5333252-4.6289063-0.5333252c-11.5153809,0-20.8504639,9.335083-20.8504639,20.850708
			c0,0.0493164,0.0068359,0.0968018,0.0073242,0.145752c-4.0734863-0.5317383-12.8416748-2.8795166-16.232666-0.0262451
			l-71.2999878,59.1293945c-7.0865479-1.3482666-13.996521-0.0653076-19.1951294,4.2590332
			c-12.9678955,10.7878418-27.6845093,35.0280762-46.8695068,60.7739258
			c-10.4058228-9.0114746-23.2281494-16.1142578-37.6292114-20.6031494
			c4.5645142-4.78125,7.3839111-11.2432861,7.3839111-18.3753662v-217.0179443
			c0-7.1635742-2.8424072-13.6529541-7.442749-18.4401855c28.0355835-6.0386963,47.4013062-18.9206543,47.4013062-33.8393555
			c0-7.6049805-5.0462646-14.6763916-13.6933594-20.5866699h43.3170776c23.8331299,0,45.2803955-8.2904053,54.2067261-20.9533691
			l16.079834-22.8111572c3.6982422-5.2462158-0.0540771-12.4813232-6.4724121-12.4813232H884.8719482l-5.4770508-18.8123779
			c15.8256836-6.3330078,26.5839233-18.7432861,26.5839233-33.0222168c0-11.631958-7.1386108-22.0250244-18.3394775-28.90271
			c18.5630493-6.9130249,33.9522705-21.1663208,42.0064697-40.0683594l9.1450806-21.4636841H772.1151123l9.1453247,21.4636841
			c8.0540161,18.9020386,23.4433594,33.1553345,42.0061646,40.0683594
			c-11.2008667,6.8776855-18.3392334,17.270752-18.3392334,28.90271c0,14.1531982,10.5735474,26.4659424,26.1703491,32.8491211
			l-5.2869873,18.9854736H678.4420166c-6.3723755,0-10.1349487,7.1434326-6.5300293,12.3984375l15.505127,22.6027832
			c8.7921753,12.8167725,30.3763428,21.2446289,54.4091187,21.2446289h43.9825439
			c-8.6472168,5.9102783-13.6936646,12.9816895-13.6936646,20.5866699c0,14.9187012,19.3659058,27.8006592,47.4017944,33.8393555
			c-4.600647,4.7872314-7.4430542,11.2766113-7.4430542,18.4401855v217.0179443
			c0,7.1320801,2.819458,13.5941162,7.3839111,18.3753662c-14.4154663,4.4935303-27.2493896,11.6060791-37.6604614,20.6304932
			c-20.1501465-26.8444824-33.8953857-50.1334229-46.8384399-60.8012695
			c-10.9418945-9.0184326-29.3182373-4.9029541-41.1365356,9.3035889
			c-11.8180542,14.2062988-12.5615845,33.0742188-1.6606445,42.1428223
			c13.2406616,11.0146484,40.7336426,21.0334473,69.3063354,35.2199707
			c-4.8074951,9.69104-7.4781494,20.2838135-7.4781494,31.3934326c0,14.0440674,4.2511597,27.2672119,11.7268066,38.8743896
			c-13.8135986,8.3895264-25.6014404,17.3968506-34.6773071,25.0965576c-11.9526978,10.1401367-11.9526978,28.5240479,0,38.6638184
			c9.492981,8.0537109,21.9414063,17.5422363,36.5847778,26.2531738h-5.8509521
			c-7.6674194,0-13.8831177,6.2155762-13.8831177,13.8830566v17.4512939c0,7.6674805,6.2156982,13.8829346,13.8831177,13.8829346
			h8.1369019c-11.1046143,79.8605957-48.6165771,109.5039063-86.0698853,136.6373291
			c-186.7542419,79.4204102-299.8832397,136.260498-299.9299622,243.0163574
			c-0.0129089,29.6999512,13.2980042,56.4873047,39.5628662,79.6174316
			c64.5293884,56.831543,204.243866,86.9621582,386.7676086,86.9577637
			c61.2045898-0.001709,127.2449951-3.3984375,196.8552856-10.3054199
			c5.2155151,6.8227539,13.2858887,11.3894043,22.5355835,11.8234863
			c10.6397705,0.4990234,20.2294922-4.5957031,25.9764404-12.6748047
			c4.6270752,3.4101563,10.2738037,5.5432129,16.4464111,5.8327637c9.2526855,0.434082,17.7178955-3.359375,23.5499268-9.6672363
			l152.1905518-24.5375977c3.885498,2.1220703,8.2813721,3.4475098,13.0013428,3.6689453
			c13.5922852,0.6376953,25.4938965-7.8334961,29.8183594-20.0283203
			c10.1364746-3.6811523,22.8637695-9.0307617,32.5577393-14.3852539c3.2081299-1.7724609,7.1142578-1.2954102,10.0169678,0.942627
			c2.0063477,1.5473633,4.2006836,2.2324219,6.3005371,1.7595215
			C1344.7792969,2195.9709473,1347.4639893,2187.888916,1345.4865723,2179.1105957z M1014.5673828,2125.7885742
			c0.8917847,0.6633301,1.2232666,1.3312988,1.109314,2.2316895c-0.1398926,1.0876465-1.0360718,2.6533203-3.1081543,3.489502
			c-40.9954224,16.5664063-99.7400513,18.8498535-157.1159058,18.8498535c-68.4807129,0-122.90448-6.559082-157.3884888-18.9685059
			c-1.8414917-0.6633301-2.6663818-2.0463867-2.8248291-3.1210938c-0.1487427-1.0061035,0.2142334-1.7963867,1.1415405-2.4836426
			l43.8594971-32.5158691c2.9556274,0.9084473,5.9532471,1.765625,8.9672241,2.6018066
			c-17.7058716,13.0488281-39.8197632,27.4462891-28.5083008,33.5002441
			c6.8432617,3.6625977,34.4026489,8.4812012,63.3897095,10.9025879c5.9267578,0.567627,11.8562622,1.1066895,17.7950439,1.5568848
			c22.5222778,1.7058105,45.1431885,2.5627441,67.7299194,2.4890137c16.3850098-0.0532227,32.8297119-0.3691406,49.163208-1.765625
			c-7.0991821,0.074707-14.2059937-0.104248-21.2993774-0.3649902
			c-37.9412231-1.3945313-75.5991821-5.8293457-113.008728-12.0715332
			c-10.8292236-1.8071289-14.5587158-15.6086426-6.0786133-22.5817871c1.7321167-1.4243164,3.7229614-2.692627,5.8984375-3.7805176
			c9.8895874,1.7216797,20.0061035,3.0473633,30.2694702,4.0373535c-4.3950195,2.026123-6.9549561,4.3742676-6.9549561,6.8881836
			c0,7.5773926,22.8766479,13.7199707,51.0961304,13.7199707c28.2198486,0,51.0962524-6.1425781,51.0962524-13.7199707
			c0-2.7351074-3.0145264-5.2768555-8.1506958-7.416748c24.1881104-2.6489258,47.4247437-7.3544922,69.0488892-14.003418
			l3.1276855,2.3190918c-6.2207642,2.4926758-13.9874878,5.4108887-21.8347778,8.2038574
			c-18.1523438,6.4975586-36.6514282,12.2924805-36.6514282,12.2924805s19.3098755-1.4558105,38.6467896-3.6982422
			c9.6708374-1.1044922,19.3550415-2.40625,26.6602173-3.6005859c3.6741943-0.623291,6.84021-1.1679688,8.8654175-1.5681152
			L1014.5673828,2125.7885742z M1233.5482178,1319.5023193c18.6766357,3.2602539,38.0402832,11.4855957,51.0810547,25.6347656
			c13.3675537,14.5028076,19.0640869,34.8884277,20.050415,54.1856689
			c1.0229492,20.0150146-2.895752,39.9266357-9.7244873,58.6848145
			c-6.8369141,18.7813721-16.9212646,35.9155273-28.5928955,52.0565186
			c17.0708008-30.5123291,31.2062988-63.5979004,32.0617676-99.092041
			c0.4592285-19.0627441-2.8666992-39.0595703-13.5258789-55.2281494
			c-10.4378662-15.8330078-28.371582-25.4624023-46.1727295-30.7231445
			c-17.5897217-5.197876-36.1159668-5.9307861-54.2507324-3.8216553
			C1200.6225586,1317.4919434,1217.1728516,1316.6439209,1233.5482178,1319.5023193z M1099.6607666,1350.3273926
			c-0.40625,1.4250488-0.6251221,2.9090576-0.6251221,4.3916016c0,8.3028564,6.6326904,15.3927002,14.9162598,15.9532471
			c-5.4448242,2.6278076-12.1276855,0.9317627-15.6721191-3.9503174
			C1094.6584473,1361.7335205,1095.2574463,1354.6474609,1099.6607666,1350.3273926z M1026.425293,1459.8028564
			l72.0793457-59.7753906c3.5761719-3.0090332,1.9842529-12.2562256,1.975708-16.5904541
			c0.6737061,0.0987549,1.3581543,0.1618652,2.0487061,0.2017822l0.0928955,0.1208496
			c0.0452881-0.034668,0.0977783-0.0748291,0.144043-0.1102295c0.2508545,0.0111084,0.4984131,0.0335693,0.7520752,0.0335693
			c9.1289063,0,16.8676758-5.8758545,19.6916504-14.0447998c32.3218994-19.9699707,92.0639648-47.4266357,138.9587402-14.9621582
			c14.4190674,9.9815674,22.1693115,29.5574951,21.2646484,53.7072754
			c-1.0921631,29.1838379-20.2822266,133.5775146-221.3630371,251.5883789
			c-18.2359619,10.7032471-35.9140625,21.4971924-53.010498,31.9356689
			c-22.7764282,13.9064941-44.4853516,27.1479492-65.9685059,39.2811279
			c-0.7664795-4.0979004-1.4837646-8.2895508-2.0946045-12.6834717h8.1363525
			c7.6676636,0,13.8831177-6.2154541,13.8831177-13.8829346v-17.4512939c0-7.6674805-6.2154541-13.8830566-13.8831177-13.8830566
			h-5.8510132c14.6433716-8.7109375,27.0917969-18.1994629,36.585022-26.2531738
			c11.9526978-10.1397705,11.9526978-28.5236816,0-38.6638184c-9.0758667-7.6993408-20.8638306-16.7067871-34.677002-25.0961914
			c7.4754028-11.6074219,11.7265625-24.8306885,11.7265625-38.8747559c0-11.1071777-2.6693726-21.6977539-7.4749146-31.3873291
			c28.5709839-14.1853027,56.0631714-24.2119141,69.3031006-35.2260742
			C1023.9151001,1473.4848633,1026.4334717,1466.9703369,1026.425293,1459.8028564z M825.3041382,1281.079834
			c0.3199463,8.8864746,0.4924316,17.7783203,0.7115479,26.6680908c0.8773804,35.6054688,1.0127563,71.253418,0.3795776,106.8642578
			c-0.0814819,4.5819092-0.1656494,9.1655273-0.3051758,13.7459717c-0.1339111,4.4050293,0.8655396,8.3775635,2.4256592,12.4854736
			c2.7095337,7.1348877,6.3917847,14.4119873,11.5904541,20.0731201c-5.2200928-4.4055176-9.2658691-10.237793-12.4880981-16.21521
			c-1.8587036-3.4473877-3.6375122-7.1506348-4.5788574-10.9694824c-0.6861572-2.7828369-0.5988159-5.7233887-0.7313843-8.5655518
			c-0.8383179-17.9627686-1.3675537-35.9371338-1.8043213-53.9136963
			c-0.447998-18.4382324-0.5652466-36.8847656-0.6813965-55.3273926
			c-0.1149292-18.2770996-0.4945068-36.7521973,0.5371094-55.0056152
			c0.5279541-9.3457031,1.8361816-18.8088379,5.4900513-27.4946289c3.0718994-7.3023682,7.9815063-13.0106201,14.256897-17.7304688
			c-4.8780518,4.6711426-8.7653809,9.9108887-11.217041,16.253418c-2.8429565,7.3549805-3.8452148,15.3773193-4.1228638,23.2158203
			C824.4608154,1263.7963867,824.9939575,1272.4538574,825.3041382,1281.079834z M845.4331055,1487.8690186
			c7.8167114,0,14.1535034,6.336792,14.1535034,14.1535645c0,7.8166504-6.336792,14.1534424-14.1535034,14.1534424
			c-7.8164063,0-14.1531982-6.336792-14.1531982-14.1534424
			C831.2799072,1494.2058105,837.6166992,1487.8690186,845.4331055,1487.8690186z M901.6384277,1615.2459717
			c32.946228-3.1466064,38.8389282-18.0638428,38.8389282-18.0638428
			c11.1098633,6.3497314,32.0679321,20.4958496,27.4675903,27.9475098
			c-10.9395752,17.7196045-95.1831055,7.5079346-106.3400269,1.9293213
			C850.4480591,1621.4807129,879.3656616,1617.3729248,901.6384277,1615.2459717z M859.8066406,1218.3361816
			c13.6704102,5.401123,23.4951172,20.0881348,23.4951172,37.4083252v167.7636719
			c0,17.3203125-9.824707,32.0073242-23.4953613,37.4085693c5.0747681-6.8798828,8.1355591-15.7299805,8.1355591-25.3947754
			v-191.7913818C867.9419556,1234.06604,864.8811646,1225.2160645,859.8066406,1218.3361816z M904.4668579,1682.5483398
			c21.1149292,0,38.2323608,2.9215088,38.2323608,6.5252686c0,3.6040039-17.1174316,6.5251465-38.2323608,6.5251465
			c-21.1156006,0-38.2327271-2.9211426-38.2327271-6.5251465
			C866.2341309,1685.4698486,883.3512573,1682.5483398,904.4668579,1682.5483398z M989.5463257,1431.2111816
			c-4.0283813,7.1160889,0.493103,15.6013184,5.1626587,21.2796631
			c5.5546265,6.7546387,12.7385254,10.0447998,21.0278931,12.1384277
			c-9.171875,3.8912354-19.6916504-0.2912598-25.8403931-7.5802002
			C984.6382446,1450.8161621,979.3502197,1435.7200928,989.5463257,1431.2111816z M955.4311523,1465.1158447
			c6.1937256-8.5882568,13.0955811-17.3349609,21.3145752-24.1181641c-0.0490112,0.3443604-0.0874634,0.6920166-0.112915,1.0465088
			c-3.854126,9.6085205-9.8250122,18.6212158-15.8391113,26.9449463
			c-6.3254395,8.7548828-13.3725586,17.680542-21.7976685,24.5322266
			C942.829834,1483.3670654,949.118103,1473.869751,955.4311523,1465.1158447z M920.7717896,1499.7995605
			c15.7860107,15.94104,21.2832642,36.0933838,12.2780762,45.0107422
			c-9.0048828,8.9174805-29.1022339,3.2237549-44.8884888-12.7176514
			c-15.7860718-15.9411621-21.2833252-36.0930176-12.2781372-45.0108643
			C884.8881226,1478.1643066,904.9854736,1483.8583984,920.7717896,1499.7995605z M881.647522,1180.3084717
			c-19.8970337,0-36.0269165-4.4439697-36.0269165-9.9256592c0-5.4818115,16.1298828-9.9257813,36.0269165-9.9257813
			c19.8969727,0,36.0266113,4.4439697,36.0266113,9.9257813
			C917.6741333,1175.864502,901.5444946,1180.3084717,881.647522,1180.3084717z M870.161377,1030.2767334
			c5.4014282-4.361084,14.1746826-2.4541016,19.5953369,4.2592773c5.4207153,6.7139893,5.4361572,15.6917725,0.0346069,20.0532227
			c-5.4016724,4.3613281-14.1749268,2.4543457-19.5955811-4.2593994
			C864.7750854,1043.6162109,864.7597046,1034.6384277,870.161377,1030.2767334z M790.1097412,968.1914063
			c7.4483643,9.0971069,13.454895,19.083313,21.935791,27.3537598c4.6746826,4.5586548,9.8947754,8.5652466,15.4371338,12.0145874
			c4.7949219,2.9837036,9.925293,5.2824707,14.8292847,8.0546875
			C815.8934937,1014.5899658,795.4904785,993.1993408,790.1097412,968.1914063z M815.2020264,1055.2836914
			c-3.2618408-13.0910645,6.0058594-26.3395996,18.654541-29.3758545c-3.8280029,3.5480957-7.4624634,6.857666-9.7905884,11.6553955
			c-2.5458374,5.2463379-3.6340332,11.3195801-2.2351074,17.0393066c1.1055908,4.5197754,3.3724976,8.619873,6.5178833,12.0604248
			c3.4823608,3.8085938,7.7114258,6.4802246,11.7574463,9.6088867
			C828.2299805,1074.5516357,818.170105,1067.1959229,815.2020264,1055.2836914z M841.1030884,1102.3095703l-6.5891724-0.6086426
			l4.8570557-16.6060791L841.1030884,1102.3095703z M761.3912354,1149.80896
			c-10.8630981-0.1010742-22.0482178,0.552002-32.7981567-1.2536621
			c-10.9810791-1.8442383-21.3342896-6.4213867-29.5130615-14.0683594
			c-7.4354858-6.9521484-12.1950073-15.7486572-17.2379761-24.4500732
			c6.3139648,5.9567871,11.3016968,13.1181641,17.9844971,18.7399902
			c7.6293335,6.4182129,16.7236328,10.6442871,26.4715576,12.6638184
			c10.2943726,2.1325684,20.9280396,1.6949463,31.3838501,1.8441162c11.2289429,0.15979,22.458313,0.2869873,33.687439,0.4190674
			c44.6901855,0.5255127,89.3895264,1.0357666,134.0684204,2.2171631
			c18.4278564,0.4870605,36.8563232,0.9766846,55.2799683,1.6131592
			c-38.2564697,1.1313477-76.5275879,1.7421875-114.7982178,2.0964355
			c-23.4304199,0.217041-46.8606567,0.3167725-70.2921143,0.3238525
			C784.2150879,1149.9580078,772.8032837,1149.9145508,761.3912354,1149.80896z M791.6281128,1193.8325195
			c-5.621521-4.1135254-11.0770874-10.8270264-8.9677734-18.2572021
			c1.8180542-6.4031982,8.1236572-10.1983643,14.0665894-12.1774902c-3.6075439,3.4110107-8.1621094,7.260376-9.0941162,12.401123
			c-1.2419434,6.8485107,6.1184692,11.8043213,11.1544189,14.8088379
			c10.2015991,6.0865479,21.6505737,9.2312012,32.4926758,13.8724365
			C817.8505249,1205.2192383,802.5871582,1201.8520508,791.6281128,1193.8325195z M735.0586548,1442.2382813
			c6.4797974,7.8359375,39.2435303,47.7906494,39.2435303,47.7906494l-3.1246338,3.4924316
			c0,0-27.5970459-21.6896973-45.9526978-37.8651123C706.8689575,1439.480835,723.2030029,1427.901001,735.0586548,1442.2382813z
			 M729.5675049,1490.8204346c-11.4547119-5.7991943-23.1886597-12.2279053-33.1091309-20.4594727
			c12.506958,3.1004639,24.6443481,8.7658691,36.0956421,14.5567627
			c11.4562378,5.793457,23.2008057,12.2126465,33.1091309,20.4593506
			C753.151123,1502.2958984,741.0151978,1496.6157227,729.5675049,1490.8204346z M767.0183105,1528.5079346
			c3.9636841-18.2924805,18.0244141-33.4934082,34.1801147-42.154541c7.7501831-4.1549072,16.013855-6.9041748,24.5705566-8.8237305
			c-5.9901123,3.2507324-12.1181641,6.1851807-17.8300781,9.9267578
			c-7.3077393,4.7868652-13.9612427,10.0655518-19.9692993,16.4215088
			c-11.8592529,12.5458984-17.9921265,29.7017822-17.987854,46.8485107
			c0.0020142,7.7091064,1.1374512,15.1347656,2.1333618,22.7523193c-3.0709229-7.0917969-5.19104-14.1630859-6.3292236-21.80896
			C764.6253052,1543.8745117,765.3589478,1536.1669922,767.0183105,1528.5079346z M744.7568359,1643.4661865
			c-6.5414429-5.9936523-11.5864258-14.1743164-7.3602295-23.02771
			c3.8651733-8.0969238,12.3774414-13.5457764,19.8449707-17.9425049
			c7.9835205-4.7004395,16.4840698-8.4755859,25.1481323-11.7246094
			c-5.3009033,3.8737793-10.7774048,7.5010986-16.1411743,11.2857666
			c-7.0222168,4.9544678-14.6027222,9.9919434-20.0953979,16.6959229
			c-2.6155396,3.1925049-4.7341919,7.0489502-3.3931885,11.2507324c1.2366943,3.875,4.3419189,6.9648438,7.2043457,9.710083
			c6.3223267,6.0623779,13.7191162,10.9974365,20.8678589,16.0137939
			c6.2018433,4.3519287,12.4779663,8.6044922,18.5424194,13.1486816
			c-6.9353027-2.7999268-13.6924438-6.0377197-20.3258057-9.4858398
			C760.5241699,1654.9591064,751.8757324,1649.9891357,744.7568359,1643.4661865z M768.9378662,1709.2619629
			c-0.9155884-0.6444092-2.050415-1.2218018-2.9723511-2.1887207c-0.4804688-0.4692383-0.973938-0.9511719-1.4783936-1.4436035
			c-0.4540405-0.5478516-0.8655396-1.1563721-1.3109741-1.762085c-0.4790649-0.5848389-0.803894-1.2905273-1.1455078-2.0024414
			c-0.3435059-0.7114258-0.7248535-1.4202881-0.8983765-2.2313232c-0.1940308-0.7966309-0.5020142-1.5792236-0.5725098-2.4190674
			c-0.0722656-0.8400879-0.1432495-1.6873779-0.1835938-2.5344238l0.3006592-2.5411377
			c0.128479-0.8377686,0.4771729-1.6265869,0.7192383-2.4230957c0.2121582-0.815918,0.6951904-1.4984131,1.0787354-2.2081299
			l0.6043091-1.0358887c0.2322388-0.3165283,0.5004883-0.6021729,0.7468872-0.8973389
			c0.5183716-0.565918,0.9609375-1.1855469,1.5238647-1.642334c0.567749-0.449707,1.1083374-0.8955078,1.6560669-1.2935791
			c1.0765381-0.817749,2.2705078-1.2686768,3.272522-1.7862549c1.0767212-0.4224854,2.1281738-0.6561279,2.9967651-0.8874512
			c0.8706055-0.2825928,1.6199341-0.1989746,2.2487793-0.2816162c1.2520752-0.0800781,1.994812-0.0544434,1.994812-0.0544434
			s-0.5388184,0.510376-1.5297241,1.2779541c-0.4658813,0.4003906-1.1651611,0.8070068-1.7366333,1.380127
			c-0.5740356,0.5323486-1.2218018,1.1328125-1.9284668,1.7877197c-0.6102905,0.7497559-1.3965454,1.3945313-1.9874268,2.2421875
			c-0.2923584,0.427002-0.6147461,0.8289795-0.928772,1.2456055c-0.3011475,0.425415-0.5079956,0.9082031-0.7781372,1.3527832
			c-0.2857666,0.4401855-0.5004883,0.9110107-0.6593628,1.4063721c-0.1591797,0.4923096-0.442627,0.9412842-0.5068359,1.4597168
			c-0.0949707,0.5064697-0.2644653,0.9949951-0.3312378,1.5046387c-0.0348511,0.5153809-0.0820923,1.0275879-0.1424561,1.5401611
			l0.078125,1.5616455c0.0282593,0.5203857,0.1896973,1.0372314,0.2584229,1.5604248
			c0.0492554,0.5299072,0.272583,1.0272217,0.4193115,1.5423584c0.1547241,0.513916,0.2976074,1.0310059,0.5518188,1.5107422
			c0.2210083,0.5001221,0.4382935,0.9916992,0.6507568,1.4727783c0.2761841,0.4663086,0.5462036,0.9222412,0.80896,1.3664551
			c0.4568481,0.9603271,1.1793823,1.6887207,1.6889648,2.5195313c0.5567627,0.7930908,1.1873779,1.440918,1.6893921,2.104126
			c0.5083008,0.659668,1.0371094,1.1534424,1.4491577,1.6096191c0.8372803,0.8951416,1.3135376,1.4946289,1.3135376,1.4946289
			s-0.7178345-0.0727539-1.9701538-0.3535156c-0.6157227-0.1586914-1.4259033-0.2695313-2.2234497-0.661377
			C770.8912964,1710.1923828,769.8898315,1709.8624268,768.9378662,1709.2619629z M641.0556641,1916.8651123l0.519165-0.7322998
			c0.2382202-0.3360596,0.4815063-0.6807861,0.7874756-1.0942383
			c12.2554321-17.0275879,29.4552002-29.4456787,47.6643066-42.5938721
			c40.4536743-29.2091064,85.5244141-61.7572021,97.6635132-153.9396973h13.5254517
			c-0.5578613,4.1843262-1.2174683,8.3553467-2.0509644,12.5168457
			c-3.9189453,19.5628662-9.7956543,38.8173828-17.9036865,57.0627441
			c-3.8666382,8.7016602-8.2598267,17.4346924-13.6514282,25.3017578
			c-4.3575439,6.3585205-9.1130371,12.0786133-14.4672852,17.6107178
			c7.8372192-5.373291,15.0387573-11.2574463,21.4775391-18.2841797
			c24.4567261-26.6896973,42.15979-59.8092041,53.4280396-94.2078857h95.1680298
			c2.1414185,16.2606201,5.3120117,30.6564941,9.2966919,43.5144043c-0.7455444,0.5266113-1.5259399,1.00354-2.2538452,1.5545654
			c-4.3198853,3.2689209-8.3848877,6.8900146-12.1715088,10.7628174c-3.6723022,3.7562256-7.1060181,7.769043-10.1702881,12.0380859
			c-1.4266968,1.9871826-2.7570801,4.0427246-3.9752808,6.1644287c-0.7453613,1.2978516-1.3130493,3.4333496-2.3008423,4.5157471
			c0.8867798-1.1650391,3.1638184-2.0799561,4.3798218-2.9630127c2.024353-1.4705811,4.0023193-3.0046387,5.9299927-4.6000977
			c4.0167236-3.3242188,7.8632202-6.8630371,11.5510254-10.5482178c3.757019-3.755127,7.3543701-7.6889648,10.6859741-11.8289795
			c19.0524292,56.4306641,54.3370972,81.9689941,86.69104,105.3299561
			c18.210144,13.1481934,35.4099731,25.5662842,47.7333374,42.6842041c0.3078613,0.420166,0.6052246,0.8424072,0.9046631,1.2646484
			l0.21521,0.3035889c10.6668701,14.9920654,16.0736084,30.7530518,16.0736084,46.8433838
			c0,33.4134521-23.3066406,65.2067871-65.6246338,89.5214844c-43.8580322,25.197998-102.359375,39.0761719-164.7271118,39.0761719
			c-62.3676147,0-120.8699341-13.8781738-164.7269897-39.0761719
			c-42.3191528-24.3146973-65.6256104-56.1080322-65.6256104-89.5214844
			C625.1010742,1947.5085449,630.4689331,1931.8054199,641.0556641,1916.8651123z M613.9979858,2232.083252
			c-35.4109497-5.0100098-70.5866699-12.8117676-104.3408203-24.7265625
			c-16.8744507-5.9567871-33.3943787-13.1530762-48.9838867-21.9592285
			c-14.3912048-8.1289063-28.1985779-17.8798828-39.3410034-30.1811523
			c-11.6003113-12.8068848-18.7902222-28.482666-20.6570129-45.6931152
			c-1.8933105-17.454834,1.5287476-35.0161133,8.186615-51.1555176
			c12.1237183-29.3900146,35.3078613-53.7698975,62.3460388-70.0767822
			c2.0304565-1.2246094,4.0930176-2.3962402,6.1434631-3.5866699
			c-24.4632568,16.5718994-45.8442688,37.3635254-59.0882263,64.1287842
			c-14.6228943,29.5524902-18.5309753,66.847168,1.8743591,94.7788086
			c9.5172119,13.0268555,22.7232666,23.1396484,36.3024902,31.6132813
			c14.5218506,9.0617676,30.0474243,16.3962402,45.9549866,22.6706543
			c32.8094788,12.940918,67.1287537,21.6726074,101.7378845,28.2253418
			c31.5695801,5.9775391,63.4117432,9.7705078,95.3882446,12.7185059c2.2770996,0.2099609,4.5566406,0.3925781,6.8352051,0.5837402
			C675.4500122,2238.6826172,644.6168823,2236.4152832,613.9979858,2232.083252z M1044.0559082,2239.7087402
			c-4.4683838,3.3476563-11.7137451,1.2255859-16.1829834-4.7392578
			c-4.4688721-5.9655762-4.4694214-13.5148926-0.0009766-16.8625488c4.4682617-3.3479004,11.713501-1.2260742,16.1827393,4.7392578
			C1048.5236816,2228.8112793,1048.5240479,2236.3608398,1044.0559082,2239.7087402z M1085.5966797,2231.6208496
			c-4.4681396,3.3476563-11.7133789,1.2258301-16.1826172-4.7390137c-4.4689941-5.965332-4.4694824-13.5148926-0.0009766-16.8625488
			c4.4683838-3.3479004,11.713623-1.2258301,16.1826172,4.7392578S1090.0651855,2228.2731934,1085.5966797,2231.6208496z
			 M1189.5134277,2205.8498535c-20.6514893,3.9082031-41.5782471,6.861084-62.503418,8.8227539
			c-7.1669922,0.671875-14.3551025,1.2734375-21.5534668,1.4833984
			c15.5124512-4.5961914,31.4682617-7.6977539,47.3491211-10.6989746
			c20.6611328-3.9050293,41.5906982-6.8928223,62.5272217-8.8439941c7.1585693-0.6669922,14.3383789-1.2666016,21.5280762-1.4707031
			C1221.3514404,2199.75,1205.3931885,2202.8452148,1189.5134277,2205.8498535z M1277.4949951,2201.9648438
			c-4.4685059,3.3476563-11.7137451,1.2255859-16.1829834-4.7392578c-4.4689941-5.965332-4.4694824-13.5148926-0.0009766-16.8625488
			s11.713623-1.2255859,16.1826172,4.739502C1281.9627686,2191.0673828,1281.9631348,2198.6171875,1277.4949951,2201.9648438z
			 M1307.1020508,2185.7573242c-5.2797852,0.2883301-11.2592773-0.0959473-16.1062012-2.4313965
			c4.6043701-2.8288574,10.4331055-3.8745117,15.744873-4.1738281c5.2794189-0.2976074,11.2645264,0.0812988,16.1064453,2.4313965
			C1318.2487793,2184.4260254,1312.4147949,2185.4672852,1307.1020508,2185.7573242z M1336.3631592,2182.449707
			c-2.0338135,0.4956055-4.2849121-1.5756836-5.0283203-4.6262207c-0.7432861-3.0507813,0.3027344-5.9257813,2.3366699-6.4211426
			c2.0336914-0.4956055,4.2850342,1.5759277,5.0283203,4.6264648
			C1339.4431152,2179.0795898,1338.3972168,2181.9543457,1336.3631592,2182.449707z"/>
	</g>
	<g>
		<path style="fill:#1C1C1A;" d="M723.03125,871.0267944c-1.1123047-1.0942383-1.8359375-2.4135742-2.171875-3.9580078
			c-0.3359375-1.5454102-0.2001953-3.074707,0.4082031-4.5888672c0.8056641-2.0039063,2.2080078-3.4321289,4.2060547-4.2841797
			c1.9980469-0.8525391,3.9990234-0.8754883,6.0029297-0.0698242c0.7802734,0.3129883,1.4873047,0.7402344,2.1240234,1.2802734
			l-9.1982422,22.8803711c-0.1689453,0.0351563-0.3408203,0.0439453-0.5146484,0.0258789
			c-0.6992188,0.0029297-1.3613281-0.1206055-1.984375-0.3710938c-1.3583984-0.5458984-2.3183594-1.4882813-2.8798828-2.8261719
			S718.4541016,876.4286499,719,875.0707397c0.3671875-0.9130859,0.9414063-1.6655273,1.7216797-2.2563477
			c0.78125-0.5917969,1.6533203-0.9267578,2.6162109-1.0048828c0.1914063-0.0268555,0.3789063-0.0419922,0.5615234-0.0458984
			C723.6015625,871.539978,723.3115234,871.2943726,723.03125,871.0267944z M723.3476563,881.6298218l3.3964844-8.4506836
			l-1.1347656-0.456543c-1.0244141-0.4121094-2.0742188-0.3427734-3.1494141,0.2084961
			c-1.0751953,0.550293-1.8515625,1.4213867-2.3310547,2.612793c-0.4785156,1.190918-0.5205078,2.3574219-0.1259766,3.4995117
			c0.3945313,1.1416016,1.1044922,1.918457,2.1279297,2.3300781
			C722.5322266,881.5346069,722.9375,881.6200562,723.3476563,881.6298218z M731.2490234,858.6932983
			c-1.6923828-0.6801758-3.4042969-0.6054688-5.1347656,0.2250977s-2.9697266,2.175293-3.7177734,4.0351563
			c-0.7470703,1.8588867-0.7832031,3.6870117-0.109375,5.4848633c0.6748047,1.796875,1.8583984,3.0361328,3.5498047,3.7163086
			l1.1357422,0.456543l5.3583984-13.3276367C732.0107422,859.0512085,731.6494141,858.8544312,731.2490234,858.6932983z"/>
		<path style="fill:#1C1C1A;" d="M721.609375,855.1088257l-5.0615234-2.3505859l-0.1992188-0.7670898l6.6279297,3.078125
			l-10.4775391,22.5615234l-6.6279297-3.078125l0.7148438-0.3427734l5.0605469,2.3500977l3.609375-7.7705078l-4.4082031-2.0473633
			l0.6494141-0.3730469l4.015625,1.8652344L721.609375,855.1088257z"/>
		<path style="fill:#1C1C1A;" d="M709.0078125,848.8344116l-0.1582031-0.7768555l6.4570313,3.4233398l-11.6533203,21.9780273
			l-1.0810547-0.5737305l11.3662109-21.4370117L709.0078125,848.8344116z"/>
		<path style="fill:#1C1C1A;" d="M698.578125,859.5424194l0.6464844-17.4072266l1.1894531,0.7470703l-0.546875,15.2167969
			l7.0087891-11.1572266l1.0371094,0.6513672l-13.2333984,21.0644531l-1.0361328-0.6513672l4.9023438-7.8037109
			l-10.9990234,3.9736328l-0.640625-0.4018555L698.578125,859.5424194z"/>
		<path style="fill:#1C1C1A;" d="M676.8422852,856.749939l10.7358398-23.8583984l0.9482422,0.7739258l-3.9707031,8.7939453
			l5.6894531,4.644043l7.8203125-5.652832l0.5019531,0.409668l-20.3168945,14.6445313L676.8422852,856.749939z
			 M689.71875,847.4638062l-5.4101563-4.4160156l-5.5581055,12.3320313L689.71875,847.4638062z"/>
		<path style="fill:#1C1C1A;" d="M677.3129883,821.0175171l0.2094727-0.7646484l4.2138672,5.9707031l-20.324707,14.3432617
			l-0.7055664-1l19.8242188-13.9902344L677.3129883,821.0175171z"/>
		<path style="fill:#1C1C1A;" d="M654.3398438,827.3602905c-1.8129883-1.3999023-3.1557617-3.1723633-4.0288086-5.3178711
			c-0.8725586-2.1455078-1.1459961-4.3466797-0.8203125-6.6035156s1.1831055-4.2900391,2.5717773-6.0986328
			c1.3891602-1.8085938,3.15625-3.1494141,5.3012695-4.0219727c2.1455078-0.8725586,4.3466797-1.1459961,6.6035156-0.8203125
			c2.2568359,0.3251953,4.2900391,1.1831055,6.0981445,2.5717773c1.809082,1.3886719,3.1494141,3.1557617,4.0219727,5.3012695
			c0.8730469,2.1455078,1.1484375,4.3520508,0.8276367,6.6201172c-0.3212891,2.2680664-1.1782227,4.3012695-2.5717773,6.0981445
			c-1.3930664,1.7978516-3.1625977,3.1328125-5.3081055,4.0053711s-4.3442383,1.1518555-6.5966797,0.8374023
			C658.1865234,829.6176147,656.152832,828.7601929,654.3398438,827.3602905z M671.6757813,809.7377319
			c-1.2197266-1.6933594-2.7939453-2.9506836-4.7216797-3.7734375c-1.9277344-0.8217773-3.9291992-1.0766602-6.0043945-0.7636719
			c-2.074707,0.3129883-3.9521484,1.128418-5.6313477,2.4462891s-2.9506836,3.0009766-3.8149414,5.0493164
			c-0.8632813,2.0483398-1.1811523,4.1337891-0.9526367,6.2558594c0.2285156,2.1225586,0.9550781,4.0361328,2.1791992,5.7402344
			c1.2246094,1.7041016,2.8007813,2.9672852,4.7285156,3.7895508c1.9277344,0.8227539,3.9272461,1.0712891,5.9975586,0.7470703
			c2.0708008-0.3237305,3.9453125-1.1445313,5.6245117-2.4624023s2.9536133-2.9956055,3.8212891-5.0327148
			c0.8686523-2.0375977,1.1865234-4.1225586,0.953125-6.2563477
			C673.6220703,813.3441772,672.8955078,811.4310913,671.6757813,809.7377319z"/>
		<path style="fill:#1C1C1A;" d="M645.9296875,790.3729858l0.0288086-0.5751953l20.1352539,0.9975586
			c1.4145508,0.0703125,2.5942383,0.6333008,3.5385742,1.6894531c0.9448242,1.0561523,1.3828125,2.2797852,1.3139648,3.6694336
			c-0.0454102,0.9111328-0.3154297,1.7504883-0.8095703,2.519043c-0.4946289,0.7685547-1.1494141,1.3666992-1.9633789,1.7949219
			c-0.8144531,0.4282227-1.6889648,0.6191406-2.6235352,0.5732422l-20.0996094-0.996582l0.0605469-1.222168l20.0996094,0.9960938
			c1.246582,0.0615234,2.3339844-0.2988281,3.2617188-1.0820313c0.9277344-0.7827148,1.4199219-1.75,1.4770508-2.9003906
			c0.0581055-1.1743164-0.3295898-2.190918-1.1645508-3.0493164c-0.8339844-0.8579102-1.8740234-1.3300781-3.1196289-1.4160156
			L645.9296875,790.3729858z"/>
		<path style="fill:#1C1C1A;" d="M651.324707,773.1049194l0.2172852-0.5332031l23.0341797,9.394043l-0.1494141,0.3666992
			l-0.4682617,0.003418l-22.7929688,0.5014648l19.7670898,8.0620117l-0.230957,0.5668945l-23.0341797-9.3945313l0.1494141-0.3666992
			l0.4819336-0.0366211l22.7929688-0.5014648L651.324707,773.1049194z"/>
		<path style="fill:#1C1C1A;" d="M679.3569336,765.6830444l-0.8149414-0.046875l4.1289063-4.1699219l3.8369141,3.7998047
			l-0.0478516,0.5600586c-0.1308594,1.0532227-0.3798828,2.0556641-0.7490234,3.0078125
			c-0.6367188,1.6665039-1.5966797,3.1474609-2.8798828,4.4433594c-1.6210938,1.637207-3.5375977,2.7539063-5.7495117,3.3505859
			c-2.2119141,0.5961914-4.4179688,0.6074219-6.6181641,0.0322266c-2.2006836-0.5742188-4.1279297-1.6806641-5.7822266-3.3188477
			c-1.2280273-1.2158203-2.168457-2.6196289-2.8212891-4.2119141c-0.652832-1.5917969-0.9785156-3.1982422-0.9780273-4.8188477
			s0.3149414-3.234375,0.9433594-4.8413086s1.5507813-3.0244141,2.7666016-4.2524414
			c2.2119141-2.2338867,4.8701172-3.4858398,7.9746094-3.7558594l0.1079102,1.2216797
			c-3.1386719,0.2363281-5.7885742,1.4711914-7.949707,3.7045898c-2.1616211,2.234375-3.2426758,4.8701172-3.2446289,7.9077148
			c0.0102539,2.1044922,0.5712891,4.0449219,1.6831055,5.8208008c1.1118164,1.7768555,2.6035156,3.1782227,4.4755859,4.2041016
			c1.871582,1.0258789,3.9189453,1.5419922,6.1425781,1.5478516c2.6982422-0.0302734,5.1171875-0.8100586,7.2563477-2.3398438
			c2.1391602-1.5288086,3.5766602-3.4663086,4.3110352-5.8125c0.1679688-0.4418945,0.3095703-0.9428711,0.4257813-1.5039063
			l-3.5043945-3.4702148L679.3569336,765.6830444z"/>
		<path style="fill:#1C1C1A;" d="M689.8447266,766.3773804l4.6376953-3.1030273l0.7587891,0.2280273l-6.0732422,4.0644531
			l-13.8349609-20.6743164l6.0737305-4.0639648l-0.0786133,0.7885742l-4.637207,3.1035156l4.7646484,7.1206055l4.0395508-2.7026367
			l-0.0185547,0.7485352l-3.6801758,2.4628906L689.8447266,766.3773804z"/>
		<path style="fill:#1C1C1A;" d="M701.8886719,743.0282593c1.5556641-0.1176758,3.0253906,0.2050781,4.4101563,0.9682617
			c1.3847656,0.7641602,2.4462891,1.8730469,3.1865234,3.3276367c0.9785156,1.925293,1.1318359,3.9208984,0.4589844,5.9858398
			c-0.6738281,2.0654297-1.9726563,3.5874023-3.8984375,4.5664063c-0.7490234,0.3808594-1.5351563,0.6328125-2.3613281,0.7568359
			l-11.1767578-21.9819336c0.0849609-0.1503906,0.1914063-0.2851563,0.3193359-0.4047852
			c0.4580078-0.5288086,0.9863281-0.9453125,1.5859375-1.25c1.3046875-0.6635742,2.6455078-0.7661133,4.0224609-0.309082
			c1.3769531,0.4580078,2.3974609,1.3393555,3.0605469,2.644043c0.4462891,0.8774414,0.6347656,1.8041992,0.5664063,2.78125
			c-0.0683594,0.9775391-0.3896484,1.8544922-0.9638672,2.6308594c-0.1064453,0.1621094-0.21875,0.3129883-0.3359375,0.453125
			C701.1279297,743.1190796,701.5029297,743.0629272,701.8886719,743.0282593z M693.6972656,736.2890015l4.1279297,8.1191406
			l1.0908203-0.5551758c0.9833984-0.5,1.6230469-1.3359375,1.9150391-2.5083008
			c0.2929688-1.171875,0.1484375-2.3300781-0.4335938-3.4746094c-0.5820313-1.144043-1.4326172-1.9433594-2.5517578-2.3979492
			c-1.1201172-0.4536133-2.171875-0.4306641-3.1552734,0.0698242
			C694.3046875,735.7377319,693.9736328,735.9867554,693.6972656,736.2890015z M705.7685547,757.3309937
			c1.6259766-0.8266602,2.6962891-2.1645508,3.2099609-4.0146484c0.5126953-1.8491211,0.3154297-3.6669922-0.5927734-5.4536133
			c-0.9082031-1.7861328-2.2607422-3.0166016-4.0576172-3.6918945c-1.796875-0.6748047-3.5087891-0.5986328-5.1347656,0.2280273
			l-1.0908203,0.5546875l6.5097656,12.8037109C704.9980469,757.6693726,705.3837891,757.5267944,705.7685547,757.3309937z"/>
		<path style="fill:#1C1C1A;" d="M714.8847656,752.359314l5.0507813-2.3730469l0.7158203,0.3393555l-6.6142578,3.1079102
			l-10.578125-22.5146484l6.6142578-3.1079102l-0.1962891,0.7685547l-5.0498047,2.3725586l3.6435547,7.7548828l4.3984375-2.0668945
			l-0.1308594,0.737793l-4.0078125,1.8828125L714.8847656,752.359314z"/>
		<path style="fill:#1C1C1A;" d="M727.8681641,746.3866577l0.7109375,0.3500977l-6.6582031,3.0112305l-10.2509766-22.6655273
			l1.1152344-0.5043945l9.9990234,22.1079102L727.8681641,746.3866577z"/>
		<path style="fill:#1C1C1A;" d="M725.1582031,731.7489624l14.0996094,10.2290039l-1.2822266,0.5717773l-12.3359375-8.9262695
			l5.3652344,12.0341797l-1.1181641,0.4985352l-10.1298828-22.7202148L720.875,722.937439l3.7529297,8.4174805l2.8232422-11.3496094
			l0.6904297-0.3076172L725.1582031,731.7489624z"/>
		<path style="fill:#1C1C1A;" d="M736.7519531,715.3705444l16.6787109,20.1567383l-1.1132813,0.5097656l-6.1416016-7.4423828
			l-6.6767578,3.059082L741.125,741.164978l-0.5898438,0.2700195l-4.1845703-24.6928711L736.7519531,715.3705444z
			 M739.4082031,731.0223999l6.3496094-2.9086914l-8.6181641-10.4262695L739.4082031,731.0223999z"/>
	</g>
	<g>
		<path style="fill:#1C1C1A;" d="M878.8720703,876.2494507c-0.5292969-1.4677734-0.6113281-2.9702148-0.2460938-4.5083008
			c0.3662109-1.5380859,1.1513672-2.8583984,2.3544922-3.9599609c1.59375-1.4580078,3.4765625-2.1386719,5.6455078-2.0424805
			c2.1708984,0.0966797,3.984375,0.9414063,5.4423828,2.5351563c0.5673828,0.6201172,1.0205078,1.3110352,1.3603516,2.0732422
			l-18.1933594,16.6464844c-0.1679688-0.0415039-0.3261719-0.1079102-0.4755859-0.1992188
			c-0.6318359-0.300293-1.1748047-0.6977539-1.6289063-1.1938477c-0.9873047-1.0795898-1.4453125-2.3447266-1.3730469-3.7939453
			c0.0732422-1.4492188,0.6503906-2.6679688,1.7294922-3.6557617c0.7265625-0.6645508,1.5693359-1.0942383,2.5292969-1.2895508
			s1.890625-0.1196289,2.7929688,0.2260742c0.1845703,0.059082,0.359375,0.1269531,0.5263672,0.2016602
			C879.1630859,876.9584351,879.0087891,876.6122437,878.8720703,876.2494507z M874.5683594,885.9447632l6.7197266-6.1484375
			l-0.8261719-0.902832c-0.7451172-0.8144531-1.7216797-1.206543-2.9287109-1.1748047
			c-1.2080078,0.03125-2.2851563,0.4804688-3.2324219,1.347168c-0.9472656,0.8662109-1.4902344,1.8999023-1.6289063,3.1000977
			c-0.1376953,1.199707,0.1660156,2.2075195,0.9111328,3.0214844
			C873.8740234,885.5062866,874.203125,885.7592163,874.5683594,885.9447632z M891.6171875,868.6869507
			c-1.2314453-1.3457031-2.8066406-2.019043-4.7265625-2.019043c-1.9189453-0.0004883-3.6181641,0.6757813-5.0966797,2.0288086
			c-1.4785156,1.3525391-2.3027344,2.9848633-2.4726563,4.8969727s0.3613281,3.5410156,1.5917969,4.8867188l0.8261719,0.902832
			l10.5976563-9.6962891C892.1494141,869.3392944,891.9091797,869.0057983,891.6171875,868.6869507z"/>
		<path style="fill:#1C1C1A;" d="M887.3154297,862.8641968l-0.9414063-5.5l0.5185547-0.6000977l1.2333984,7.2036133
			l-24.5195313,4.1977539l-1.2333984-7.203125l0.6884766,0.3930664l0.9414063,5.5l8.4453125-1.4458008l-0.8203125-4.7900391
			l0.6757813,0.3222656l0.7480469,4.3647461L887.3154297,862.8641968z"/>
		<path style="fill:#1C1C1A;" d="M887.8681641,850.9120483l0.7109375-0.3505859l-1.6748047,7.1137695l-24.2138672-5.7026367
			l0.28125-1.1914063l23.6171875,5.5620117L887.8681641,850.9120483z"/>
		<path style="fill:#1C1C1A;" d="M875.9580078,842.1459351l17.40625-0.6748047l-0.6542969,1.2421875l-15.2148438,0.6088867
			l11.65625,6.1430664l-0.5703125,1.0830078l-22.0068359-11.5981445l0.5703125-1.0825195l8.1533203,4.2963867l-4.796875-10.6660156
			l0.3525391-0.6689453L875.9580078,842.1459351z"/>
		<path style="fill:#1C1C1A;" d="M879.6376953,818.671814l23.0869141,12.3071289l-0.8359375,0.8945313l-8.5087891-4.550293
			l-5.0136719,5.3662109l5.1171875,8.1806641l-0.4423828,0.4736328l-13.2529297-21.2504883L879.6376953,818.671814z
			 M888.0419922,832.1400757l4.7675781-5.1030273l-11.9326172-6.3696289L888.0419922,832.1400757z"/>
		<path style="fill:#1C1C1A;" d="M915.421875,821.1654663l0.7636719,0.2119141l-5.9853516,4.1933594l-14.2734375-20.3740234
			l1.0029297-0.7021484l13.921875,19.8725586L915.421875,821.1654663z"/>
		<path style="fill:#1C1C1A;" d="M906.0966797,799.7982788c1.0283203-2.046875,2.5117188-3.703125,4.4521484-4.96875
			c1.9394531-1.265625,4.0478516-1.9541016,6.3251953-2.0649414s4.4375,0.3432617,6.4775391,1.3613281
			c2.0400391,1.0185547,3.6933594,2.4975586,4.9589844,4.4370117c1.265625,1.9399414,1.9541016,4.0483398,2.0644531,6.3256836
			c0.1113281,2.277832-0.3427734,4.4370117-1.3613281,6.4770508c-1.0185547,2.0405273-2.4970703,3.6933594-4.4365234,4.9589844
			c-1.9404297,1.2661133-4.0537109,1.9575195-6.3408203,2.074707c-2.2880859,0.1176758-4.4472656-0.3359375-6.4775391-1.3613281
			c-2.0302734-1.0244141-3.6777344-2.5068359-4.9433594-4.4467773c-1.2666016-1.9394531-1.9599609-4.0444336-2.0800781-6.315918
			C904.6142578,804.0048218,905.0683594,801.8451538,906.0966797,799.7982788z M926.7021484,813.4550171
			c1.4287109-1.5200195,2.3632813-3.3051758,2.8027344-5.3544922s0.3076172-4.0625-0.3945313-6.0400391
			c-0.703125-1.9765625-1.8623047-3.6645508-3.4755859-5.0615234c-1.6142578-1.3969727-3.5087891-2.3237305-5.6845703-2.7817383
			c-2.1757813-0.456543-4.2832031-0.3710938-6.3232422,0.2578125c-2.0390625,0.6293945-3.7792969,1.7075195-5.21875,3.2338867
			c-1.4394531,1.5273438-2.3789063,3.3154297-2.8183594,5.3647461S905.2871094,807.1332397,906,809.1034546
			c0.7128906,1.9711914,1.8759766,3.6547852,3.4902344,5.0517578s3.5039063,2.328125,5.6699219,2.7915039
			c2.1650391,0.4638672,4.2724609,0.3779297,6.3222656-0.2578125
			C923.5332031,816.0536499,925.2724609,814.9755249,926.7021484,813.4550171z"/>
		<path style="fill:#1C1C1A;" d="M930.3671875,782.0321655l0.4726563-0.3286133l11.5029297,16.5566406
			c0.8085938,1.1630859,1.0830078,2.440918,0.8232422,3.8339844s-0.9619141,2.4868164-2.1044922,3.2807617
			c-0.7490234,0.5205078-1.5791016,0.8188477-2.4892578,0.8964844c-0.9101563,0.078125-1.7841797-0.0751953-2.6201172-0.4589844
			c-0.8359375-0.3833008-1.5214844-0.9594727-2.0556641-1.7280273l-11.4824219-16.5268555l1.0058594-0.6982422
			l11.4814453,16.5268555c0.7128906,1.0249023,1.6621094,1.6660156,2.8486328,1.9223633
			c1.1865234,0.2573242,2.2529297,0.0566406,3.1992188-0.6005859c0.9648438-0.6708984,1.5332031-1.5986328,1.7041016-2.7836914
			c0.1699219-1.1850586-0.0908203-2.296875-0.7832031-3.3354492L930.3671875,782.0321655z"/>
		<path style="fill:#1C1C1A;" d="M939.2373047,775.2103882l0.4541016-0.3549805l15.3251953,19.5942383l-0.3115234,0.2441406
			l-0.4082031-0.2294922l-20.0322266-10.8857422l13.1523438,16.8149414l-0.4814453,0.3774414l-15.3261719-19.5942383
			l0.3115234-0.2441406l0.4365234,0.2070313l20.0322266,10.8857422L939.2373047,775.2103882z"/>
		<path style="fill:#1C1C1A;" d="M963.6376953,775.7953491l-0.8154297-0.03125l4.0488281-4.2475586l3.9082031,3.7260742
			l-0.0371094,0.5610352c-0.1103516,1.0556641-0.3408203,2.0625-0.6914063,3.0214844
			c-0.6054688,1.6782227-1.5371094,3.1772461-2.7958984,4.4970703c-1.5888672,1.6679688-3.484375,2.8208008-5.6845703,3.4589844
			c-2.1992188,0.6381836-4.4052734,0.6914063-6.6162109,0.1582031c-2.2109375-0.5322266-4.1591797-1.6020508-5.84375-3.2084961
			c-1.2509766-1.1923828-2.2177734-2.578125-2.9003906-4.1577148c-0.6835938-1.5791016-1.0400391-3.1791992-1.0703125-4.7993164
			c-0.0292969-1.6206055,0.2539063-3.2402344,0.8515625-4.8583984c0.5976563-1.6186523,1.4931641-3.0532227,2.6855469-4.3041992
			c2.1689453-2.2753906,4.8027344-3.5776367,7.9013672-3.90625l0.1318359,1.21875
			c-3.1337891,0.2958984-5.7597656,1.5810547-7.8779297,3.8554688c-2.1191406,2.2744141-3.1503906,4.9301758-3.0947266,7.9672852
			c0.0507813,2.1044922,0.6484375,4.0336914,1.7939453,5.7880859c1.1455078,1.7553711,2.6630859,3.1279297,4.5546875,4.1181641
			c1.890625,0.9902344,3.9472656,1.4677734,6.1708984,1.4311523c2.6972656-0.0810547,5.1005859-0.9072266,7.2099609-2.4770508
			c2.1103516-1.5693359,3.5107422-3.5336914,4.2011719-5.8930664c0.1591797-0.4453125,0.2910156-0.9487305,0.3964844-1.5117188
			l-3.5703125-3.4033203L963.6376953,775.7953491z"/>
		<path style="fill:#1C1C1A;" d="M975.2294922,771.4994507l2.9082031-4.762207l0.7851563-0.1113281l-3.8095703,6.2373047
			l-21.2294922-12.9658203l3.8085938-6.2368164l0.2597656,0.7490234l-2.9082031,4.762207l7.3125,4.4658203l2.5322266-4.1479492
			l0.2978516,0.6879883l-2.3085938,3.7788086L975.2294922,771.4994507z"/>
		<path style="fill:#1C1C1A;" d="M958.3125,711.5516968c-0.6357422-1.4248047-0.828125-2.9174805-0.5771484-4.4780273
			c0.2519531-1.5610352,0.9365234-2.9350586,2.0566406-4.1225586c1.4814453-1.5712891,3.3085938-2.3891602,5.4794922-2.453125
			c2.171875-0.0634766,4.0429688,0.6455078,5.6142578,2.1274414c0.6113281,0.5766602,1.1142578,1.2324219,1.5097656,1.9672852
			l-16.9179688,17.9418945c-0.1708984-0.0292969-0.3330078-0.0839844-0.4892578-0.1640625
			c-0.6523438-0.2524414-1.2226563-0.6088867-1.7119141-1.0703125c-1.0644531-1.0039063-1.6142578-2.2319336-1.6494141-3.6821289
			c-0.0332031-1.4506836,0.4521484-2.7089844,1.4560547-3.7739258c0.6748047-0.7163086,1.484375-1.206543,2.4267578-1.4716797
			c0.9433594-0.265625,1.8769531-0.2592773,2.8017578,0.0195313c0.1884766,0.0454102,0.3681641,0.0996094,0.5400391,0.1621094
			C958.6552734,712.2372437,958.4755859,711.9032593,958.3125,711.5516968z M954.7353516,721.5375366l6.2480469-6.6264648
			l-0.890625-0.8398438c-0.8027344-0.7568359-1.8056641-1.0761719-3.0078125-0.9555664
			c-1.2011719,0.1201172-2.2431641,0.6469727-3.1240234,1.581543c-0.8808594,0.9335938-1.3457031,2.0043945-1.3955078,3.2114258
			c-0.0488281,1.2070313,0.328125,2.1894531,1.1308594,2.9462891
			C954.0107422,721.1513062,954.3574219,721.3793335,954.7353516,721.5375366z M970.4658203,703.0707397
			c-1.3271484-1.2509766-2.9472656-1.8066406-4.8623047-1.6655273c-1.9140625,0.1411133-3.5585938,0.9404297-4.9335938,2.3989258
			c-1.375,1.4575195-2.0761719,3.1464844-2.1054688,5.065918c-0.0283203,1.9189453,0.6210938,3.5048828,1.9482422,4.7558594
			l0.890625,0.8398438l9.8544922-10.4506836C971.0449219,703.6820679,970.7802734,703.3671265,970.4658203,703.0707397z"/>
		<path style="fill:#1C1C1A;" d="M961.3857422,695.4911499l-4.3730469-3.465332l-0.015625-0.7929688l5.7275391,4.5390625
			l-15.4501953,19.4960938l-5.7275391-4.5390625l0.7744141-0.1669922l4.3740234,3.4658203l5.3212891-6.7148438l-3.8085938-3.0185547
			l0.71875-0.2114258l3.4697266,2.7504883L961.3857422,695.4911499z"/>
		<path style="fill:#1C1C1A;" d="M949.3330078,686.4432983l-0.0537109-0.7910156l5.9414063,4.2558594l-14.4882813,20.2216797
			l-0.9951172-0.7128906l14.1318359-19.7241211L949.3330078,686.4432983z"/>
		<path style="fill:#1C1C1A;" d="M937.9951172,696.2123413l1.0371094-17.3881836l1.171875,0.7729492l-0.8876953,15.2011719
			l7.2568359-10.9975586l1.0224609,0.6743164l-13.7011719,20.7626953l-1.0214844-0.6738281l5.0751953-7.6923828
			l-11.0849609,3.7265625l-0.6308594-0.4165039L937.9951172,696.2123413z"/>
		<path style="fill:#1C1C1A;" d="M917.859375,695.4135132l7.5107422-25.0610352l1.0410156,0.6425781l-2.7822266,9.2392578
			l6.25,3.8564453l7.0107422-6.6303711l0.5517578,0.340332l-18.21875,17.1850586L917.859375,695.4135132z M929.4052734,684.5170288
			l-5.9443359-3.6669922l-3.890625,12.9545898L929.4052734,684.5170288z"/>
		<path style="fill:#1C1C1A;" d="M910.3134766,662.0717163l-0.1181641-0.7836914l6.2705078,3.753418l-12.7753906,21.3442383
			l-1.0507813-0.628418l12.4619141-20.8193359L910.3134766,662.0717163z"/>
		<path style="fill:#1C1C1A;" d="M894.9023438,679.5892944c-2.2900391-0.0527344-4.421875-0.6835938-6.3974609-1.894043
			c-1.9746094-1.2099609-3.5-2.8203125-4.5761719-4.8310547c-1.0751953-2.0102539-1.5908203-4.1557617-1.5449219-6.4355469
			c0.046875-2.2802734,0.6748047-4.4072266,1.8847656-6.3818359c1.2099609-1.9750977,2.8203125-3.5004883,4.8310547-4.5761719
			c2.0107422-1.0761719,4.15625-1.5908203,6.4355469-1.5449219c2.2802734,0.0463867,4.4072266,0.6743164,6.3818359,1.8842773
			c1.9746094,1.2104492,3.5048828,2.8237305,4.5917969,4.840332c1.0859375,2.0170898,1.6015625,4.1621094,1.5449219,6.4360352
			c-0.0566406,2.2734375-0.6894531,4.3974609-1.9003906,6.3725586c-1.2099609,1.9741211-2.8144531,3.5029297-4.8154297,4.5854492
			C899.3378906,679.1264038,897.1923828,679.6415405,894.9023438,679.5892944z M898.4130859,655.1195679
			c-1.9853516-0.6401367-3.9990234-0.7192383-6.0390625-0.2387695c-2.0400391,0.480957-3.8017578,1.4624023-5.2880859,2.9448242
			c-1.484375,1.4824219-2.5136719,3.2519531-3.0839844,5.3085938c-0.5712891,2.0571289-0.5966797,4.1665039-0.078125,6.328125
			c0.5195313,2.1616211,1.5,4.0288086,2.9423828,5.6030273c1.4423828,1.5732422,3.1621094,2.6831055,5.1582031,3.3295898
			s4.0146484,0.7294922,6.0537109,0.2485352c2.0410156-0.480957,3.7978516-1.4663086,5.2734375-2.9545898
			s2.4980469-3.2607422,3.0683594-5.3178711c0.5712891-2.0566406,0.6025391-4.1630859,0.09375-6.3183594
			c-0.5087891-2.1557617-1.4892578-4.0229492-2.9423828-5.6030273
			C902.1191406,656.8695679,900.4003906,655.7597046,898.4130859,655.1195679z"/>
		<path style="fill:#1C1C1A;" d="M867.8574219,663.8568726l-0.4765625-0.3237305l11.3232422-16.6791992
			c0.7958984-1.171875,1.890625-1.8867188,3.2832031-2.144043c1.3935547-0.2578125,2.6660156,0.0043945,3.8173828,0.7861328
			c0.7548828,0.512207,1.3310547,1.1796875,1.7304688,2.0014648s0.5703125,1.6923828,0.5126953,2.6103516
			s-0.3496094,1.7646484-0.875,2.5390625l-11.3037109,16.6494141l-1.0126953-0.6875l11.3037109-16.6494141
			c0.7011719-1.0327148,0.9580078-2.1494141,0.7714844-3.3486328c-0.1855469-1.199707-0.7558594-2.1230469-1.7089844-2.7705078
			c-0.9726563-0.6601563-2.0419922-0.8574219-3.2099609-0.5908203c-1.1669922,0.2661133-2.1103516,0.9091797-2.8320313,1.9282227
			L867.8574219,663.8568726z"/>
		<path style="fill:#1C1C1A;" d="M857.6464844,656.2377319l-0.4580078-0.3486328l15.0712891-19.7910156l0.3154297,0.2397461
			l-0.1191406,0.453125l-5.4541016,22.1362305l12.9335938-16.9838867l0.4863281,0.3710938l-15.0712891,19.7905273
			l-0.3144531-0.2397461l0.0898438-0.4746094l5.4541016-22.1367188L857.6464844,656.2377319z"/>
		<path style="fill:#1C1C1A;" d="M855.0888672,630.0150757l-0.0585938,0.8144531l-4.109375-4.1884766l3.8535156-3.7822266
			l0.5595703,0.0561523c1.0517578,0.1459961,2.0498047,0.409668,2.9970703,0.7919922
			c1.6572266,0.6611328,3.1240234,1.6420898,4.4013672,2.9438477c1.6142578,1.6445313,2.703125,3.5766602,3.2675781,5.796875
			c0.5644531,2.2197266,0.5439453,4.4262695-0.0625,6.6181641c-0.6054688,2.1918945-1.7402344,4.1030273-3.4013672,5.7338867
			c-1.2333984,1.2104492-2.6503906,2.1303711-4.2519531,2.7602539s-3.2119141,0.9326172-4.8330078,0.9086914
			c-1.6201172-0.0239258-3.2294922-0.3613281-4.8271484-1.0126953s-3.0019531-1.59375-4.2119141-2.8271484
			c-2.2021484-2.2441406-3.4160156-4.9199219-3.640625-8.027832l1.2226563-0.090332
			c0.1914063,3.1411133,1.3876953,5.8085938,3.5898438,8.0019531c2.203125,2.1933594,4.8232422,3.3120117,7.8603516,3.3579102
			c2.1044922,0.0200195,4.0527344-0.5136719,5.8447266-1.5996094c1.7929688-1.0859375,3.2148438-2.5576172,4.2675781-4.4145508
			s1.5986328-3.8964844,1.6357422-6.1196289c0.0087891-2.6987305-0.7363281-5.128418-2.2353516-7.2890625
			c-1.4980469-2.1616211-3.4140625-3.6259766-5.75-4.3950195c-0.4394531-0.1738281-0.9384766-0.3222656-1.4970703-0.4467773
			l-3.5205078,3.4545898L855.0888672,630.0150757z"/>
		<path style="fill:#1C1C1A;" d="M856.0400391,619.8505249l-2.7666016-4.8461914l0.2822266-0.7412109l3.6230469,6.3466797
			l-21.6044922,12.3320313l-3.6230469-6.347168l0.78125,0.1342773l2.7666016,4.8461914l7.4404297-4.2470703l-2.4091797-4.2211914
			l0.7460938,0.0717773l2.1953125,3.8457031L856.0400391,619.8505249z"/>
	</g>
</g>
<g>
	<path style="fill:#1C1C1A;" d="M822.96875,559.7470093c1.3320313-0.8110352,2.7890625-1.1904297,4.3691406-1.1391602
		c1.5800781,0.0527344,3.0292969,0.5581055,4.3486328,1.5185547c1.7460938,1.2714844,2.7890625,2.9804688,3.1269531,5.1254883
		c0.3378906,2.1459961-0.1289063,4.0917969-1.4003906,5.8383789c-0.4941406,0.6791992-1.0810547,1.2607422-1.7607422,1.7460938
		l-19.9375-14.5126953c0.0078125-0.1728516,0.0410156-0.3413086,0.1005859-0.5058594
		c0.1679688-0.6787109,0.4501953-1.2900391,0.8457031-1.8334961c0.8613281-1.1835938,2.0097656-1.8837891,3.4443359-2.1015625
		c1.4345703-0.2167969,2.7441406,0.1049805,3.9267578,0.9663086c0.7958984,0.5795898,1.3847656,1.3198242,1.7675781,2.2216797
		s0.4941406,1.8291016,0.3349609,2.7817383c-0.0214844,0.1923828-0.0527344,0.3779297-0.0927734,0.5556641
		C822.3310547,560.1737671,822.640625,559.953064,822.96875,559.7470093z M812.6103516,557.4608765l7.3632813,5.3603516
		l0.7207031-0.9897461c0.6494141-0.8920898,0.8388672-1.9267578,0.5673828-3.1044922
		c-0.2714844-1.1767578-0.9257813-2.1430664-1.9638672-2.8989258c-1.0380859-0.7553711-2.1591797-1.081543-3.3623047-0.9780273
		c-1.203125,0.1040039-2.1308594,0.6020508-2.7802734,1.4941406
		C812.9013672,556.6937866,812.7197266,557.0663452,812.6103516,557.4608765z M832.9179688,570.7299194
		c1.0732422-1.4741211,1.4199219-3.1523438,1.0371094-5.0336914c-0.3818359-1.8808594-1.3828125-3.4111328-3.0029297-4.5908203
		c-1.6201172-1.1791992-3.3837891-1.6616211-5.2919922-1.4472656c-1.9072266,0.2143555-3.3984375,1.059082-4.4716797,2.5336914
		l-0.7197266,0.9897461l11.6123047,8.453125C832.3847656,571.3812866,832.6640625,571.0790405,832.9179688,570.7299194z"/>
	<path style="fill:#1C1C1A;" d="M838.9746094,561.6259155l3.1689453-4.5922852l0.7900391-0.0673828l-4.1503906,6.0146484
		l-20.4736328-14.1293945l4.1503906-6.0146484l0.2177734,0.7626953l-3.1699219,4.5922852l7.0517578,4.8666992l2.7607422-4
		l0.2587891,0.703125l-2.515625,3.6445313L838.9746094,561.6259155z"/>
	<path style="fill:#1C1C1A;" d="M847.1875,549.3475952l0.7871094-0.0898438l-3.9775391,6.1308594l-20.8691406-13.5390625
		l0.6669922-1.0268555l20.3554688,13.2060547L847.1875,549.3475952z"/>
	<path style="fill:#1C1C1A;" d="M836.9160156,538.4852905l17.4189453,0.1450195l-0.7119141,1.2094727l-15.2265625-0.1074219
		l11.3544922,6.6845703l-0.6210938,1.0546875l-21.4375-12.6196289l0.6210938-1.0551758l7.9423828,4.6757813l-4.2890625-10.8803711
		l0.3828125-0.6513672L836.9160156,538.4852905z"/>
	<path style="fill:#1C1C1A;" d="M836.1796875,518.6376343l25.7001953,4.8950195l-0.5322266,1.1020508l-9.4755859-1.8178711
		l-3.1943359,6.6132813l7.3164063,6.2915039l-0.28125,0.5834961l-18.9677734-16.3549805L836.1796875,518.6376343z
		 M848.2050781,529.0018921l3.0371094-6.2890625l-13.2861328-2.5375977L848.2050781,529.0018921z"/>
	<path style="fill:#1C1C1A;" d="M867.2294922,503.2865601l0.7021484-0.3666992l-1.5058594,7.1508789l-24.3417969-5.1264648
		l0.2519531-1.1977539l23.7431641,5.0004883L867.2294922,503.2865601z"/>
	<path style="fill:#1C1C1A;" d="M845.7441406,497.3134155c-1.4453125-1.7768555-2.3486328-3.809082-2.7089844-6.097168
		c-0.359375-2.2875977-0.1240234-4.4931641,0.7080078-6.6166992c0.8320313-2.1225586,2.1308594-3.9067383,3.8955078-5.3505859
		c1.765625-1.4438477,3.7919922-2.3461914,6.0791016-2.7060547c2.2880859-0.3603516,4.4941406-0.1240234,6.6171875,0.7080078
		s3.90625,2.1308594,5.3505859,3.8955078c1.4433594,1.7651367,2.3457031,3.7915039,2.7060547,6.0791016
		c0.359375,2.2880859,0.125,4.4990234-0.7050781,6.6342773c-0.8300781,2.1347656-2.1289063,3.9189453-3.8955078,5.3505859
		c-1.7666016,1.4321289-3.7939453,2.328125-6.0820313,2.6884766c-2.2880859,0.3598633-4.4921875,0.1298828-6.6142578-0.6904297
		C848.9746094,500.3886108,847.1904297,499.0897827,845.7441406,497.3134155z M866.6435547,484.1112671
		c-0.8007813-1.9267578-2.0458984-3.5102539-3.7353516-4.7509766c-1.6894531-1.2402344-3.5800781-1.9448242-5.671875-2.1137695
		c-2.0917969-0.168457-4.1054688,0.1967773-6.0410156,1.0966797s-3.5576172,2.2485352-4.8662109,4.0454102
		c-1.3085938,1.7973633-2.09375,3.7553711-2.3554688,5.8740234c-0.2617188,2.1181641,0.0087891,4.1469727,0.8125,6.0854492
		c0.8027344,1.9389648,2.0488281,3.5283203,3.7382813,4.7685547c1.6894531,1.2412109,3.5791016,1.9394531,5.6689453,2.0961914
		c2.0898438,0.1577148,4.1025391-0.2138672,6.0380859-1.1142578c1.9355469-0.8994141,3.5595703-2.2421875,4.8691406-4.027832
		c1.3105469-1.7851563,2.0957031-3.7431641,2.3554688-5.8735352S867.4453125,486.0385132,866.6435547,484.1112671z"/>
	<path style="fill:#1C1C1A;" d="M833.2441406,476.6664429l-0.4091797-0.4047852l14.1728516-14.3369141
		c0.9960938-1.0073242,2.2021484-1.5102539,3.6191406-1.5097656c1.4169922,0,2.6210938,0.4902344,3.6103516,1.4682617
		c0.6484375,0.6416016,1.09375,1.402832,1.3369141,2.2836914s0.2519531,1.7675781,0.0273438,2.659668
		c-0.2236328,0.8925781-0.6650391,1.6713867-1.3222656,2.3369141l-14.1484375,14.3115234l-0.8701172-0.8608398
		l14.1474609-14.3110352c0.8779297-0.8876953,1.3339844-1.9384766,1.3691406-3.1518555
		c0.0361328-1.2138672-0.3554688-2.2250977-1.1748047-3.0351563c-0.8369141-0.8266602-1.8525391-1.2158203-3.0488281-1.1660156
		c-1.1962891,0.0493164-2.2412109,0.5087891-3.1357422,1.3798828L833.2441406,476.6664429z"/>
	<path style="fill:#1C1C1A;" d="M824.8496094,470.1854858l-0.4550781-0.3525391l15.2207031-19.6757813l0.3134766,0.2421875
		l-0.1220703,0.4516602l-5.6230469,22.0947266l13.0625-16.8852539l0.484375,0.3745117l-15.2207031,19.6757813l-0.3134766-0.2421875
		l0.09375-0.4741211l5.6220703-22.0947266L824.8496094,470.1854858z"/>
	<path style="fill:#1C1C1A;" d="M820.6289063,445.9823608l0.0976563,0.8100586l-4.8300781-3.3320313l3.0664063-4.4448242
		l0.5605469-0.0512695c1.0595703-0.0561523,2.0898438,0.0131836,3.0917969,0.2094727
		c1.7529297,0.3339844,3.3789063,1.019043,4.8798828,2.0546875c1.8964844,1.3085938,3.3330078,2.9990234,4.3085938,5.0717773
		s1.3740234,4.2426758,1.1943359,6.5097656s-0.9296875,4.3588867-2.2519531,6.2753906
		c-0.9814453,1.4223633-2.1982422,2.5947266-3.6513672,3.5166016c-1.4521484,0.9223633-2.9765625,1.5249023-4.5722656,1.8095703
		c-1.5957031,0.2836914-3.2392578,0.2578125-4.9316406-0.0786133c-1.6923828-0.3369141-3.25-0.9956055-4.671875-1.9770508
		c-2.5878906-1.7851563-4.2871094-4.1826172-5.0986328-7.1914063l1.1835938-0.3203125
		c0.7841797,3.0478516,2.4648438,5.4399414,5.0439453,7.175293c2.578125,1.7353516,5.3632813,2.3369141,8.3535156,1.8056641
		c2.0703125-0.3798828,3.8828125-1.2729492,5.4355469-2.6791992c1.5537109-1.4067383,2.671875-3.1210938,3.3525391-5.144043
		c0.6816406-2.0229492,0.8300781-4.1293945,0.4453125-6.3193359c-0.5039063-2.6508789-1.6962891-4.8950195-3.5771484-6.7324219
		c-1.8818359-1.8378906-4.0410156-2.9121094-6.4794922-3.2241211c-0.4648438-0.0874023-0.9824219-0.1386719-1.5556641-0.1542969
		l-2.8007813,4.0595703L820.6289063,445.9823608z"/>
	<path style="fill:#1C1C1A;" d="M817.9697266,435.855896l-4.5419922-3.2416992l-0.0546875-0.7905273l5.9482422,4.2451172
		l-14.4511719,20.2480469l-5.9482422-4.2456055l0.765625-0.2055664l4.5419922,3.2416992l4.9765625-6.9736328l-3.9550781-2.8232422
		l0.7070313-0.2475586l3.6044922,2.5727539L817.9697266,435.855896z"/>
	<path style="fill:#1C1C1A;" d="M771.7646484,412.5551147c-0.3759766-1.5141602-0.3027344-3.0170898,0.2177734-4.5097656
		c0.5224609-1.4921875,1.4375-2.7250977,2.7480469-3.6972656c1.7353516-1.2871094,3.6777344-1.7709961,5.8261719-1.4526367
		s3.8662109,1.3447266,5.1533203,3.0795898c0.5009766,0.6748047,0.8798828,1.4086914,1.140625,2.2021484l-19.8056641,14.6923828
		c-0.1621094-0.0585938-0.3125-0.140625-0.4521484-0.2470703c-0.5976563-0.3632813-1.0966797-0.8144531-1.4970703-1.3540039
		c-0.8720703-1.1757813-1.1982422-2.480957-0.9775391-3.9150391c0.2216797-1.434082,0.9199219-2.5874023,2.0957031-3.4594727
		c0.7900391-0.5864258,1.6728516-0.9272461,2.6474609-1.0229492c0.9755859-0.0957031,1.8935547,0.074707,2.7548828,0.5112305
		c0.1777344,0.0776367,0.3457031,0.1630859,0.5029297,0.2548828
		C771.9824219,413.2904663,771.8632813,412.9301147,771.7646484,412.5551147z M766.4892578,421.7582397l7.3154297-5.4267578
		l-0.7294922-0.9829102c-0.6572266-0.8867188-1.5888672-1.3769531-2.7929688-1.4692383
		c-1.2041016-0.0927734-2.3222656,0.2431641-3.3535156,1.0083008s-1.6767578,1.7373047-1.9375,2.9169922
		c-0.2607422,1.1791992-0.0625,2.2128906,0.5957031,3.0991211
		C765.84375,421.2509155,766.1455078,421.5355835,766.4892578,421.7582397z M785.21875,406.3397827
		c-1.0869141-1.4648438-2.5849609-2.2963867-4.4951172-2.4931641c-1.9091797-0.1972656-3.6679688,0.3012695-5.2783203,1.4951172
		c-1.6083984,1.1938477-2.5957031,2.7329102-2.9609375,4.6176758s-0.0039063,3.5595703,1.0820313,5.0244141l0.7294922,0.9829102
		l11.5361328-8.5581055C785.6806641,407.0429077,785.4755859,406.6864624,785.21875,406.3397827z"/>
	<path style="fill:#1C1C1A;" d="M779.2041016,398.4486694l-2.7783203-4.8388672l0.2802734-0.7416992l3.6386719,6.3374023
		l-21.5732422,12.3867188l-3.6386719-6.3378906l0.78125,0.1323242l2.7792969,4.8393555l7.4296875-4.2666016l-2.4199219-4.2143555
		l0.7460938,0.0698242l2.2050781,3.8398438L779.2041016,398.4486694z"/>
	<path style="fill:#1C1C1A;" d="M773.0244141,386.1239624l0.3583984-0.7070313l2.9355469,6.6923828l-22.7802734,9.9931641
		l-0.4921875-1.1206055l22.2197266-9.7475586L773.0244141,386.1239624z"/>
	<path style="fill:#1C1C1A;" d="M758.1435547,387.5541382l12.015625-12.6113281l0.3955078,1.347168l-10.4892578,11.0371094
		l12.6416016-3.7148438l0.3447266,1.1743164l-23.8671875,7.0136719l-0.3447266-1.1743164l8.8417969-2.5986328l-10.8720703-4.3095703
		l-0.2128906-0.7250977L758.1435547,387.5541382z"/>
	<path style="fill:#1C1C1A;" d="M743.9277344,370.243103l24.2460938-9.8286133l0.1513672,1.2148438l-8.9472656,3.6132813
		l0.9042969,7.2880859l9.5585938,1.3168945l0.0800781,0.6430664l-24.8056641-3.4516602L743.9277344,370.243103z
		 M759.6533203,372.4271851l-0.8603516-6.9306641l-12.5390625,5.074707L759.6533203,372.4271851z"/>
	<path style="fill:#1C1C1A;" d="M768.4482422,344.3793335l0.6542969-0.4487305l-0.6357422,7.2802734l-24.78125-2.1625977
		l0.1054688-1.2192383l24.1728516,2.109375L768.4482422,344.3793335z"/>
	<path style="fill:#1C1C1A;" d="M746.2724609,336.3217163c-0.7304688-2.1708984-0.8623047-4.390625-0.3964844-6.659668
		c0.4658203-2.2685547,1.4609375-4.2509766,2.9853516-5.9472656c1.5244141-1.6953125,3.3662109-2.9101563,5.5253906-3.6425781
		c2.1601563-0.7329102,4.3740234-0.8662109,6.6425781-0.4003906c2.2695313,0.4658203,4.2509766,1.4609375,5.9472656,2.9853516
		s2.9101563,3.3666992,3.6425781,5.5258789c0.7324219,2.159668,0.8662109,4.3735352,0.4003906,6.6420898
		c-0.4658203,2.269043-1.4619141,4.2568359-2.9892578,5.9648438c-1.5263672,1.7075195-3.3681641,2.9223633-5.5253906,3.6425781
		c-2.15625,0.7211914-4.3691406,0.8486328-6.6386719,0.3828125c-2.2685547-0.4658203-4.2519531-1.4550781-5.9501953-2.9677734
		C748.2177734,340.3353882,747.0029297,338.493103,746.2724609,336.3217163z M770.4765625,331.2958374
		c-0.0742188-2.0854492-0.6845703-4.0053711-1.8310547-5.7602539c-1.1464844-1.7543945-2.6689453-3.0776367-4.5683594-3.9702148
		c-1.8994141-0.8916016-3.9140625-1.2563477-6.0419922-1.0932617c-2.1279297,0.1635742-4.1201172,0.8569336-5.9765625,2.0800781
		c-1.8554688,1.2241211-3.2783203,2.7817383-4.2675781,4.6733398c-0.9882813,1.8916016-1.4462891,3.8867188-1.375,5.9833984
		c0.0712891,2.0976563,0.6806641,4.0234375,1.8271484,5.777832c1.1464844,1.7548828,2.6708984,3.0722656,4.5722656,3.9526367
		c1.9013672,0.8808594,3.9169922,1.2392578,6.0449219,1.0756836c2.1279297-0.1630859,4.1201172-0.8500977,5.9726563-2.0625
		c1.8544922-1.2119141,3.2763672-2.7695313,4.2675781-4.6733398
		C770.0917969,335.3759155,770.5507813,333.3817749,770.4765625,331.2958374z"/>
	<path style="fill:#1C1C1A;" d="M754.9414063,303.418396l0.2265625-0.5292969l18.5332031,7.9360352
		c1.3017578,0.5571289,2.2119141,1.4951172,2.7304688,2.8139648s0.5039063,2.6181641-0.0439453,3.8974609
		c-0.359375,0.8388672-0.9042969,1.5317383-1.6347656,2.0800781c-0.7304688,0.5488281-1.5527344,0.8823242-2.4648438,1.0009766
		c-0.9121094,0.1181641-1.7988281-0.0068359-2.6591797-0.375l-18.4990234-7.921875l0.4814453-1.125l18.4990234,7.9213867
		c1.1474609,0.4912109,2.2929688,0.53125,3.4345703,0.1196289c1.1425781-0.4116211,1.9404297-1.1469727,2.3935547-2.2060547
		c0.4628906-1.0805664,0.453125-2.168457-0.03125-3.2636719c-0.484375-1.0947266-1.2949219-1.8989258-2.4335938-2.4125977
		L754.9414063,303.418396z"/>
	<path style="fill:#1C1C1A;" d="M761.9003906,291.0341187l0.2939453-0.4951172l21.3896484,12.699707l-0.2021484,0.3408203
		l-0.4628906-0.065918l-22.6171875-2.8774414l18.3564453,10.8984375l-0.3125,0.5263672l-21.3896484-12.699707l0.2021484-0.340332
		l0.4814453,0.034668l22.6171875,2.8774414L761.9003906,291.0341187z"/>
	<path style="fill:#1C1C1A;" d="M788.2802734,285.9115601l-0.8154297,0.0004883l3.8798828-4.4018555l4.0507813,3.5712891
		l-0.015625,0.5620117c-0.0693359,1.059082-0.2607422,2.0742188-0.5732422,3.0458984
		c-0.5400391,1.7006836-1.4121094,3.2348633-2.6181641,4.6025391c-1.5244141,1.7285156-3.3730469,2.9541016-5.5458984,3.6777344
		c-2.1738281,0.7231445-4.3759766,0.8618164-6.6054688,0.4150391c-2.2304688-0.4458008-4.21875-1.4389648-5.9648438-2.9785156
		c-1.2958984-1.1430664-2.3164063-2.4902344-3.0595703-4.0419922c-0.7441406-1.5512695-1.1621094-3.1362305-1.2558594-4.7543945
		c-0.0927734-1.6176758,0.1279297-3.2470703,0.6621094-4.8876953s1.3730469-3.1088867,2.515625-4.4047852
		c2.0791016-2.3583984,4.6611328-3.762207,7.7441406-4.2109375l0.1787109,1.2128906
		c-3.1201172,0.4174805-5.6943359,1.8037109-7.7226563,4.1586914c-2.0283203,2.3554688-2.9550781,5.0488281-2.78125,8.081543
		c0.1318359,2.1010742,0.8046875,4.0053711,2.0166016,5.7143555c1.2128906,1.7094727,2.7832031,3.0219727,4.7119141,3.9375
		c1.9277344,0.9160156,4.0019531,1.3129883,6.2216797,1.1899414c2.6914063-0.1860352,5.0615234-1.1044922,7.1083984-2.7553711
		c2.0478516-1.6503906,3.3701172-3.6674805,3.96875-6.0522461c0.1416016-0.4506836,0.2539063-0.9589844,0.3369141-1.5258789
		l-3.6992188-3.2617188L788.2802734,285.9115601z"/>
	<path style="fill:#1C1C1A;" d="M798.7431641,285.5175171l4.2724609-3.5883789l0.7802734,0.1450195l-5.5966797,4.6992188
		l-15.9970703-19.0507813l5.5966797-4.699707l0.0078125,0.7929688l-4.2734375,3.5883789l5.5097656,6.5615234l3.7216797-3.125
		l0.0634766,0.7460938l-3.3916016,2.8476563L798.7431641,285.5175171z"/>
	<path style="fill:#1C1C1A;" d="M816.5654297,256.2401733c1.5507813-0.1767578,3.03125,0.090332,4.4443359,0.800293
		c1.4121094,0.7109375,2.515625,1.7788086,3.3095703,3.2041016c1.0517578,1.887207,1.2792969,3.8754883,0.6855469,5.9643555
		c-0.59375,2.0898438-1.8349609,3.659668-3.7216797,4.7114258c-0.734375,0.4086914-1.5107422,0.6904297-2.3310547,0.8452148
		l-12.0029297-21.5419922c0.0800781-0.1533203,0.1806641-0.2919922,0.3037109-0.4165039
		c0.4384766-0.5454102,0.9501953-0.9824219,1.5371094-1.3095703c1.2783203-0.7124023,2.6152344-0.8657227,4.0087891-0.4609375
		c1.3925781,0.4052734,2.4462891,1.2470703,3.1582031,2.5258789c0.4794922,0.8598633,0.703125,1.7788086,0.671875,2.7578125
		c-0.03125,0.9794922-0.3193359,1.8676758-0.8642578,2.6655273c-0.0996094,0.1660156-0.2060547,0.3208008-0.3173828,0.465332
		C815.8085938,256.3602905,816.1816406,256.2894897,816.5654297,256.2401733z M808.1240234,249.8168335l4.4326172,7.9560547
		l1.0693359-0.5957031c0.9648438-0.5371094,1.5712891-1.3964844,1.8193359-2.5791016
		c0.2480469-1.1821289,0.0595703-2.3339844-0.5654297-3.4555664s-1.5058594-1.8876953-2.6416016-2.2993164
		c-1.1357422-0.4111328-2.1865234-0.3481445-3.1503906,0.1889648
		C808.7109375,249.2426147,808.3886719,249.5043335,808.1240234,249.8168335z M820.9853516,270.3856812
		c1.5927734-0.8876953,2.6123047-2.2651367,3.0546875-4.1333008c0.4433594-1.8676758,0.1767578-3.6767578-0.7988281-5.4277344
		c-0.9746094-1.75-2.3730469-2.9287109-4.1953125-3.5351563c-1.8212891-0.605957-3.5283203-0.465332-5.1220703,0.4223633
		l-1.0693359,0.5957031l6.9921875,12.5478516C820.2285156,270.7528687,820.6083984,270.5956421,820.9853516,270.3856812z"/>
	<path style="fill:#1C1C1A;" d="M829.8671875,265.1200562l4.9824219-2.512207l0.7255859,0.3193359l-6.5253906,3.2905273
		l-11.2001953-22.2119141L824.375,240.715271l-0.1738281,0.7734375l-4.9824219,2.5126953l3.8574219,7.6503906l4.3388672-2.1884766
		l-0.109375,0.7412109l-3.9541016,1.9936523L829.8671875,265.1200562z"/>
	<path style="fill:#1C1C1A;" d="M842.6513672,258.8710327l0.71875,0.3359375l-6.5976563,3.1430664l-10.6992188-22.4580078
		l1.1044922-0.5263672l10.4365234,21.9052734L842.6513672,258.8710327z"/>
	<path style="fill:#1C1C1A;" d="M839.6943359,244.2855835l14.2666016,9.9946289l-1.2724609,0.5927734l-12.4814453-8.7211914
		l5.5634766,11.9438477l-1.1103516,0.5166016l-10.5029297-22.5498047l1.109375-0.5166016l3.8916016,8.3540039l2.6347656-11.394043
		l0.6855469-0.3193359L839.6943359,244.2855835z"/>
	<path style="fill:#1C1C1A;" d="M850.9208984,227.6552124l17.4296875,19.5112305l-1.0917969,0.5512695l-6.4199219-7.2041016
		l-6.5556641,3.309082l1.984375,9.4433594l-0.5791016,0.2919922l-5.1162109-24.5170898L850.9208984,227.6552124z
		 M854.1679688,243.1952515l6.2353516-3.1469727l-9.0068359-10.0927734L854.1679688,243.1952515z"/>
</g>
</svg>
