<?xml version="1.0" encoding="utf-8"?>
<!-- Generator: Adobe Illustrator 23.1.0, SVG Export Plug-In . SVG Version: 6.00 Build 0)  -->
<svg version="1.1" xmlns="http://www.w3.org/2000/svg" xmlns:xlink="http://www.w3.org/1999/xlink" x="0px" y="0px"
	 viewBox="0 0 1366 2888.7741699" style="enable-background:new 0 0 1366 2888.7741699;" xml:space="preserve">
<g id="Слой_2">
	<g>
		<path style="fill:#1C1C1A;" d="M641.9453125,2404.873291c2.8325195-0.7724609,5.5151367-1.9111328,8.0473633-3.4140625
			l0.1289063,2.1464844c-3.2617188,1.8027344-6.7241211,3.1191406-10.3862305,3.9511719
			c-5.2944336,1.1728516-10.659668,1.2167969-16.0957031,0.1308594c-6.8671875-1.3730469-12.9125977-4.3476563-18.1352539-8.9257813
			c-5.2226563-4.5761719-8.9438477-10.1572266-11.1611328-16.7382813
			c-2.2197266-6.5810547-2.6381836-13.3212891-1.2583008-20.2265625c1.3793945-6.9023438,4.3540039-12.9482422,8.925293-18.1347656
			c4.5693359-5.1865234,10.1494141-8.9072266,16.737793-11.1611328c6.5883789-2.2548828,13.315918-2.6962891,20.1831055-1.3232422
			c9.3710938,1.8730469,16.9980469,6.5224609,22.8789063,13.9472656l-2.9179688,2.3173828
			c-5.8525391-7.5673828-13.4223633-12.2226563-22.7075195-13.9667969
			c-9.2866211-1.7451172-17.7905273-0.0419922-25.515625,5.1103516c-5.3085938,3.4765625-9.2851563,8.1142578-11.9301758,13.9072266
			c-2.6479492,5.7949219-3.7050781,11.9257813-3.1738281,18.3925781c0.5297852,6.4667969,2.6469727,12.5244141,6.3544922,18.1767578
			c4.5927734,6.7949219,10.6206055,11.6269531,18.0825195,14.4941406
			C627.4633789,2406.4250488,634.7768555,2406.8625488,641.9453125,2404.873291z"/>
		<path style="fill:#1C1C1A;" d="M680.6645508,2344.8762207c6.5883789-2.2548828,13.331543-2.6923828,20.2358398-1.3125
			c6.9023438,1.3798828,12.9453125,4.3720703,18.125,8.9794922c5.1777344,4.6054688,8.9003906,10.1855469,11.1621094,16.7373047
			c2.2607422,6.5527344,2.7011719,13.2802734,1.3222656,20.1826172c-1.3808594,6.9052734-4.3730469,12.9472656-8.9785156,18.125
			c-4.6074219,5.1806641-10.1875,8.9003906-16.7382813,11.1621094c-6.5527344,2.2617188-13.28125,2.703125-20.1835938,1.3232422
			c-6.9047852-1.3798828-12.9619141-4.3769531-18.1772461-8.9902344
			c-5.2158203-4.6132813-8.9379883-10.1923828-11.1621094-16.7382813
			c-2.2270508-6.5439453-2.6489258-13.2675781-1.269043-20.1728516c1.3793945-6.9023438,4.3540039-12.9482422,8.925293-18.1347656
			C668.4956055,2350.8508301,674.0761719,2347.130127,680.6645508,2344.8762207z M696.328125,2418.3654785
			c6.3378906-0.2578125,12.1630859-2.1435547,17.4804688-5.6572266c5.3125-3.5136719,9.3125-8.1630859,11.9941406-13.9511719
			c2.6796875-5.7861328,3.7578125-11.9150391,3.2265625-18.3808594c-0.53125-6.4667969-2.6708984-12.5107422-6.4189453-18.1337891
			c-3.7490234-5.6210938-8.5068359-9.9189453-14.2724609-12.8964844c-5.765625-2.9736328-11.8369141-4.3349609-18.2099609-4.0859375
			c-6.3740234,0.2519531-12.21875,2.1337891-17.5327148,5.6474609c-5.3154297,3.5126953-9.2954102,8.1679688-11.9404297,13.9609375
			c-2.6479492,5.7949219-3.7050781,11.9257813-3.1738281,18.3925781c0.5297852,6.4667969,2.6503906,12.5087891,6.3652344,18.1230469
			c3.7128906,5.6142578,8.4697266,9.9130859,14.2729492,12.8955078
			C683.9199219,2417.2629395,689.9902344,2418.6242676,696.328125,2418.3654785z"/>
		<path style="fill:#1C1C1A;" d="M749.0371094,2429.6242676l1.1367188,2.1259766l-21.7832031-4.3535156l14.8203125-74.1484375
			l3.6484375,0.7285156l-14.4550781,72.3232422L749.0371094,2429.6242676z"/>
		<path style="fill:#1C1C1A;" d="M791.7324219,2361.7180176l5.1171875,79.3613281l-3.6484375-0.7294922l-1.8476563-29.2724609
			l-21.890625-4.3759766l-12.9589844,26.3134766l-1.9316406-0.3857422l33.7265625-68.2490234L791.7324219,2361.7180176z
			 M770.3632813,2404.9846191l20.8164063,4.1611328l-2.6230469-41.0322266L770.3632813,2404.9846191z"/>
	</g>
	<g>
		<path style="fill:#1C1C1A;" d="M729.3242188,2462.8430176c2.3222656-0.2294922,4.6933594-0.0576172,7.1103516,0.515625
			c6.0410156,1.4326172,10.6992188,4.8076172,13.9765625,10.1220703c3.2753906,5.3144531,4.1992188,10.9921875,2.7666016,17.0341797
			c-1.0830078,4.5654297-3.3378906,8.390625-6.7626953,11.4765625c-3.4277344,3.0869141-7.3525391,4.9931641-11.7773438,5.7148438
			l13.2255859,33.0214844l-3.3232422-0.7880859l-12.9375-31.9951172c-1.8574219,0.0556641-3.7255859-0.1396484-5.6035156-0.5849609
			c-1.1425781-0.2714844-2.2597656-0.6425781-3.3515625-1.1142578l-6.4003906,26.984375l-3.4238281-0.8115234
			L729.3242188,2462.8430176z M723.0771484,2504.4338379c1.0078125,0.5234375,2.1191406,0.9267578,3.328125,1.2138672
			c5.1005859,1.2099609,9.9335938,0.265625,14.4980469-2.8359375c4.5634766-3.1005859,7.5136719-7.4707031,8.8505859-13.1083984
			c0.6533203-2.7519531,0.7861328-5.4863281,0.4033203-8.2011719c-0.3847656-2.7128906-1.1845703-5.171875-2.3994141-7.375
			c-1.2148438-2.2021484-2.8525391-4.1142578-4.9130859-5.7382813c-2.0615234-1.6220703-4.3339844-2.7294922-6.8164063-3.3183594
			c-1.2089844-0.2871094-2.375-0.4570313-3.4951172-0.5097656L723.0771484,2504.4338379z"/>
		<path style="fill:#1C1C1A;" d="M755.8193359,2540.8068848l15.6064453,3.7011719l1.0039063,2.0458984l-20.4394531-4.8476563
			l16.5009766-69.5742188l20.4394531,4.8466797l-1.8164063,1.3769531l-15.6064453-3.7011719l-5.6826172,23.9638672
			l13.5927734,3.2236328l-1.6132813,1.4257813l-12.3857422-2.9375L755.8193359,2540.8068848z"/>
		<path style="fill:#1C1C1A;" d="M823.0576172,2494.9631348c3.4648438,5.7138672,5.2919922,11.8369141,5.4794922,18.3691406
			c0.1884766,6.5322266-1.2724609,12.6914063-4.3818359,18.4755859c-3.109375,5.7871094-7.4873047,10.4199219-13.1328125,13.9013672
			c-4.8183594,2.9707031-9.9541016,4.7490234-15.4091797,5.3330078c-5.4570313,0.5839844-10.7392578-0.0126953-15.8476563-1.7910156
			c-1.1767578-0.4228516-2.2792969-0.859375-3.3037109-1.3154297l16.7148438-70.4814453
			c1.1201172,0.0527344,2.2939453,0.1904297,3.5195313,0.4091797c5.3623047,0.7050781,10.3496094,2.5439453,14.9628906,5.515625
			C816.2714844,2486.3527832,820.0703125,2490.2131348,823.0576172,2494.9631348z M783.546875,2548.5529785
			c5.8398438,1.3847656,11.6230469,1.1435547,17.3486328-0.7246094c5.7226563-1.8691406,10.6503906-5.078125,14.7792969-9.6298828
			c4.1269531-4.5517578,6.9326172-9.9482422,8.4130859-16.1904297c1.0986328-4.6328125,1.2890625-9.2480469,0.5712891-13.8496094
			c-0.7158203-4.5996094-2.1572266-8.7705078-4.3173828-12.5097656c-2.1630859-3.7382813-5.0419922-6.9921875-8.6396484-9.7597656
			s-7.5791016-4.6689453-11.9414063-5.703125c-1.1416016-0.2714844-2.2988281-0.4746094-3.4707031-0.6103516l-16.1181641,67.9638672
			C781.2119141,2547.9289551,782.3388672,2548.2658691,783.546875,2548.5529785z"/>
		<path style="fill:#1C1C1A;" d="M873.6191406,2527.0549316c3.6298828,2.6337891,6.2529297,6.0742188,7.8681641,10.3203125
			c1.6152344,4.2480469,1.8828125,8.6542969,0.8007813,13.2177734c-1.4326172,6.0419922-4.8085938,10.7011719-10.1220703,13.9775391
			c-5.3144531,3.2773438-10.9912109,4.1992188-17.0322266,2.7666016c-2.3515625-0.5576172-4.5458984-1.4677734-6.5859375-2.7314453
			l16.3574219-68.9707031c0.4667969-0.171875,0.9501953-0.2695313,1.453125-0.2929688
			c1.9863281-0.3085938,3.9199219-0.2412109,5.8007813,0.2050781c4.0927734,0.9707031,7.2246094,3.2382813,9.3935547,6.8007813
			c2.1679688,3.5644531,2.7666016,7.3935547,1.7958984,11.4873047c-0.6523438,2.7529297-1.9628906,5.1357422-3.9296875,7.1503906
			c-1.9667969,2.0166016-4.3017578,3.3408203-7.0048828,3.9755859c-0.5341797,0.1572266-1.0595703,0.2792969-1.5761719,0.3701172
			C871.7822266,2525.8391113,872.7080078,2526.4133301,873.6191406,2527.0549316z M855.5390625,2565.6262207
			c5.1005859,1.2099609,9.9335938,0.265625,14.4980469-2.8369141c4.5634766-3.0996094,7.5097656-7.453125,8.8388672-13.0585938
			c1.3291016-5.6035156,0.6523438-10.8164063-2.0332031-15.6367188c-2.6865234-4.8203125-6.5800781-7.8359375-11.6806641-9.0449219
			l-3.4238281-0.8125l-9.5273438,40.1748047C853.2197266,2564.9348145,854.3300781,2565.3391113,855.5390625,2565.6262207z
			 M868.1855469,2497.0510254l-6.0410156,25.4746094l3.4238281,0.8115234
			c3.0859375,0.7324219,6.0419922,0.0869141,8.8613281-1.9404297c2.8193359-2.0244141,4.6552734-4.8320313,5.5068359-8.4238281
			c0.8515625-3.5908203,0.4726563-6.9238281-1.1367188-10.0009766c-1.6103516-3.0751953-3.9609375-4.9814453-7.046875-5.7128906
			C870.5439453,2496.9719238,869.3535156,2496.9025879,868.1855469,2497.0510254z"/>
		<path style="fill:#1C1C1A;" d="M925.0595703,2509.263916l1.6103516,0.3818359l-13.3720703,56.3847656
			c-0.9394531,3.9609375-3.1484375,7-6.6289063,9.1162109c-3.4804688,2.1171875-7.1679688,2.7128906-11.0605469,1.7900391
			c-2.5507813-0.6054688-4.78125-1.8085938-6.6943359-3.6083984s-3.2607422-3.9628906-4.0439453-6.4892578
			c-0.7851563-2.5253906-0.8662109-5.0976563-0.2451172-7.7158203l13.3486328-56.2832031l3.4238281,0.8115234
			l-13.3486328,56.2841797c-0.828125,3.4912109-0.3779297,6.7539063,1.3486328,9.7851563
			c1.7265625,3.0332031,4.2011719,4.9316406,7.4228516,5.6953125c3.2880859,0.7792969,6.3642578,0.2167969,9.2294922-1.6933594
			c2.8613281-1.9082031,4.7412109-4.5996094,5.6376953-8.0742188L925.0595703,2509.263916z"/>
		<path style="fill:#1C1C1A;" d="M933.7314453,2583.0002441l1.0039063,2.0458984l-20.4394531-4.8476563l16.5009766-69.5742188
			l3.4228516,0.8115234L918.125,2579.2990723L933.7314453,2583.0002441z"/>
		<path style="fill:#1C1C1A;" d="M958.2978516,2588.826416l1.0039063,2.0458984l-20.4394531-4.8476563l16.5009766-69.5742188
			l3.4238281,0.8115234l-16.0947266,67.8632813L958.2978516,2588.826416z"/>
	</g>
	<g>
		<path style="fill:#1C1C1A;" d="M584.2573242,2541.0666504l-15.6064453-3.7011719l-5.6826172,23.9648438l13.5927734,3.2226563
			l-1.6142578,1.4257813l-12.3847656-2.9375l-10.0058594,42.1884766l-3.4238281-0.8115234l16.5009766-69.5751953
			l20.4404297,4.8476563L584.2573242,2541.0666504z"/>
		<path style="fill:#1C1C1A;" d="M597.1088867,2541.1369629l2.1650391,75.171875l-3.4238281-0.8115234l-0.7626953-27.7255859
			l-20.5390625-4.8710938l-13.1328125,24.4296875l-1.8125-0.4296875l34.1708984-63.3632813L597.1088867,2541.1369629z
			 M575.4575195,2581.3088379l19.5332031,4.6318359l-1.0996094-38.8662109L575.4575195,2581.3088379z"/>
		<path style="fill:#1C1C1A;" d="M646.8862305,2554.1135254l1.6103516,0.3808594l-16.5009766,69.5751953l-1.1074219-0.2626953
			l-0.2158203-1.3271484l-11.4990234-64.5166016l-14.1611328,59.7070313l-1.7119141-0.40625l16.5009766-69.5742188
			l1.1074219,0.2626953l0.3173828,1.3505859l11.5,64.5175781L646.8862305,2554.1135254z"/>
		<path style="fill:#1C1C1A;" d="M654.1352539,2555.8322754l27.1855469,6.4472656l-1.8154297,1.3769531l-11.1757813-2.6503906
			l-16.0947266,67.8632813l-3.4238281-0.8125l16.0947266-67.8632813l-12.6875-3.0087891L654.1352539,2555.8322754z"/>
		<path style="fill:#1C1C1A;" d="M696.3847656,2564.6809082l2.1650391,75.1728516l-3.4238281-0.8125l-0.7607422-27.7246094
			l-20.5415039-4.8720703l-13.1328125,24.4306641l-1.8125-0.4296875l34.1713867-63.3642578L696.3847656,2564.6809082z
			 M674.7329102,2604.8527832l19.5336914,4.6318359l-1.0996094-38.8652344L674.7329102,2604.8527832z"/>
	</g>
	<g>
		<path style="fill:#1C1C1A;" d="M659.6206055,2702.6027832c0.7441406,3.4384766,0.6230469,7.2382813-0.3632813,11.3994141
			c-1.0068359,3.9453125-3.25,6.9765625-6.7294922,9.0927734c-3.4794922,2.1171875-7.1669922,2.7128906-11.0595703,1.7900391
			c-2.5507813-0.6054688-4.7705078-1.7871094-6.65625-3.5458984c-1.8886719-1.7587891-3.2226563-3.8300781-4.0039063-6.2138672
			c-0.46875-1.3164063-0.7177734-2.6513672-0.7519531-4.0068359l3.7080078-2.6298828
			c-0.5380859,2.5673828-0.3828125,5.0498047,0.4667969,7.4482422c1.3359375,3.9326172,3.8828125,6.3447266,7.6425781,7.2373047
			c3.0214844,0.7158203,5.8789063,0.1005859,8.5761719-1.8486328c2.6943359-1.9482422,4.4892578-4.6601563,5.3847656-8.1347656
			c0.015625-0.0664063,0.0634766-0.2675781,0.1425781-0.6044922c0.0800781-0.3349609,0.1513672-0.6367188,0.2158203-0.90625
			c0.0625-0.2675781,0.1425781-0.6035156,0.2382813-1.0068359c0.0957031-0.4023438,0.1601563-0.8291016,0.1982422-1.2822266
			c0.0341797-0.4521484,0.0664063-0.9580078,0.0947266-1.5195313c0.0263672-0.5605469,0.0107422-1.1669922-0.046875-1.8193359
			c-0.0585938-0.6523438-0.1171875-1.3037109-0.1748047-1.9560547c-0.4326172-2.3701172-1.1513672-4.5615234-2.1630859-6.5742188
			c-1.0117188-2.0117188-2.1679688-3.7929688-3.4658203-5.3417969c-1.2998047-1.5478516-2.5898438-3.0605469-3.8710938-4.5341797
			s-2.5078125-3.2539063-3.6787109-5.3388672c-1.171875-2.0859375-1.9970703-4.3554688-2.4794922-6.8095703
			c-0.8125-3.453125-0.6904297-7.2529297,0.3642578-11.4003906c1.0048828-3.9433594,3.2490234-6.9736328,6.7294922-9.0917969
			c3.4794922-2.1162109,7.1660156-2.7148438,11.0595703-1.7910156c2.5507813,0.6044922,4.7519531,1.7832031,6.6074219,3.5341797
			c1.8525391,1.7519531,3.2021484,3.828125,4.0527344,6.2265625c0.3994141,1.3007813,0.6503906,2.6367188,0.7509766,4.0058594
			l-3.7080078,2.6308594c0.5371094-2.5664063,0.3808594-5.0488281-0.4667969-7.4492188
			c-1.4033203-3.9482422-3.9521484-6.3613281-7.6425781-7.2363281c-3.0205078-0.7167969-5.8964844-0.1035156-8.6240234,1.8359375
			c-2.7314453,1.9414063-4.5078125,4.6582031-5.3349609,8.1464844c-0.0166016,0.0683594-0.0898438,0.2988281-0.21875,0.6933594
			s-0.2285156,0.7431641-0.2998047,1.0449219c-0.0722656,0.3027344-0.1425781,0.7480469-0.2099609,1.3339844
			c-0.0693359,0.5859375-0.1152344,1.1601563-0.1425781,1.7207031c-0.0263672,0.5615234-0.0224609,1.2177734,0.0117188,1.9707031
			c0.0341797,0.7519531,0.0957031,1.5292969,0.1914063,2.3320313c0.375,2.0029297,0.953125,3.8945313,1.7382813,5.6757813
			c0.78125,1.78125,1.6621094,3.3027344,2.6396484,4.5615234c0.9775391,1.2607422,2.0302734,2.5732422,3.1611328,3.9394531
			c1.1279297,1.3681641,2.1962891,2.6845703,3.2089844,3.9521484c1.0117188,1.2675781,1.9746094,2.8076172,2.8925781,4.6210938
			C658.5209961,2698.5666504,659.1938477,2700.5168457,659.6206055,2702.6027832z"/>
		<path style="fill:#1C1C1A;" d="M697.7441406,2669.2092285c3.2753906,5.3154297,4.1953125,11.0117188,2.7548828,17.0859375
			c-1.4404297,6.0751953-4.8203125,10.7509766-10.1337891,14.0273438
			c-5.3144531,3.2773438-10.9926758,4.1992188-17.0336914,2.7666016c-1.1425781-0.2705078-2.2597656-0.6416016-3.3515625-1.1142578
			l-6.4003906,26.984375l-3.4238281-0.8125l16.5009766-69.5742188c2.3896484-0.2128906,4.7587891-0.0419922,7.1108398,0.515625
			C689.8085938,2660.520752,694.4667969,2663.895752,697.7441406,2669.2092285z M688.2363281,2698.5412598
			c4.5634766-3.0996094,7.5097656-7.453125,8.8388672-13.0585938c1.3291016-5.6035156,0.6513672-10.8164063-2.0341797-15.6376953
			c-2.6855469-4.8193359-6.5791016-7.8349609-11.6796875-9.0449219c-1.2094727-0.2861328-2.3754883-0.4560547-3.4956055-0.5097656
			l-9.4560547,39.8720703c1.0078125,0.5234375,2.1191406,0.9277344,3.328125,1.2148438
			C678.8383789,2702.5861816,683.671875,2701.6428223,688.2363281,2698.5412598z"/>
		<path style="fill:#1C1C1A;" d="M709.4804688,2666.3566895c2.3222656-0.2285156,4.6933594-0.0576172,7.109375,0.515625
			c6.0419922,1.4326172,10.7001953,4.8076172,13.9775391,10.1220703c3.2763672,5.3144531,4.1992188,10.9921875,2.7666016,17.0341797
			c-1.0820313,4.5654297-3.3378906,8.390625-6.7626953,11.4765625c-3.4277344,3.0878906-7.3535156,4.9931641-11.7783203,5.7148438
			l13.2265625,33.0214844l-3.3232422-0.7880859l-12.9375-31.9951172c-1.8583984,0.0556641-3.7255859-0.1396484-5.6044922-0.5849609
			c-1.1416016-0.2705078-2.2587891-0.6425781-3.3505859-1.1142578l-6.4003906,26.984375l-3.4238281-0.8115234
			L709.4804688,2666.3566895z M703.2333984,2707.9475098c1.0078125,0.5234375,2.1191406,0.9277344,3.3271484,1.2138672
			c5.1005859,1.2099609,9.9335938,0.265625,14.4980469-2.8359375c4.5644531-3.1005859,7.5146484-7.4707031,8.8515625-13.1083984
			c0.6523438-2.7519531,0.7861328-5.4853516,0.4042969-8.2001953c-0.3867188-2.7138672-1.1865234-5.1728516-2.4003906-7.3759766
			c-1.2148438-2.2021484-2.8525391-4.1142578-4.9130859-5.7382813c-2.0615234-1.6210938-4.3339844-2.7294922-6.8173828-3.3183594
			c-1.2080078-0.2871094-2.3740234-0.4570313-3.4941406-0.5097656L703.2333984,2707.9475098z"/>
		<path style="fill:#1C1C1A;" d="M732.1464844,2745.2209473l16.5009766-69.5751953l3.4238281,0.8115234l-16.5009766,69.5751953
			L732.1464844,2745.2209473z"/>
		<path style="fill:#1C1C1A;" d="M757.6083984,2677.770752l27.1855469,6.4472656l-1.8154297,1.3769531l-11.1767578-2.6503906
			l-16.0947266,67.8632813l-3.4238281-0.8115234l16.0947266-67.8642578l-12.6865234-3.0087891L757.6083984,2677.770752z"/>
		<path style="fill:#1C1C1A;" d="M776.2490234,2753.8713379l15.6064453,3.7011719l1.0039063,2.046875l-20.4404297-4.8476563
			l16.5009766-69.5751953l20.4404297,4.8476563l-1.8164063,1.3769531l-15.6064453-3.7011719l-5.6826172,23.9638672
			l13.5927734,3.2236328l-1.6142578,1.4248047l-12.3847656-2.9365234L776.2490234,2753.8713379z"/>
	</g>
	<g>
		<path style="fill:#1C1C1A;" d="M809.5383911,210.0281372c-1.0097656,2.4784698,0.0805664,4.3291626,1.8427124,5.3019867
			c1.3933105,1.4570618,3.4664917,2.0384369,5.6115112,0.428421c11.3339233-8.5089722,22.6511841-21.4449615,21.2072144-36.6868744
			c-1.4483643-15.2919312-41.4082031-48.6101532-13.7696533-59.3641586c5.055542-1.9673996,4.7568359-9.9892273-1.3490601-9.9674835
			c-19.187561,0.0666962-38.9297485,6.6126099-40.1113281,28.5758743
			C781.3982544,167.5405579,822.595459,177.984314,809.5383911,210.0281372z M802.7105713,159.0685577
			c-13.640686-15.9827576-9.8936157-29.5755157,3.1286011-35.6966324c-2.109436,4.792366-2.4407349,10.5365372-0.5023193,17.4673843
			c2.0333252,7.2700958,6.6154785,13.7536774,11.0946655,19.6580505
			c9.8442993,12.9751282,12.9142456,24.8027191,5.7840576,35.8807678
			c-0.1174316-6.7329407-1.7114868-13.4514008-4.8328857-19.2107849
			C813.5101929,170.0219269,807.9124146,165.1643219,802.7105713,159.0685577z"/>
		<path style="fill:#1C1C1A;" d="M874.5292969,207.5503998c-1.0097046,2.4784698,0.0804443,4.3298798,1.8434448,5.3027039
			c1.3932495,1.457077,3.4657593,2.0384521,5.6107788,0.4277039c13.4238281-10.0783997,26.9223633-25.4682007,25.1688232-43.5314484
			c-1.8637695-19.1933899-51.65625-59.0669479-15.8979492-72.9801025c5.055481-1.9674072,4.7568359-9.9892349-1.3490601-9.9674911
			c-22.8389893,0.0804672-45.8693237,7.5752945-47.5350342,33.5559921
			C840.0925293,155.8739014,890.6099243,168.0878754,874.5292969,207.5503998z M864.4573975,146.2674103
			c-17.9248047-20.9621582-11.7426758-38.9427719,6.6706543-46.0417938
			c-3.5599976,6.0225296-4.3059692,13.5557785-1.6896973,22.9041901c2.413147,8.6249542,7.859375,16.3401489,13.1685791,23.3485565
			c13.0548706,17.2332306,16.4452515,32.9463348,5.1758423,47.5430908
			c0.4110107-9.0468597-1.5092773-18.2618866-5.7122803-26.0379639
			C877.4303589,159.3991241,870.7133789,153.5831909,864.4573975,146.2674103z"/>
		<path style="fill:#1C1C1A;" d="M1031.1870117,263.8590698c-11.640625-8.2994537-24.1895142-9.277359-35.5480957-3.5187073
			c-0.0789795-14.9947052-4.9880981-26.4555054-18.2408447-29.613205c-0.24646-0.0587158-0.447998,0.002182-0.6828613-0.0231934
			c-0.2341309-0.036972-0.4124756-0.1493225-0.6661987-0.1580353c-82.1139526-2.723465-167.4080811-6.8112335-249.3545532,0.2783661
			c-27.5863647,2.3863983-24.9490967,19.2332611-22.9367676,43.9895782
			c2.1203003,26.0735168,7.2650146,52.2397766,18.3416138,76.07547
			c7.0083618,15.082428,16.2575073,27.9720154,27.2391357,38.6941528
			c-24.027832,2.3820496-66.9075928,10.9497375-66.3327026,34.6955261
			c0.43573,17.9668579,32.578125,24.2539673,45.4879761,26.2597961c5.1627808,0.8017578,10.3726807,1.4215393,15.6029053,1.9630432
			c14.5967407,33.2653198,69.5084839,27.0977783,98.7440186,27.5167847
			c25.8734131,0.3711548,54.53125,1.4266357,79.9856567-3.9369812
			c15.5789795-3.2831116,22.9933472-14.0798645,32.0859375-26.2322388c19.37677-2.158783,50.1671753-6.1921692,57.625-21.5362854
			c11.2368164-23.1173096-49.3763428-33.1464233-75.2954102-35.9409485
			c2.4515991-2.3312988,4.8300171-4.7771301,7.1425171-7.3222656c0.545105,0.180481,1.1228638,0.3225708,1.8145142,0.2943115
			c40.1801147-1.6528015,96.1560059-27.8879395,100.9361572-73.098999
			C1048.9211426,295.3577881,1045.769165,274.2549744,1031.1870117,263.8590698z M988.9234009,301.372345
			c3.7753296-1.5179749,9.6832886-3.8587036,13.8341064-2.3813171c5.4360962,1.9354858,7.4658203,7.6412354,6.5234375,12.8178101
			c-1.291748,7.0924988-7.6832886,14.1487427-13.3404541,18.2009888
			c-6.1559448,4.4096069-15.2722778,9.3636475-23.4587402,11.1157532
			c5.3063354-11.3622131,11.081665-25.3659973,15.5499878-39.5930481
			C988.333313,301.4694824,988.6022339,301.5013733,988.9234009,301.372345z M898.4867554,468.3788147
			c-15.4230957,1.1286621-30.8991699,1.5933228-46.3614502,1.5686951
			c-22.6432495-0.03479-79.4274292,5.4092712-95.9524536-16.3764038c25.4986572,1.8354797,51.4619141,1.4563293,76.7075806,1.929718
			c35.8075562,0.6719666,71.692688,0.2805176,107.286377-3.960907
			C928.9677734,463.0325928,916.9023438,467.0304871,898.4867554,468.3788147z M927.7136841,401.6966858
			c16.8967896,0.8307495,33.5421143,4.2936401,49.6727905,9.3310242c5.2758789,1.6477051,18.0321045,4.1058655,21.3789673,8.3059998
			c7.3723145,9.2534485-21.666748,15.7928467-27.8429565,17.1933594
			c-43.2248535,9.8051147-89.2651978,9.6340332-133.3417358,8.9047852
			c-20.8331299-0.3443298-41.677063-0.9213562-62.4986572-1.7267456
			c-20.3061523-0.7850647-53.2525024,1.6455383-71.0700073-10.712677
			c-23.9422607-16.6062012,11.6101685-25.614624,24.6998901-28.9687805
			c9.9978638-2.5618286,20.3879395-4.6473694,30.713562-5.0228882c0.2029419-0.0072327,0.3428345-0.1022034,0.5327759-0.1282959
			c20.9534912,16.2930298,46.8413696,25.8414917,75.3925781,28.2460327
			c34.8608398,2.9365845,65.9979248-6.329895,91.2282104-25.7088623
			C926.9539185,401.5111084,927.2815552,401.6756897,927.7136841,401.6966858z M928.9307251,386.9078369
			c-44.2788086,42.0664063-122.3470459,40.8326416-167.8516235,0.6546021
			c-20.0836182-17.7326965-32.3737183-42.0736389-39.4488525-67.5947571
			c-4.0899048-14.7533264-6.4719849-29.9060669-7.7231445-45.1538086
			c-0.4190063-5.1033325-2.3174438-15.4289246-1.0053711-20.3909149
			c4.571167-17.2818146,21.9957886-13.6985931,34.1858521-14.0008698
			c75.9609375-1.8847656,152.0197144-2.2450409,227.9698486,0.248642
			c21.109314,5.8217316,0.5704346,64.5747833-3.7282715,76.8779449
			C962.3852539,343.1473389,948.7446289,368.0848999,928.9307251,386.9078369z M1019.2832642,343.6859436
			c-17.6558838,17.7957764-41.5792847,28.40625-66.338501,30.925293c2.9764404-3.9449463,5.8536377-8.0276184,8.5299683-12.3705444
			c1.5419922-2.5023804,3.5201416-6.0566101,5.7275391-10.3357544c0.1195679,0.0036316,0.2014771,0.0601807,0.3261719,0.0565491
			c18.4329834-0.5719604,41.2320557-14.7714539,49.2415771-31.3066101
			c3.8013916-7.8485718,4.0304565-17.3861694-1.3817139-24.6171265c-5.9144897-7.9029541-15.3521118-8.4350281-24.045166-6.1167908
			c1.4890137-5.8282471,2.6625977-11.5644531,3.4077759-17.0570679
			c19.3796997-16.3662415,39.7199097,3.6680298,41.9069214,23.746521
			C1038.7723389,316.0307007,1032.6802979,330.1838074,1019.2832642,343.6859436z"/>
		<path style="fill:#1C1C1A;" d="M735.4318848,267.4916077c-0.519104-6.4661865-10.6721802-6.5212708-10.1487427,0
			c2.0862427,25.9850464,9.9747314,50.223053,23.8617554,72.3066406c3.4686279,5.5158386,12.2531738,0.4277039,8.7633667-5.1221924
			C744.9846191,314.1242065,737.376709,291.7180176,735.4318848,267.4916077z"/>
		<path style="fill:#1C1C1A;" d="M763.6923218,351.5736694c-6.5299683,0-6.5408325,10.1487122,0,10.1487122
			C770.2230225,361.7223816,770.2338867,351.5736694,763.6923218,351.5736694z"/>
	</g>
	<g>
		<path style="fill:#1C1C1A;" d="M479.7461243,825.0088501c-23.3362427-42.9119873-89.1907654-68.6519165-136.1319275-66.4190063
			c-20.6668701-1.2484741-45.3069153,15.5576782-56.6049194,32.3798828
			c-13.4107971,19.9665527-5.1186523,44.5129395,4.254303,64.4750977
			c22.2155762,47.3157959,77.1136475,87.5205688,131.5983887,72.6368408
			C466.9838867,916.0294189,503.769928,869.1873169,479.7461243,825.0088501z M342.9667969,767.9726563
			c34.9520874-1.6622925,73.2530823,12.817627,101.3665771,32.9198608
			c18.3521423,13.1223145,35.2580566,32.6478271,34.5561218,56.7094727
			c-0.4468384,15.3394775-9.0935059,27.4342041-19.909729,37.3139648
			c-26.6821899,16.4620361-73.5711975,1.4985962-97.9213257-14.6589966
			c-26.5271301-17.6027832-64.9259033-41.2402344-68.8331604-75.2919922
			C299.5908508,784.7540894,322.2741089,766.7219849,342.9667969,767.9726563z M322.0431519,884.5855103
			c-13.0117493-14.4349976-24.3708801-32.6828613-29.7215271-51.8406372
			c15.5076294,25.4596558,46.4199829,45.8398438,69.3468018,59.0753174
			c18.9877014,10.9603882,49.1383972,21.1912842,74.9507141,19.3751221
			C398.1265564,931.8971558,350.9382324,916.6427612,322.0431519,884.5855103z"/>
		<path style="fill:#1C1C1A;" d="M313.6224365,786.3220215c0.0022583,0.0213623,0.0069885,0.0430298,0.010498,0.0652466
			c0.0166931,0.9729614,0.3822327,1.9709473,1.3946838,2.8613281c0,0,0.0089111,0.0075684,0.0131836,0.0114746
			c11.365509,17.4755859,25.4901123,30.3156738,44.5005493,39.3840332
			c31.3013916,14.9326782,63.0113525,21.569458,82.5013123,53.4213257
			c3.2084656,5.2435913,10.4076843,1.4918823,8.4256897-4.1750488c-8.3638-23.9133911-20.2585144-45.0906982-44.5714111-55.0374756
			c-30.5159912-12.4838867-58.0118408-17.1346436-83.8545227-39.8703003
			c-0.2108765-0.1848755-0.447052-0.2440186-0.6673279-0.3859863c-0.0593262-0.0410767-0.1211243-0.0673828-0.1819458-0.1054688
			c-0.4673157-0.2729492-0.9327393-0.4920654-1.4204102-0.5944824c-0.2214966-0.0536499-0.440155-0.0562744-0.6651306-0.0789795
			c-0.3114319-0.0203247-0.6152649-0.0616455-0.9208984-0.0249023c-2.2645569,0.1663818-4.2822876,1.7096558-4.4812317,3.819458
			C313.6559143,785.8496704,313.622345,786.0784302,313.6224365,786.3220215z M374.4363403,822.7176514
			c12.3267822,3.6704712,26.58255,6.4473877,37.6376038,13.3513794c7.374939,4.6055298,13.000061,11.1665649,17.5619507,18.5197754
			c-19.9534302-15.8850098-44.9851685-23.9876099-67.301239-36.0782471
			C366.2602539,820.0397949,370.2612915,821.4746704,374.4363403,822.7176514z"/>
		<path style="fill:#1C1C1A;" d="M456.8693237,839.8168945c2.1436462,5.6542358,10.5547485,1.4406738,8.4256897-4.1751099
			c-3.9269104-10.3574219-10.6899414-18.9077759-19.6275635-25.4052734
			c-4.8966675-3.5599976-10.0626221,4.2994995-5.1677856,7.8574219
			C448.1646118,823.6674194,453.5184631,830.9805298,456.8693237,839.8168945z"/>
		<path style="fill:#1C1C1A;" d="M461.6656189,850.2390137c-0.0896606,0.0444336-0.1793518,0.0888672-0.2690125,0.1333008
			c-5.4213257,2.6864014-1.2553101,11.1165161,4.1750488,8.4257202c0.0896912-0.0444336,0.1793518-0.0888672,0.269043-0.1333008
			C471.2620239,855.9783325,467.0959778,847.5482178,461.6656189,850.2390137z"/>
		<path style="fill:#1C1C1A;" d="M611.031189,790.3275146c-20.1954346-1.1972046-48.5606079,8.2758179-60.0517578,25.425415
			c-30.2077026,35.9949341-49.6188354,104.0003662-29.6112671,148.5482788
			c20.574646,45.8118286,80.1949463,44.9849243,116.4677734,17.1740723
			c44.9061279-34.430603,45.9900513-102.274231,21.9187622-148.7072144
			C649.6278687,813.2327271,634.9840088,791.7475586,611.031189,790.3275146z M547.819458,983.3620605
			c-19.3973999-13.8929443-24.9822998-39.4052124-24.1900635-61.8460083
			c1.2242432-34.6560669,12.5980225-73.6539917,35.2078247-100.5947876
			c11.543457-17.2271729,39.4917603-24.4915161,60.0883179-18.0509033
			c24.7769165,23.6738281,20.3614502,68.6950684,18.2939453,100.4602051
			c-1.9024658,29.2329102-18.331604,75.5587769-47.6929321,86.8110962
			C575.1289063,992.7677612,560.3210449,992.3168945,547.819458,983.3620605z M616.0794678,982.1925049
			c17.0716553-19.4343262,27.1212158-49.6060791,29.9710693-71.3723145
			c3.4301758-26.201416,5.8491211-63.2387695-5.0336304-91.0087891
			c11.9624023,15.8042603,19.8839722,36.2217407,23.2801514,55.0976563
			C671.9414673,917.4026489,656.0346069,964.0641479,616.0794678,982.1925049z"/>
		<path style="fill:#1C1C1A;" d="M580.5179443,969.6136475c-16.7876587-55.1912231,30.5919189-101.8606567,14.6613159-157.8213501
			c-0.0471802-0.1647949-0.1549683-0.2628174-0.213623-0.4158936c-0.1357422-0.4192505-0.3384399-0.7722778-0.5718384-1.1116943
			c-0.0926514-0.1294556-0.1665649-0.274231-0.269165-0.390564c-0.3608398-0.4179077-0.7801514-0.7498169-1.2562256-1.0146484
			c-0.0314331-0.0166626-0.0574951-0.0404663-0.0889893-0.0571289c-1.8753052-0.9904785-4.2878418-0.7897949-5.7196655,0.6955566
			c-0.800354,0.7114258-1.2496948,1.7092285-1.1974487,2.9674072c-0.7701416,30.3381958-15.402771,59.0471191-24.5513306,87.5895996
			c-8.5418701,26.6488647-3.1948242,48.5767212,10.37677,72.5391846
			C574.1407471,976.9257202,582.1459961,974.9656982,580.5179443,969.6136475z M567.6104736,911.5350342
			c2.210144-9.427063,6.3093262-18.4229126,9.0352783-27.6954956c3.5813599-12.1859131,8.1287231-23.5799561,11.8389282-35.1880493
			c-3.3143311,30.6663818-18.5950928,59.6680298-20.6445313,90.5846558
			C565.7647095,930.4229736,565.3252563,921.2855835,567.6104736,911.5350342z"/>
		<path style="fill:#1C1C1A;" d="M611.8236694,931.0903931c-1.7199097,13.1832886-8.9454956,24.3609619-16.6876221,34.8366089
			c-3.5986328,4.8685913,4.2630615,10.03125,7.8577271,5.168335c8.7741699-11.8707886,16.272583-24.4857178,18.2127075-39.3575439
			C621.9916992,925.7207031,612.6039429,925.1132202,611.8236694,931.0903931z"/>
		<path style="fill:#1C1C1A;" d="M616.0668335,912.8967896c-5.4213867,2.6864014-1.2553711,11.1165771,4.1750488,8.4257202
			C625.6637573,918.6358643,621.4971313,910.2059937,616.0668335,912.8967896z"/>
		<path style="fill:#1C1C1A;" d="M446.2509766,1013.5819702c-5.421936,2.6866455-1.2553101,11.1165161,4.1750488,8.4257202
			C455.8473511,1019.3212891,451.6813354,1010.8911133,446.2509766,1013.5819702z"/>
		<path style="fill:#1C1C1A;" d="M427.9913025,979.7426758c-0.127655-0.2576294-0.2555847-0.5158081-0.3832092-0.7733765
			c-2.6863708-5.4213257-11.1165161-1.2553101-8.4256897,4.1750488c0.1276245,0.2575684,0.2555542,0.5158081,0.3832092,0.7733765
			C422.2519836,989.3390503,430.6821289,985.1729736,427.9913025,979.7426758z"/>
		<path style="fill:#1C1C1A;" d="M464.2494507,943.0509644c-5.4212646,2.6862793-1.2553101,11.1165161,4.1750488,8.4256592
			C473.8464355,948.789978,469.6798096,940.3601074,464.2494507,943.0509644z"/>
		<path style="fill:#1C1C1A;" d="M472.7790833,990.281189c0.127655,0.2575684,0.2552795,0.5151367,0.3829346,0.7727051
			c2.6863403,5.4213257,11.1159058,1.2556152,8.4250793-4.1747437c-0.127655-0.2575684-0.2552795-0.5151978-0.3829041-0.7727661
			C478.5175171,980.6844482,470.0879517,984.8502197,472.7790833,990.281189z"/>
		<path style="fill:#1C1C1A;" d="M448.3041382,978.869751c-5.4213257,2.6863403-1.2549744,11.1171265,4.1753845,8.4262695
			C457.9008484,984.6096802,453.7344971,976.178894,448.3041382,978.869751z"/>
		<path style="fill:#1C1C1A;" d="M438.0323792,938.7132568c-0.256958,0.1273193-0.5145569,0.2549438-0.7727356,0.3828735
			c-5.4213257,2.6864014-1.2552795,11.1165771,4.1750488,8.4257202c0.2582092-0.1279297,0.5157776-0.2555542,0.7727661-0.3829346
			C447.6294556,944.4522705,443.4633484,936.0220947,438.0323792,938.7132568z"/>
		<path style="fill:#1C1C1A;" d="M486.2258301,946.6016846c-5.421936,2.6867065-1.2552795,11.1165771,4.1750488,8.4257202
			C495.8222351,952.3410645,491.656189,943.9108887,486.2258301,946.6016846z"/>
		<path style="fill:#1C1C1A;" d="M506.5102539,991.4239502c-5.4213257,2.6863403-1.2552795,11.1165161,4.1750793,8.4257202
			C516.1072388,997.1629639,511.9406128,988.7331543,506.5102539,991.4239502z"/>
		<path style="fill:#1C1C1A;" d="M520.1083984,788.8209229c5.4213257-2.6864014,1.2553101-11.1165771-4.1751099-8.4257202
			C510.5119934,783.081604,514.6774292,791.5120239,520.1083984,788.8209229z"/>
		<path style="fill:#1C1C1A;" d="M485.8948364,758.5789795c5.421936-2.6866455,1.2559509-11.1168213-4.1750793-8.4256592
			C476.2984314,752.8396606,480.4644775,761.2698364,485.8948364,758.5789795z"/>
		<path style="fill:#1C1C1A;" d="M510.4982605,734.1517334c5.4219055-2.6866455,1.2558899-11.1168213-4.1750793-8.4256592
			C500.9018555,728.4124146,505.0684814,736.8422852,510.4982605,734.1517334z"/>
		<path style="fill:#1C1C1A;" d="M568.619751,738.5629272c5.4213257-2.6863403,1.2559204-11.1168213-4.1750488-8.4256592
			C559.0233765,732.8236084,563.1893921,741.2537842,568.619751,738.5629272z"/>
		<path style="fill:#1C1C1A;" d="M547.4435425,784.0162964c5.4213257-2.6863403,1.2550049-11.1171265-4.175354-8.4262695
			C537.8463135,778.2766113,542.0125732,786.7074585,547.4435425,784.0162964z"/>
		<path style="fill:#1C1C1A;" d="M537.9892578,757.4484253c0.2356567-0.6999512,0.4715576-1.399292,0.7075195-2.0986938
			c1.9367065-5.741394-6.9723511-8.7501831-8.9099731-3.0060425c-0.2365112,0.699646-0.472168,1.3995972-0.7080688,2.098938
			C527.1420288,760.184021,536.0516357,763.1925659,537.9892578,757.4484253z"/>
		<path style="fill:#1C1C1A;" d="M542.0435791,727.2601929c5.4213257-2.6863403,1.255249-11.1165161-4.1751099-8.4256592
			C532.4471436,721.520874,536.6126099,729.951355,542.0435791,727.2601929z"/>
		<path style="fill:#1C1C1A;" d="M597.9777832,755.4795532c5.421936-2.6866455,1.2558594-11.1168213-4.1750488-8.4256592
			C588.3813477,749.7402344,592.5474243,758.1704102,597.9777832,755.4795532z"/>
		<path style="fill:#1C1C1A;" d="M578.2548218,786.2281494c5.4212646-2.6863403,1.2558594-11.1168213-4.1750488-8.4257202
			C568.6583862,780.4888306,572.8244019,788.9190063,578.2548218,786.2281494z"/>
	</g>
	<g>
		<path style="fill:#1C1C1A;" d="M1085.3623047,1591.2103271c2.7268066-23.8574219,5.2695313-47.9289551,6.3277588-71.9296875
			c1.0185547-23.0786133,3.5563965-52.6099854-8.7580566-73.387207
			c-15.7678223-26.6031494-47.7205811-28.1296387-74.40271-20.2270508c-1.600708-0.697998-3.2184448-1.3502197-4.826355-2.0288086
			c12.734314-11.0528564,34.3922729-25.7103271,12.9175415-39.0352783
			c-10.6825562-6.6290283-25.9655762-9.897583-37.6843262-14.2548828
			c-18.1203003-6.7375488-36.3463745-13.1948242-54.493042-19.8614502
			c-41.4518433-15.2285156-82.6467896-31.1391602-124.0603638-46.4642334
			c-7.5307007-2.7866211-21.0008545-9.1347656-25.8212891,1.7036133
			c-4.6737061,10.5075684,9.2989502,24.8569336,15.0369873,36.3675537c-3.1907349-0.7946777-6.329895-1.4024658-9.3094482-1.5395508
			c-2.3432007-0.107666-4.4403687,1.1721191-5.3170166,3.3640137c-5.9725952,14.9200439-13.274231,30.182251-17.0446777,45.8404541
			c-0.5431519,2.2525635-0.1890259,4.581543,1.8276978,6.0205078c1.7209473,1.2277832,3.645813,2.3074951,5.6489258,3.3276367
			c-30.3560791,29.1639404-57.0673828,61.5915527-82.9776611,94.7205811
			c-15.0181274,19.2016602-45.3146973,53.5831299-26.5976563,79.5617676
			c15.2354126,21.1464844,51.6746216,31.6380615,74.6950684,40.4825439
			c29.9168701,11.4941406,60.7625732,20.3221436,90.6949463,31.7341309
			c27.8862305,10.6331787,55.3401489,22.4671631,83.5118408,32.3431396
			c14.3984375,5.0474854,34.9594116,12.2327881,50.0853271,6.1584473
			c25.1473389-10.0993652,23.418335-54.463501,25.1505737-75.1444092
			c3.6989746-44.1539307,3.2423706-88.4975586,2.7513428-132.7629395c3.1395264,0.7724609,6.2601318,1.3686523,9.3462524,1.7509766
			c0.5640259,0.2026367,1.2009888,0.25354,1.9050903,0.1900635c0.2883911-0.0010986,0.5756836,0.0115967,0.8640137-0.0402832
			c17.7768555-4.5111084,38.5907593-8.4334717,43.0403442,12.4649658c2.0645752,9.6968994,2.7073975,19.7996826,3.4923096,29.663208
			c2.0095215,25.2878418,2.5367432,50.697876,3.015625,76.0526123c0.1650391,8.7492676-3.5721436,30.6446533,0.9837646,38.8569336
			c5.1132813,9.2178955,25.1392822,7.6850586,31.6378174,0.1948242
			C1085.2012939,1625.8831787,1084.0791016,1602.4412842,1085.3623047,1591.2103271z M814.144104,1320.2991943
			c7.8689575,2.9645996,15.7359619,5.9316406,23.604187,8.8959961c25.4824219,9.6008301,50.9682617,19.192627,76.5197144,28.6102295
			c22.6314697,8.3413086,45.37677,16.3745117,67.9515991,24.8664551
			c6.5990601,2.4830322,23.3687744,5.4133301,27.9746094,10.5908203
			c7.6247559,8.5708008-10.9469604,19.9353027-17.0543213,26.0334473
			c-32.2355957-12.7210693-65.576416-22.3675537-97.6724854-35.4616699
			c-22.015686-9.2398682-44.3718872-17.725708-66.6870117-26.2089844
			c-7.9192505-3.0102539-17.3704834-7.7501221-26.8525391-11.4918213
			c-1.3485107-7.6986084-8.071167-13.9907227-8.9078369-20.6523438
			C790.5887451,1306.1221924,806.1378174,1317.2827148,814.144104,1320.2991943z M971.8312988,1571.230835
			c-1.0289917,25.8734131,4.4508057,98.6271973-29.2972412,103.8464355
			c-16.2340088,2.5108643-35.0990601-7.0585938-49.7182617-12.5869141
			c-21.1238403-7.9888916-42.0148926-16.576416-63.0764771-24.7242432
			c-45.5315552-17.6116943-93.5265503-29.3046875-137.1881104-51.6072998
			c-22.6710205-11.5803223-38.1854858-29.8522949-22.9931641-56.6896973
			c8.2136841-14.5101318,19.5491943-27.4211426,29.8689575-40.4367676
			c23.5563354-29.7093506,47.8760376-58.6221924,75.4535522-84.7165527c0.3150635-0.2983398,0.4589844-0.6403809,0.680481-0.9639893
			c8.3864746,2.9221191,17.3764648,5.1055908,24.6373901,7.7176514
			c25.0678711,9.0177002,50.1588135,17.9840088,75.0089722,27.5894775
			c23.317688,9.0134277,46.8531494,17.2834473,70.6146851,25.0582275
			c8.4130249,2.7524414,17.4370728,6.4432373,26.5308228,9.4542236
			C972.7174072,1505.854126,973.1311646,1538.5623779,971.8312988,1571.230835z M917.4979248,1443.2387695
			c-26.7723999-9.300293-53.0505371-19.9359131-79.6810913-29.6329346
			c-22.9174194-8.3447266-45.8892822-16.536499-68.7791138-24.9558105c0,0-0.0084229-0.0007324-0.0147095-0.0030518
			c1.500061-4.2301025,3.0083618-8.4547119,4.5805664-12.6595459c2.1635742-5.7890625,4.4505615-17.677002,8.3812866-24.4451904
			c0.9841309,0.0533447,2.3948975,0.3151855,4.1743164,1.4326172c2.8852539,1.814209,7.296875,2.5770264,10.4564819,3.7193604
			c11.3261719,4.0958252,22.5861816,8.3823242,33.8374023,12.6796875
			c20.5413818,7.8466797,41.117981,15.6820068,61.395752,24.192627
			c28.8058472,11.7519531,58.8363647,20.3591309,87.8912964,31.4837646c3.8356934,1.4689941,17.9864502,4.4375,20.487793,8.2485352
			c1.6918335,2.5762939-0.7527466,8.8890381-2.7022095,14.9215088c-1.5963745,4.9404297-2.9669189,10.7457275-5.1896973,15.4619141
			c-0.7098389,1.506958-0.8450317,2.432251-0.7907715,3.0822754c-0.5825806-0.1676025-1.3522949-0.3105469-2.5604248-0.3641357
			C966.7879028,1465.4130859,938.2446899,1450.4458008,917.4979248,1443.2387695z M1055.416626,1631.3787842
			c-2.097168-2.3757324-0.3410645-14.0638428-0.3997803-17.3234863c-0.659668-36.4790039-0.631958-73.2894287-4.7055664-109.5905762
			c-1.060791-9.4598389-1.2802734-23.3035889-7.1727295-31.4265137
			c-8.8227539-12.1607666-25.5474243-10.7137451-39.5834961-7.6958008
			c3.8474731-9.6453857,6.1981201-20.5893555,8.9441528-30.0516357
			c23.8727417-6.4562988,53.3223267-4.7796631,64.2166138,21.5217285
			c6.5506592,15.8157959,5.2666016,34.6693115,4.9151611,51.4619141
			c-0.3535156,16.8875732-1.8536377,33.7285156-3.4005127,50.5441895
			c-1.7600098,19.1315918-1.3592529,41.5234375-7.0084229,59.9724121
			C1069.5939941,1624.1081543,1062.4864502,1639.3824463,1055.416626,1631.3787842z"/>
		<path style="fill:#1C1C1A;" d="M876.9230957,1509.2171631c-18.5516357-1.4129639-37.4698486-0.2998047-55.855957-3.6412354
			c-30.4086914-5.5258789-50.2286377-25.0164795-70.3400269-47.1942139c-1.8031006-1.987915-4.1559448-2.0675049-6.06427-1.1866455
			c-0.3711548,0.1380615-0.7095947,0.3762207-1.0599365,0.6115723c-0.1275635,0.0941162-0.2545166,0.1759033-0.3734741,0.2788086
			c-0.2415771,0.1943359-0.5089111,0.2982178-0.7316284,0.5461426
			c-22.6992798,25.2362061-86.1815186,82.6954346-39.5789185,112.5418701
			c29.7883911,19.0771484,69.3575439,25.883667,102.3685913,37.3596191
			c36.246582,12.6015625,74.4501953,35.2911377,112.6522827,40.6628418
			c19.6320801,2.7611084,30.2872314-5.3768311,34.6760864-24.6497803
			c4.9404907-21.6971436,9.2642822-60.4621582-2.5628052-80.8287354
			C935.4658203,1518.5977783,903.6499634,1511.2510986,876.9230957,1509.2171631z"/>
	</g>
	<g>
		<g>
			<g>
				<path style="fill:#1C1C1A;" d="M612.1690674,1843.9486084c2.1300049,3.6456299,2.9523315,8.2723389,2.1515503,12.4085693
					c-1.4388428,7.4315186-6.5099487,13.1959229-11.5800781,18.4647217
					c-45.8624268,47.6514893-103.4278259,83.4064941-166.4719238,103.3991699
					c-5.5411682,1.7562256-10.9870911,3.2687988-16.6870117,2.4874268
					c-5.8791199-0.8068848-11.2451782-3.8913574-16.4033203-9.4295654l-4.6134338-4.7485352
					c-0.0010071-0.0009766-0.0020447-0.0020752-0.0030518-0.0030518
					c-4.3143616-4.4545898-9.2052612-9.5032959-12.0275879-15.7929688
					c-3.3097534-7.3763428-2.9205933-15.3712158,1.0128174-20.8662109
					c4.8427734-6.763916,13.5831299-8.5119629,20.6060791-9.9169922
					c42.0888062-8.4197998,82.6005249-24.8190918,121.7779236-40.6796875
					c18.2354126-7.3814697,38.9029541-15.7480469,53.2889404-30.8446045l0.8560791-0.9022217
					c4.803894-5.0742188,10.7833252-11.3896484,18.678833-10.2702637c3.3886108,0.4813232,6.4536743,2.427002,8.6307373,5.4807129
					C611.663147,1843.1252441,611.925293,1843.5307617,612.1690674,1843.9486084z M402.5249023,1962.684082l4.6533203,4.7905273
					c4.2949219,4.6123047,8.5857239,7.1386719,13.1540222,7.7644043c4.5611572,0.6257324,9.3516846-0.7219238,14.2681885-2.2805176
					c62.1695557-19.7142334,118.9361877-54.9735107,164.1626892-101.9655762
					c4.4976196-4.6717529,8.9850464-9.7325439,10.1381836-15.6844482c0.6051636-3.128418-0.182312-6.8048096-2.0102539-9.3691406
					c-0.9134521-1.2800293-2.5057983-2.87854-4.9103394-3.2185059c-5.0731812-0.7199707-9.5585938,4.017334-13.8964844,8.598999
					l-0.8684082,0.9155273c-15.2072754,15.9578857-36.4605103,24.5620117-55.2131348,32.1523438
					c-39.4138794,15.9558105-80.1694031,32.4554443-122.7671509,40.9765625
					c-6.3870544,1.2770996-13.6260986,2.7250977-17.2000732,7.7174072c-2.752655,3.8453369-2.9349365,9.887207-0.4649048,15.3925781
					C393.9944763,1953.8771973,398.3303528,1958.3543701,402.5249023,1962.684082L402.5249023,1962.684082z"/>
			</g>
			<g>
				<path style="fill:#1C1C1A;" d="M597.6407471,1833.2502441c1.2155151,2.0809326,2.1832886,4.3378906,2.6687012,6.8018799
					c0.2949219,1.4951172-0.6789551,2.946167-2.1740723,3.2410889s-2.9492798-0.6759033-3.2411499-2.1740723
					c-0.8602295-4.3553467-3.9036865-8.1125488-6.9472046-11.5871582
					c-5.1448975-5.8719482-13.9538574-6.9759521-20.4812012-6.0522461c-6.9758911,0.9882813-13.744873,4.0286865-20.291687,6.96875
					c-0.8222656,0.3696289-1.6436157,0.7382813-2.4659424,1.1038818
					c-37.5644836,16.6901855-79.1402283,26.0827637-120.232605,27.1601563l-1.6538696,0.0408936
					c-8.7731018,0.2150879-17.8452148,0.4362793-24.9573059,4.7454834
					c-8.5314026,5.1694336-13.687561,16.5651855-13.1366272,29.0300293
					c0.5212402,11.7735596,5.2687683,22.9737549,9.8596191,33.8041992c0.5950012,1.4039307-0.0603943,3.0240479-1.4633789,3.6190186
					c-1.4039612,0.5949707-3.0229492-0.067627-3.617981-1.4644775c-4.5601196-10.7567139-9.727478-22.9470215-10.2928162-35.7150879
					c-0.6390076-14.451416,5.5596313-27.7939453,15.7909851-33.9946289
					c8.3686523-5.0710449,18.1872559-5.3106689,27.682373-5.5432129l1.6435852-0.0408936
					c40.3765564-1.0578613,81.2272644-10.2867432,118.1363831-26.6859131
					c0.8151245-0.3625488,1.630249-0.7281494,2.4464722-1.0947266c6.8959961-3.0977783,14.0285645-6.302124,21.7796631-7.3988037
					c10.3060913-1.4593506,19.8042603,1.4868164,25.4058228,7.880127
					C594.0196533,1828.0870361,596.0442505,1830.5170898,597.6407471,1833.2502441z"/>
			</g>
			<g>
				<path style="fill:#1C1C1A;" d="M559.6748657,1796.9822998c4.3685913,7.4796143,5.9425659,16.616333,3.4643555,24.9859619
					c-0.4321899,1.4613037-1.9682617,2.2958984-3.4296265,1.862793c-1.4623413-0.432251-2.2958984-1.9682617-1.8627319-3.4296875
					c3.7510986-12.6716309-4.2304077-28.0765381-16.7454224-32.3182373
					c-5.7111816-1.9364014-12.4555664-2.0921631-21.225647-0.4904785
					c-15.9148865,2.9052734-31.0996094,9.8012695-45.7846069,16.4699707
					c-9.869873,4.4812012-20.0756226,9.1160889-30.5547791,12.5917969
					c-16.0838928,5.3343506-32.8312988,8.0019531-49.7764282,7.9293213l-1.6743469-0.0123291
					c-4.1279602-0.0389404-8.0265198-0.0758057-11.6445618,0.9932861c-3.1366882,0.9257813-7.1120911,3.3723145-7.988678,7.2176514
					c-0.6011047,2.638916,0.2806396,5.9046631,2.6113586,9.7049561c4.7444458,7.7254639,12.0357666,13.7275391,20.530304,16.8979492
					c1.4296265,0.5335693,2.153595,2.125,1.6210938,3.5515137c-0.5335388,1.4274902-2.1228638,2.1535645-3.5514221,1.6199951
					c-9.6425476-3.5985107-17.9179688-10.4116211-23.3034668-19.1806641
					c-3.1633301-5.1417236-4.2365417-9.6669922-3.2892761-13.8206787c1.4049988-6.1657715,7.0209351-9.8718262,11.807373-11.2861328
					c4.4085693-1.3005371,8.9072571-1.2585449,13.2584839-1.2175293l1.646698,0.012207
					c16.3460083,0.0706787,32.5005188-2.5037842,48.0150146-7.6486816
					c10.2016602-3.3845215,20.2712097-7.9569092,30.0100098-12.3797607
					c14.9901733-6.8070068,30.4903259-13.8453369,47.0749207-16.8734131
					c9.7316895-1.7767334,17.3547363-1.5566406,23.989624,0.6922607
					C550.0241089,1785.2792969,555.8950195,1790.5112305,559.6748657,1796.9822998z"/>
			</g>
			<g>
				<path style="fill:#1C1C1A;" d="M547.3226318,1782.5809326c0.0266113,0.0440674,0.0512085,0.0900879,0.0747681,0.1362305
					c0.2467651,0.4832764,0.5212402,0.96875,0.7936401,1.4550781c0.3113403,0.552002,0.621582,1.1060791,0.9021606,1.6560059
					c0.6932983,1.3579102,0.1546631,3.020874-1.2022095,3.7131348c-1.3579102,0.6943359-3.0281372,0.1557617-3.7132568-1.2021484
					c-0.2488403-0.4864502-0.524292-0.973877-0.7977295-1.4624023c-0.2857056-0.506958-0.5704346-1.0148926-0.831543-1.5196533
					c-5.960022-9.1838379-16.1555176-15.2497559-25.1539307-20.6029053
					c-5.2401123-3.1177979-10.6584167-6.3415527-16.4955444-7.8592529
					c-12.6768188-3.2967529-26.0397644,1.5791016-38.9623413,6.2947998c-2.427002,0.885376-4.9369812,1.8011475-7.3947144,2.6450195
					c-19.4990845,6.6911621-39.8338318,9.7845459-60.4389038,9.1936035
					c-1.2401123-0.0357666-2.4812927-0.0849609-3.7234802-0.1341553c-4.9758911-0.1955566-9.6763-0.381958-14.3378296,0.2612305
					c-4.4485168,0.6123047-10.5979614,2.3183594-14.6399231,6.958374
					c-4.6584473,5.3476563-5.6231079,14.1617432-2.4587708,22.4534912
					c2.9267578,7.6743164,8.4064941,13.9610596,14.7382507,20.8048096c1.0343018,1.1173096,0.9677429,2.8653564-0.1515503,3.9006348
					c-1.1182861,1.0343018-2.8652954,0.9666748-3.9006653-0.1514893
					c-6.4802246-7.0046387-12.5682373-14.0019531-15.8432007-22.5856934
					c-3.8822021-10.171875-2.5263367-21.180542,3.453186-28.046875c5.1652832-5.9307861,12.6654968-8.0599365,18.0479431-8.802002
					c5.1469727-0.7094727,10.3132935-0.505127,15.3106995-0.3079834c1.2217102,0.048584,2.4433899,0.0968018,3.6630554,0.131958
					c19.9404602,0.5714111,39.6197815-2.4221191,58.4890747-8.8973389c2.4075623-0.8261719,4.8919373-1.7325439,7.2944031-2.6091309
					c13.7182617-5.0054932,27.9024658-10.1812744,42.2444153-6.4517822
					c6.5959473,1.7154541,12.3562622,5.1429443,17.9281616,8.4577637
					c9.5575562,5.6860352,20.3910522,12.1309814,27.043335,22.4692383
					C547.2816772,1782.5123291,547.3031616,1782.5461426,547.3226318,1782.5809326z"/>
			</g>
			<g>
				<path style="fill:#1C1C1A;" d="M491.4510193,1751.2861328c0.6185303,1.059082,0.4721375,2.4406738-0.4372559,3.3464355
					c-1.0803833,1.0756836-2.8274231,1.0720215-3.9036865-0.0081787l-21.1273804-21.2150879
					c-10.3890686-10.432251-21.105835-21.1936035-31.8368835-31.5639648
					c-4.8489685-4.6854248-9.6722717-8.9571533-15.3496704-9.7573242c-5.2216492-0.7353516-11.1263733,1.49646-18.0541382,6.8236084
					c-19.3547058,14.8856201-32.1051941,38.3011475-34.109314,62.6362305l-0.1105957,1.3939209
					c-0.5007935,6.4152832-1.0681152,13.6862793-6.40448,18.3375244c-0.5038452,0.4383545-0.7782898,1.7788086-0.9994812,2.8560791
					l-0.0706482,0.3461914c-0.3103027,1.4920654-1.771637,2.4505615-3.2636719,2.1402588
					c-1.4920654-0.3103027-2.450592-1.7716064-2.1402893-3.2646484l0.0675964-0.329834
					c0.3666077-1.7910156,0.8694153-4.2446289,2.7792969-5.90979c3.6364746-3.168457,4.0900879-8.9824219,4.5283813-14.6053467
					l0.1126404-1.4177246c2.1290588-25.8586426,15.6783142-50.7406006,36.2455139-66.55896
					c8.1637878-6.2781982,15.4223022-8.8666992,22.1903076-7.9133301c7.3168945,1.0303955,12.8857422,5.911377,18.4146118,11.25354
					c10.7690125,10.4073486,21.5052185,21.1877441,31.8871155,31.6134033l21.1530151,21.2401123
					C491.191925,1750.8999023,491.3352966,1751.0875244,491.4510193,1751.2861328z"/>
			</g>
			<g>
				<path style="fill:#1C1C1A;" d="M483.8811951,1750.7736816c0.621582,1.0637207,0.4700317,2.4528809-0.4485474,3.3570557
					c-1.0865173,1.0698242-2.8335571,1.0561523-3.9026794-0.0297852
					c-9.5288696-9.6757813-19.8493347-19.6998291-31.9997253-26.5968018
					c-13.1274414-7.4519043-26.9327393-10.1066895-38.8722534-7.4759521
					c-4.5068665,0.993042-8.1924744,2.6408691-10.957428,4.8969727c-3.1418152,2.5648193-5.1203003,6.0140381-5.4295654,9.4630127
					c-0.3082275,3.4401855,1.0302124,7.3822021,3.772644,11.0975342
					c5.1868286,7.0350342,13.9968262,12.0355225,24.8067627,14.0795898
					c9.9630737,1.883667,20.4002686,1.2290039,30.4933777,0.5957031c1.5207214-0.0953369,2.8326111,1.0600586,2.9267578,2.581543
					c0.0952454,1.5216064-1.0598755,2.8319092-2.5816345,2.9274902
					c-10.4331055,0.6546631-21.2205505,1.3317871-31.8635864-0.6812744
					c-12.1842346-2.3033447-22.2087402-8.0665283-28.2250671-16.2275391
					c-2.5038452-3.3961182-5.3763123-8.7338867-4.8273926-14.8649902c0.4403687-4.9205322,3.151001-9.7485352,7.4377136-13.2470703
					c3.4397888-2.8079834,7.9006042-4.8306885,13.259491-6.0115967c13.2738342-2.9251709,28.468811-0.0606689,42.7851563,8.06604
					c12.7669373,7.2474365,23.4058838,17.571167,33.2071228,27.5241699
					C483.6282959,1750.3952637,483.7675171,1750.5793457,483.8811951,1750.7736816z"/>
			</g>
			<g>
				<path style="fill:#1C1C1A;" d="M417.5601196,1759.192749c0.3441162,0.5892334,0.4720764,1.3059082,0.3041382,2.0222168
					c-0.348175,1.484375-1.8340454,2.404541-3.3179626,2.0563965c-1.1151733-0.2615967-2.1955566-0.4747314-3.3404541-0.7003174
					l-0.335907-0.0662842c-2.3102722-0.4556885-4.2211609-1.0806885-5.84021-1.9105225
					c-6.2313843-3.194458-13.4949951-4.5067139-20.4514465-3.6953125
					c-6.9564209,0.8117676-13.7213745,3.7614746-19.0515747,8.3054199
					c-1.1602173,0.9886475-2.9021912,0.8502197-3.8914185-0.3096924c-0.9830933-1.1568604-0.8499756-2.9014893,0.3102722-3.8912354
					c6.1525574-5.2451172,13.9630432-8.6499023,21.9926758-9.5874023
					c8.0306702-0.9368896,16.4156494,0.5783691,23.6096497,4.2657471c1.1551514,0.5921631,2.5908813,1.0522461,4.3911743,1.4074707
					l0.3348694,0.06604c1.1940613,0.2353516,2.3215332,0.4576416,3.5340271,0.7420654
					C416.5749817,1758.0773926,417.1924744,1758.5620117,417.5601196,1759.192749z"/>
			</g>
			<g>
				<path style="fill:#1C1C1A;" d="M418.7684937,1760.020752c0.2601318,0.444458,0.3983765,0.9667969,0.3727722,1.5196533
					c-0.0716858,1.5224609-1.3650818,2.6987305-2.8878479,2.6273193l-1.1786804-0.0554199
					c-1.521759-0.072876-2.6973877-1.3640137-2.626709-2.8869629c0.0716553-1.5224609,1.3640442-2.6987305,2.8868103-2.6271973
					l1.1786804,0.0552979C417.4833069,1758.6992188,418.3128052,1759.2401123,418.7684937,1760.020752z"/>
			</g>
			<g>
				<path style="fill:#1C1C1A;" d="M610.2346191,1981.1652832c2.2006836,3.7685547,1.5452881,9.4233398,1.0168457,13.9937744
					c-0.1618042,1.3946533-0.3153687,2.7137451-0.3532104,3.7285156l-0.7210083,18.9543457
					c-0.1689453,4.4279785-0.3430786,9.0075684-1.8330688,13.4816895
					c-2.9748535,8.9359131-10.5580444,15.270752-16.6501465,20.3614502
					c-6.866333,5.7355957-13.9650269,11.6669922-22.3971558,15.5983887
					c-9.7367554,4.5405273-19.670105,5.4089355-27.9731445,2.4453125
					c-10.1361694-3.6188965-16.9963379-13.2717285-16.3102417-22.9500732
					c0.6134033-8.6522217,6.5877686-15.4611816,12.6543579-21.6936035
					c5.0966797-5.236084,10.2406006-10.4505615,15.2153931-15.4940186
					c7.8023071-7.90979,15.869812-16.0889893,25.4140625-22.4361572c8.034729-5.3444824,19.1304321-11.3997803,26.3562012-9.8995361
					c2.3123779,0.479248,4.1730347,1.7214355,5.3834839,3.5893555
					C610.1045532,1980.9501953,610.1711426,1981.0577393,610.2346191,1981.1652832z M604.6606445,2017.6329346l0.7209473-18.9553223
					c0.0471191-1.2277832,0.2120361-2.6491699,0.3861084-4.1535645c0.4188232-3.6210938,1.008667-8.5959473-0.364624-10.678833
					c-0.4116821-0.6369629-0.9891968-1.0025635-1.8709106-1.1848145c-4-0.8305664-12.4986572,2.6533203-22.1779785,9.0905762
					c-9.0701294,6.0327148-16.9349365,14.0059814-24.5405884,21.7171631
					c-4.96875,5.0362549-10.1064453,10.2446289-15.1898804,15.4674072
					c-5.5770264,5.7285156-10.6224976,11.4335938-11.1038208,18.2332764
					c-0.5048828,7.1417236,4.9379883,14.604126,12.6593628,17.3609619c6.9257202,2.4719238,15.3731689,1.6733398,23.78479-2.2487793
					c7.7787476-3.6274414,14.5969238-9.3232422,21.1898804-14.8325195
					c5.5574951-4.6420898,12.4730225-10.4208984,14.9532471-17.8677979
					C604.3483276,2025.8531494,604.507019,2021.6739502,604.6606445,2017.6329346L604.6606445,2017.6329346z"/>
			</g>
			<g>
				<path style="fill:#1C1C1A;" d="M610.5930176,1869.4302979c3.3404541,5.7182617,5.1264648,13.1601563,5.3251343,22.229248
					c0.0696411,3.1447754-0.0184326,6.319458-0.1044312,9.3895264c-0.1782227,6.4475098-0.3461914,12.5375977,0.7987671,18.5313721
					c0.6297607,3.2974854,1.6435547,6.4863281,2.7167969,9.8616943c0.9790039,3.0772705,1.9917603,6.2590332,2.6860962,9.5350342
					c3.3691406,15.8841553-1.3261719,33.2132568-12.2538452,45.2254639
					c-1.0251465,1.1274414-2.7711792,1.2093506-3.8986206,0.1843262c-1.1264648-1.0281982-1.2104492-2.7722168-0.1843262-3.8996582
					c9.7531128-10.7208252,13.9435425-26.1882324,10.9368896-40.3652344
					c-0.6379395-3.0076904-1.5647583-5.9222412-2.5457764-9.0065918c-1.0752563-3.3814697-2.1883545-6.8776855-2.8796387-10.4997559
					c-1.2575684-6.5826416-1.0722046-13.260498-0.894043-19.7202148c0.0829468-3.0025635,0.1700439-6.1064453,0.1034546-9.1152344
					c-0.2426758-11.0761719-3.0076904-19.2348633-8.2211304-24.2445068c-1.0988159-1.0548096-1.133667-2.803833-0.0767822-3.90271
					c1.0557861-1.0987549,2.8027954-1.1325684,3.9026489-0.0767822
					C607.765625,1865.25,609.2965698,1867.2111816,610.5930176,1869.4302979z"/>
			</g>
			<g>
				<path style="fill:#1C1C1A;" d="M609.2279663,1981.4284668c0.0286865,0.0501709,0.057312,0.1013184,0.0830078,0.1535645
					c0.6849976,1.3620605,0.1361084,3.0209961-1.2248535,3.7060547c-0.1126709,0.0563965-0.2232666,0.1147461-0.3328247,0.1761475
					c0.4956665-0.1290283,1.0322876-0.1229248,1.5545044,0.0480957c1.4480591,0.4752197,2.2376099,2.0328369,1.7634277,3.4829102
					c-2.6829834,8.1872559-8.1801758,15.1181641-13.0311279,21.2337646
					c-5.6558838,7.1304932-11.5042114,14.5047607-18.6347656,20.6378174
					c-1.7060547,1.4675293-3.6005859,2.9554443-5.8914185,3.897583c-2.8222656,1.161377-5.7224121,1.236084-8.1668701,0.2110596
					c-4.2907715-1.7993164-6.7167358-7.0169678-5.6456299-12.137207c0.9697876-4.644043,4.2263184-8.092041,6.5908203-10.2814941
					c4.1444092-3.8382568,8.9124146-6.8868408,13.5237427-9.835083c5.8258667-3.7244873,11.328186-7.2431641,15.5523682-12.1617432
					c0.6748657-0.7854004,1.3230591-1.6108398,2.0081787-2.484375c2.2826538-2.9083252,4.6420288-5.914917,8.2293091-7.7182617
					C606.9146729,1979.6977539,608.4988403,1980.1800537,609.2279663,1981.4284668z M565.7617798,2028.3046875
					c0.4106445,0.7034912,0.9830933,1.2718506,1.720459,1.5800781c1.0650024,0.4465332,2.4976807,0.364624,3.9313354-0.2242432
					c1.5668335-0.6451416,3.0373535-1.8126221,4.3922119-2.9790039c6.7311401-5.7900391,12.4146118-12.9543457,17.909729-19.8830566
					c4.7854004-6.0338135,9.7346802-12.2723389,12.1094971-19.5227051c0.0921631-0.2805176,0.2252808-0.5366211,0.3901367-0.7629395
					c-1.6271973,1.3149414-3.031189,3.1049805-4.4966431,4.9708252c-0.6921997,0.8817139-1.4080811,1.7941895-2.1617432,2.6728516
					c-4.7546997,5.5350342-10.8612061,9.4396973-16.7669067,13.2164307
					c-4.6102905,2.9472656-8.963623,5.7305908-12.7474976,9.2338867c-2.8755493,2.6636963-4.4454346,5.0025635-4.9379883,7.3609619
					C564.8125,2025.3625488,565.0285645,2027.0482178,565.7617798,2028.3046875z"/>
			</g>
			<g>
				<path style="fill:#1C1C1A;" d="M616.4700928,1971.3178711c0.6656494,1.1387939,0.4352417,2.6246338-0.6082764,3.5023193
					c-1.1664429,0.9810791-2.9083252,0.8304443-3.8894043-0.3369141c-1.9917603-2.3686523-4.062439-2.8161621-8.3112183-3.270874
					c-4.2130127-0.4505615-8.5314331,0.3994141-12.5703125,1.3856201
					c-25.3966675,6.1986084-48.8424683,20.4677734-66.0169678,40.1768799
					c-3.4459229,3.9538574-7.6906738,9.2830811-9.949707,15.4519043
					c-2.1915283,5.9764404-2.1495361,12.1126709,0.1126099,16.8345947
					c2.4597778,5.1365967,7.8606567,8.4710693,12.8447876,7.9383545c1.515564-0.1628418,2.8765869,0.934082,3.0383911,2.4506836
					c0.1617432,1.515625-0.9349976,2.8754883-2.4506226,3.0383301c-7.3496704,0.7854004-14.918457-3.75-18.4104919-11.0423584
					c-2.9021912-6.0552979-3.0179138-13.7531738-0.3184814-21.1181641
					c2.5713806-7.0178223,7.2145081-12.8682861,10.9717712-17.1806641
					c17.9169312-20.5599365,42.3754883-35.4456787,68.8699951-41.9125977
					c4.5263062-1.1049805,9.4100342-2.0522461,14.4667969-1.510498c4.7138062,0.5037842,8.586731,1.208374,11.9487305,5.2062988
					C616.3011475,1971.0537109,616.3922729,1971.1837158,616.4700928,1971.3178711z"/>
			</g>
			<g>
				<path style="fill:#1C1C1A;" d="M561.9656372,1908.9814453c0.5714111,0.9779053,0.4996948,2.2478027-0.2683105,3.1654053
					c-0.2232666,0.2662354-0.4137573,0.541626-0.6052246,0.8140869c-0.3450928,0.489502-0.7363281,1.043457-1.2636719,1.5996094
					c-21.5206299,22.6182861-45.9013672,42.4030762-72.4664612,58.8054199l-1.1285095,0.6943359
					c-3.8873291,2.3912354-7.5596008,4.649292-10.723938,7.5452881c-2.5990601,2.3789063-5.8832092,6.2263184-6.7741394,11.0516357
					c-0.9319153,5.0516357,0.8171997,11.0045166,5.2042542,17.6783447
					c8.5621948,13.0393066,22.0377197,23.1047363,36.9705505,27.6147461
					c1.4582214,0.4393311,2.2846375,1.9804688,1.8443298,3.4398193c-0.4414063,1.4592285-1.9815674,2.284668-3.4408569,1.8442383
					c-16.1513977-4.87854-30.7258301-15.7652588-39.9884338-29.8686523
					c-5.1899109-7.914917-7.2165222-15.2133789-6.0184021-21.710083c0.9258118-5.0106201,3.8555908-9.8933105,8.4751282-14.1217041
					c3.5524597-3.2513428,7.6230774-5.755249,11.5596008-8.1760254l1.1202698-0.689209
					c26.1616211-16.1535645,50.1737366-35.6383057,71.3666077-57.9135742
					c0.2488403-0.2611084,0.4813232-0.5919189,0.7506714-0.973877c0.2529297-0.3583984,0.5386353-0.763916,0.8867798-1.1796875
					c0.9790039-1.168457,2.7199097-1.3221436,3.8884277-0.3431396
					C561.6051636,1908.4693604,561.8099365,1908.7141113,561.9656372,1908.9814453z"/>
			</g>
			<g>
				<path style="fill:#1C1C1A;" d="M467.2167053,1991.5081787c0.6646118,1.1387939,0.4352112,2.6226807-0.6072693,3.5013428
					c-7.0362854,5.9251709-17.1878052,7.7756348-25.8615723,4.7137451
					c-5.208374-1.8382568-9.6087341-5.2493896-13.2267456-8.3450928c-3.6487122-3.1213379-7.2585144-6.6605225-8.9389954-11.3916016
					c-0.5110168-1.435791,0.2386169-3.0137939,1.675354-3.5247803c1.435791-0.512085,3.0148315,0.239624,3.5248413,1.675293
					c1.2462463,3.5074463,4.2590332,6.421875,7.3271179,9.0465088c3.2319031,2.7650146,7.122345,5.7982178,11.4755859,7.3343506
					c6.8652954,2.4229736,14.9000549,0.9584961,20.4688721-3.7305908c1.1664124-0.9821777,2.9072876-0.8336182,3.8883362,0.3327637
					C467.0466919,1991.2440186,467.1378479,1991.3740234,467.2167053,1991.5081787z"/>
			</g>
		</g>
		<g>
			<path style="fill:#1C1C1A;" d="M444.3853149,1734.2416992c0.581665,0.9953613,0.4946289,2.2908936-0.3051758,3.2076416
				c-1.002533,1.1479492-2.7454529,1.2661133-3.8945007,0.2634277c-4.3491516-3.7978516-8.6829834-6.2021484-12.8795776-7.1464844
				c-4.8878174-1.0997314-9.772583-0.1657715-13.0679626,2.4981689c-1.1858826,0.958374-2.9237061,0.774292-3.8811646-0.4110107
				c-0.9606018-1.1864014-0.7752686-2.9229736,0.410614-3.8817139c4.5959473-3.7154541,11.231842-5.0579834,17.75-3.5911865
				c5.1028748,1.1486816,10.250824,3.9659424,15.299408,8.3741455
				C444.0484314,1733.7570801,444.237854,1733.989502,444.3853149,1734.2416992z"/>
		</g>
		<g>
			<path style="fill:#1C1C1A;" d="M423.3368225,1780.7806396c0.2529297,0.4342041,0.3912048,0.9421387,0.3727722,1.4818115
				c-0.0501404,1.5227051-1.327179,2.7167969-2.8499756,2.666626l-18.1626587-0.6052246
				c-5.6251831-0.1873779-11.4428406-0.3809814-16.9461365,0.609375c-4.1146851,0.7403564-9.8780823,2.5294189-13.9701538,6.8477783
				c-1.0486755,1.1060791-2.7956848,1.1530762-3.9016724,0.1044922c-1.1070557-1.0496826-1.1531372-2.7946777-0.1044922-3.9016113
				c4.0542297-4.2775879,9.9323425-7.2114258,16.9983521-8.4833984c6.079834-1.0946045,12.1954956-0.8908691,18.1084595-0.6932373
				l18.1616211,0.6052246C422.0270691,1779.4442139,422.8739624,1779.9890137,423.3368225,1780.7806396z"/>
		</g>
		<g>
			<path style="fill:#1C1C1A;" d="M444.4273376,1775.5701904c0.0829163,0.142334,0.1536255,0.2928467,0.2119446,0.4537354
				c0.5202332,1.4326172-0.2191467,3.0157471-1.6517944,3.5360107l-10.2354736,3.7163086
				c-1.4326172,0.5202637-3.0158386-0.2211914-3.5360718-1.652832s0.2191772-3.0158691,1.6517944-3.5360107l10.2354736-3.7163086
				C442.3760986,1773.9091797,443.7678223,1774.4416504,444.4273376,1775.5701904z"/>
		</g>
		<g>
			<path style="fill:#1C1C1A;" d="M543.4291382,1805.0549316c0.4106445,0.7025146,0.5079346,1.5791016,0.1894531,2.3952637
				c-0.5539551,1.4202881-2.1535645,2.1228027-3.5739746,1.5698242
				c-14.5518799-5.6732178-31.6761475-3.8320313-44.6888428,4.8049316c-1.2698364,0.8427734-2.9830933,0.496582-3.8258972-0.7731934
				c-0.8407593-1.2749023-0.4966736-2.9830322,0.7731628-3.8259277
				c14.4863281-9.6148682,33.5481567-11.6639404,49.7467041-5.3496094
				C542.6528931,1804.1116943,543.1270752,1804.5356445,543.4291382,1805.0549316z"/>
		</g>
		<g>
			<path style="fill:#1C1C1A;" d="M453.7472534,1924.6033936c0.006134,0.0113525,0.0122986,0.0216064,0.0184326,0.0317383
				c0.7516479,1.3261719,0.2867432,3.0107422-1.0394287,3.7624512c-9.4745789,5.3712158-20.1933899,8.9307861-30.9961853,10.2947998
				c-0.4700317,0.0594482-0.9431458,0.1147461-1.4152527,0.1700439c-2.5150757,0.2958984-4.8908997,0.5765381-6.9861145,1.4234619
				c-1.8545837,0.7506104-3.9764099,2.3184814-4.3727417,4.4699707c-0.2754517,1.4992676-1.7142639,2.4904785-3.2134705,2.2150879
				c-1.499176-0.2755127-2.490509-1.7143555-2.2150574-3.213501c0.6799927-3.6948242,3.5698853-6.90625,7.7316589-8.5887451
				c2.7823486-1.1254883,5.6425476-1.4624023,8.4095459-1.7880859c0.4577942-0.0541992,0.9144897-0.1085205,1.3702087-0.1658936
				c10.0951538-1.2728271,20.1115112-4.6000977,28.964447-9.6188965
				C451.3192444,1922.8502197,452.9873962,1923.3018799,453.7472534,1924.6033936z"/>
		</g>
		<g>
			<path style="fill:#1C1C1A;" d="M476.7117615,1914.2000732c0.7690735,1.315918,0.3256531,3.0065918-0.9913025,3.7756348
				l-11.3865051,6.6502686c-1.3158875,0.769043-3.0066223,0.324585-3.7746582-0.991333
				c-0.7690735-1.315918-0.324646-3.0065918,0.991272-3.7756348l11.3865662-6.6502686
				C474.2529907,1912.4396973,475.9437256,1912.8841553,476.7117615,1914.2000732z"/>
		</g>
		<g>
			<path style="fill:#1C1C1A;" d="M493.9230957,1980.3552246c0.096283,0.164917,0.1761475,0.3430176,0.2386169,0.5314941
				c0.4772034,1.447998-0.3103027,3.0076904-1.7583008,3.4848633c-5.3927002,1.7757568-9.6026001,7.1745605-10.0112,12.8365479
				c-0.4096375,5.6630859,2.9820557,11.6097412,8.0634155,14.1422119c1.3651428,0.6800537,1.9190979,2.3369141,1.2391357,3.7009277
				c-0.6799927,1.3641357-2.3369141,1.9191895-3.7009583,1.2391357
				c-7.1120911-3.5441895-11.6804199-11.5544434-11.1069336-19.4796143
				c0.5714111-7.9251709,6.2426453-15.1970215,13.789978-17.682373
				C491.9353943,1978.713623,493.2799988,1979.2553711,493.9230957,1980.3552246z"/>
		</g>
		<g>
			<path style="fill:#1C1C1A;" d="M548.9856567,2032.4071045c0.6902466,1.1827393,0.409668,2.7229004-0.7045288,3.5780029
				c-2.9871826,2.2949219-4.7680054,6.0583496-4.6471558,9.8217773c0.124939,3.9179688,2.2242432,7.857666,4.074707,11.3342285
				c0.7168579,1.3447266,0.2078857,3.0168457-1.1376953,3.732666c-1.3455811,0.7167969-3.0271606,0.2089844-3.7337646-1.1376953
				c-2.0286255-3.8095703-4.5539551-8.5498047-4.7208862-13.7520752c-0.1761475-5.5093994,2.4301147-11.0178223,6.8027954-14.376709
				c1.2084351-0.9278564,2.9411011-0.7004395,3.8699951,0.5079346
				C548.8607788,2032.2104492,548.9273071,2032.3077393,548.9856567,2032.4071045z"/>
		</g>
	</g>
</g>
<g id="Слой_3">
	<text transform="matrix(1 0 0 1 769.0230103 1174.661499)" style="font-family:'SverdlovskRegular'; font-size:58.8356743px;">BELKA LOUNGE</text>
	<text transform="matrix(1 0 0 1 826.1141968 1109.6292725)" style="font-family:'SverdlovskRegular'; font-size:58.8356743px;">BELKA LOUNGE</text>
	<text transform="matrix(1 0 0 1 884.9090576 1042.2744141)" style="font-family:'SverdlovskRegular'; font-size:58.8356743px;">BELKA LOUNGE</text>
</g>
</svg>
