<?xml version="1.0" encoding="utf-8"?>
<!-- Generator: Adobe Illustrator 23.1.0, SVG Export Plug-In . SVG Version: 6.00 Build 0)  -->
<svg version="1.1" id="Слой_2" xmlns="http://www.w3.org/2000/svg" xmlns:xlink="http://www.w3.org/1999/xlink" x="0px" y="0px"
	 viewBox="0 0 1366 1168.2258301" style="enable-background:new 0 0 1366 1168.2258301;" xml:space="preserve">
<g>
	<path style="fill:#1C1C1C;" d="M998.9625244,854.5080566c10.4950562-13.1843262,27.2438965-31.7283325,26.4781494-49.8260498
		c-0.8704834-20.5883789-19.9421997-42.1889648-34.112854-55.7111206
		c-32.7776489-31.2758179-89.0299683-14.7255249-118.8804932,13.1263428
		c-14.1521606,14.3519287-26.19104,28.9245605-23.7496948,50.2785645
		c2.1490479,18.7955933,16.7907104,57.8995972,33.0883179,69.2122192
		c14.0461426,9.7504272,47.7324219,8.2536011,63.8364258,7.5397339
		C970.4176636,888.0278931,984.0285645,873.2666016,998.9625244,854.5080566z M961.1739502,752.5157471
		c-6.2265625,7.722168-12.3273315,15.5454102-18.6326904,23.2047119
		c-6.4498291,7.8331299-14.4691772,14.3666992-20.9707031,22.0481567c-5.2376709-0.7348022-10.8267822,0.046875-17.069397,0.4673462
		c-11.5814209,0.7780151-23.225708,1.152832-34.781189,2.3032227c2.2477417-9.1635742,6.9761963-18.1668091,14.9327393-26.2366943
		C903.4087524,756.8040161,935.0557251,745.4507446,961.1739502,752.5157471z M917.0282593,870.2174683
		c-26.8186035-4.8789063-46.3872681-27.4992065-48.6904907-52.3832397
		c14.9710083-1.8605957,46.3219604-8.7578735,56.5101929,2.2070313
		c12.031311,12.9475098,16.8510742,33.4544678,27.1415405,48.0357666
		C941.6965332,871.6317139,930.2125244,872.6143799,917.0282593,870.2174683z M967.3894653,860.2537231
		c-0.0875854-0.1331787-0.0802002-0.2613525-0.1762695-0.395752c-11.6776733-16.2051392-17.4110107-37.9832764-30.6594238-53.05896
		c5.9219971-6.3634033,12.6430054-12.1313477,18.192688-18.873291c7.5335083-9.1486816,14.7329102-18.5699463,22.2614746-27.7235718
		c0.0825806-0.0999146,0.0900269-0.2095947,0.1664429-0.3095093c0.6436157,0.4401855,1.3192749,0.8100586,1.9468994,1.28479
		c8.9267578,6.7493286,26.9813232,28.5077515,28.4399414,40.975708
		c1.3464355,11.5222168-9.4039307,24.5733643-15.4664307,32.9884644
		C984.6240845,845.5109863,976.4975586,854.017334,967.3894653,860.2537231z"/>
	<path style="fill:#1C1C1C;" d="M1095.6036377,932.9171143c-32.4003906-15.5479126-89.2050781-18.3209229-112.8314819,14.5294189
		c-11.6899414,16.2544556-24.7692871,46.7140503-21.3861084,67.1691895
		c3.348877,20.2381592,24.4857788,33.0366211,40.3728027,43.894165
		c19.4885254,13.3199463,37.6096802,23.914917,61.3174438,17.3875732
		c15.9732666-4.3980713,47.7879639-12.2176514,58.7578125-25.9949951
		c12.6799316-15.9227295,14.9116211-57.9785156,10.9476318-77.1415405
		C1128.5587158,952.3587646,1113.0046387,942.0633545,1095.6036377,932.9171143z M1086.8913574,947.8214111
		c8.9564209,4.7075195,16.1102295,12.1904907,21.2282715,21.0235596
		c-10.3681641,2.2008667-20.6340332,4.9886475-30.9232178,7.4977417
		c-6.4769287,1.5806885-12.8391113,2.4968262-18.2246094,5.0577393c-8.4941406-5.2574463-17.9091797-9.1314697-26.3439941-14.644165
		c-8.5384521-5.5792236-16.9213867-11.3927612-25.4093628-17.0484619
		C1030.2320557,935.364563,1064.8135986,937.2276001,1086.8913574,947.8214111z M978.2717285,1011.6060181
		c-2.5374756-12.7588501,7.6469727-39.0337524,15.7489014-50.1651001c0.2046509,0.1578369,0.2946777,0.3649292,0.5203247,0.5129395
		c9.8651123,6.4570923,19.5020752,13.2582397,29.3745728,19.7079468
		c7.4915771,4.8961792,15.7636719,8.4915771,23.4797363,12.9081421c-7.862793,18.4035034-6.8961182,40.5072021-13.291626,59.3939209
		c-0.0974121,0.2873535-0.0319824,0.5167236-0.0997314,0.7952881c-8.1623535-2.4104004-16.1139526-6.0526123-23.5328369-11.1535645
		C1001.3618164,1037.3408203,980.9127808,1024.8765869,978.2717285,1011.6060181z M1094.725708,1045.5142822
		c-13.7749023,9.2325439-28.8566895,13.057251-43.7597656,12.2718506
		c5.6236572-17.324585,4.2784424-37.9277344,11.670166-54.4324341c4.0418701-9.024231,13.8537598-9.0574951,22.7041016-11.2423706
		c9.7727051-2.4129028,19.5255127-5.0773926,29.3968506-7.0859375
		C1120.4605713,1006.9379883,1115.1341553,1031.8331299,1094.725708,1045.5142822z"/>
	<path style="fill:#1C1C1C;" d="M1075.4776611,792.3916016c16.1828613,2.182373,30.8972168-9.5444946,33.9526367-25.2736816
		c3.2020264-16.4849854-6.2167969-27.4141235-20.7856445-33.2005005c-1.6251221-0.6448364-3.0393066-0.6411743-4.3413086-0.387146
		c-16.1903076-1.0246582-33.1326904,6.5113525-36.8822021,23.7102051
		C1043.7615967,774.0201416,1059.5327148,790.2424927,1075.4776611,792.3916016z M1064.6988525,759.3353271
		c2.6619873-8.1795654,12.2016602-9.1549072,19.6439209-8.6246948c5.9614258,2.446228,9.5765381,6.2130127,8.223999,13.0745239
		c-1.3723145,6.9651489-7.4804688,12.4815063-14.7749023,11.4901733
		C1070.8649902,774.3345947,1062.2353516,766.9083252,1064.6988525,759.3353271z"/>
	<path style="fill:#1C1C1C;" d="M1135.4770508,827.8485107c-1.6262207-0.6448975-3.0393066-0.6411743-4.3414307-0.387207
		c-16.1889648-1.0245972-33.1326904,6.5101929-36.8834229,23.7102661
		c-3.6582031,16.7808838,12.112915,33.0020142,28.0565186,35.151123
		c16.1829834,2.182373,30.8973389-9.5445557,33.9526367-25.2736816
		C1159.463501,844.5652466,1150.0458984,833.6348877,1135.4770508,827.8485107z M1139.399292,857.7162476
		c-1.3724365,6.9663696-7.4819336,12.4815063-14.7762451,11.491394
		c-6.9256592-0.9407349-15.5551758-8.3682251-13.0917969-15.9400024c2.6619873-8.1808472,12.2016602-9.1561279,19.644043-8.6259155
		C1137.1365967,847.0891724,1140.751709,850.8547363,1139.399292,857.7162476z"/>
	<path style="fill:#1C1C1C;" d="M912.5328369,953.4105225c-1.6263428-0.6448975-3.0405884-0.6411743-4.3424683-0.3859253
		c-16.1890869-1.0246582-33.1328125,6.5101318-36.8823242,23.7089844
		c-3.6581421,16.7808838,12.112793,33.0032349,28.0565186,35.1523438
		c16.1828613,2.1811523,30.8972778-9.5457764,33.9526367-25.2749023
		C936.5192261,970.1272583,927.1005249,959.1968994,912.5328369,953.4105225z M916.4549561,983.2782593
		c-1.3722534,6.9663696-7.4805298,12.4815063-14.776062,11.491394c-6.9244385-0.9407349-15.5553589-8.3670044-13.0918579-15.9400024
		c2.6621094-8.1795654,12.2003784-9.1549072,19.6426392-8.6259155
		C914.1911621,972.6511841,917.8062744,976.416748,916.4549561,983.2782593z"/>
	<path style="fill:#1C1C1C;" d="M1233.1970215,522.1563721c3.0787354,3.1218872,9.1943359,3.5485229,12.2053223,0
		c10.2608643-12.0857239,20.6807861-24.1270142,29.9503174-37.0005798c2.348877-3.2624817,0.9815674-7.7197266-1.3500977-10.4594116
		c-27.8554688-32.7455444-110.7994385-151.396698-147.1046143-62.1521912
		c-12.329834,30.3067322-17.6428223,65.5256348-25.9099121,97.0949097
		c-3.7198486,14.2039795-7.4250488,28.4141235-11.0906982,42.6340942
		c-102.3412476-0.225647-204.6800537-2.774231-307.0471802-2.8876343c-1.4746094-0.0025024-2.7224121,0.331665-3.8062134,0.8569336
		c-2.9776611,1.0073242-5.2130127,3.5842285-4.824646,7.7739258
		c11.9304199,128.8713379,26.7791748,257.5269165,47.3378906,385.3280029
		c5.3770142,33.4310913,11.1362915,66.8017578,17.4232788,100.0737915
		c3.2969971,17.4528809,2.9494019,47.3267822,15.4936523,61.0671387
		c9.5568848,10.4692383,26.2391357,8.4434814,38.9388428,8.8331299c34.206604,1.0493164,68.3134766,2.0541992,102.543457,1.9246826
		c30.1538086-0.1134033,60.3039551-0.6522217,90.456543-0.9111328c16.9868164-0.1455078,44.9829102,3.7630615,60.8365479-4.4770508
		c33.6419678-17.486084,29.5854492-83.7305908,34.6702881-115.817688
		c22.8631592-144.2651367,45.7263184-288.5302734,68.5882568-432.7954102
		c0.8372803-5.2783813-2.1983643-11.1251831-8.3226318-10.925415c-28.5286865,0.9296265-57.0561523,1.3956909-85.5849609,1.6854858
		c7.1981201-27.8407593,14.9893799-55.5150757,23.7324219-82.9094849
		C1198.043457,486.6908569,1215.6640625,504.3816833,1233.1970215,522.1563721z M1075.6502686,684.4649658
		c8.4976807-38.4752197,17.902832-76.7445679,27.6644287-114.920166c10.3360596,0,20.6708984,0.0037231,31.006958-0.0542603
		c-9.6394043,38.7255249-18.4921875,77.6655884-27.7913818,116.4354858
		C1096.2595215,685.8335571,1085.965332,685.3267822,1075.6502686,684.4649658z M1058.3613281,682.7055054
		c-22.6558838-2.6287231-45.3885498-6.5348511-68.1432495-10.6653442
		c-65.0582886-11.8082275-123.041748-13.5455322-186.7191162,4.5213623
		c-3.9763794-36.5974121-7.7369995-73.2157593-11.1671753-109.8661499
		c97.7422485,0.2527466,195.4622803,2.5571899,293.182251,2.8370972
		C1075.9301758,607.1286011,1066.6827393,644.8109741,1058.3613281,682.7055054z M1178.4649658,906.2180786
		c-4.3968506,27.7433472-8.7937012,55.4866943-13.1904297,83.2300415
		c-4.0750732,25.71875-3.9035645,58.9920654-13.189209,83.2299805
		c-11.5444336,30.1303711-38.6700439,24.1590576-65.6723633,24.3920898
		c-27.6052246,0.2380371-55.2067871,0.7041016-82.8120728,0.8643799
		c-25.9949341,0.1516113-51.9887085,0.0592041-77.9750366-0.6633301
		c-12.1276245-0.3366699-28.5939941,2.0405273-40.3505859-1.6077881
		c-23.9864502-7.4436035-21.5709229-15.2249756-25.2909546-34.2054443
		c-10.5259399-53.7173462-19.6845703-107.6973267-27.8949585-161.814209
		c-10.3768311-68.3873291-19.0200195-137.013916-26.6780396-205.7526855
		c85.3778687-24.829834,158.0054321-5.4744873,243.0801392,6.1981812
		c55.6899414,7.6408081,112.682251,4.6212158,165.140625-15.776001
		C1201.9089355,758.2811279,1190.1868896,832.2502441,1178.4649658,906.2180786z M1232.0922852,567.8247681
		c-5.1181641,32.2967529-10.2362061,64.5947266-15.3543701,96.8914795
		c-30.4250488,13.5702515-61.2767334,19.4946899-92.3909912,20.864563
		c9.2509766-38.7341919,18.1322021-77.6138306,27.8260498-116.2714844
		C1178.8126221,569.0651855,1205.4525146,568.6114502,1232.0922852,567.8247681z M1138.7358398,552.1831665
		c-10.3311768,0.0665894-20.6623535,0.0961914-30.9923096,0.102356c2.8149414-10.9020386,5.6384277-21.8028564,8.4853516-32.696228
		c8.1303711-31.1056824,11.6098633-75.9702454,28.190918-104.0501709
		c21.6807861-36.71698,47.4735107-5.3955383,66.3641357,14.356842
		c9.7182617,10.1622314,46.0308838,40.9078979,45.0161133,53.1588135
		c-0.5178223,6.2660217-14.1916504,14.6897583-17.4442139,20.7313538c-0.4093018-0.7373047-0.7027588-1.3427124-1.2650146-2.252655
		c-12.4211426-20.087738-37.6984863-38.063385-54.5606689-54.6950989
		c-4.8037109-4.7383423-12.3927002-2.2908936-14.4259033,3.8086853
		C1156.9543457,484.0954285,1147.4849854,518.0394287,1138.7358398,552.1831665z"/>
	<path style="fill:#1C1C1C;" d="M812.2814941,622.6185303c2.4017944,10.4779053,4.1588135,21.0926514,5.9331055,31.6913452
		c1.8284912,10.9328613,18.4663696,6.296875,16.6439819-4.5878906c-1.9949341-11.9204712-3.9750977-23.8668823-6.8578491-35.6134644
		c-0.4265747-1.7422485-2.4807129-6.1205444-2.0516357-7.7912598c-0.3452759-0.3661499-0.6917114-0.7335815-1.0369263-1.0997925
		c1.6065674-0.1257935,3.2155762-0.2515259,4.8234863-0.3760986c6.7197876-0.3328857,13.388855,0.1516724,20.0518799,0.9728394
		c10.9994507,1.3538208,10.9008179-15.9202881,0-17.2630005c-12.0744629-1.4857178-38.1262817-5.4053955-41.4109497,11.8144531
		C807.0092163,607.5366821,810.7020264,615.7298584,812.2814941,622.6185303z"/>
	<path style="fill:#1C1C1C;" d="M876.5629883,608.0582275c11.1067505,0,11.1252441-17.2629395,0-17.2629395
		C865.4552002,590.7952881,865.4378052,608.0582275,876.5629883,608.0582275z"/>
</g>
</svg>
