<?xml version="1.0" encoding="utf-8"?>
<!-- Generator: Adobe Illustrator 23.1.0, SVG Export Plug-In . SVG Version: 6.00 Build 0)  -->
<svg version="1.1" xmlns="http://www.w3.org/2000/svg" xmlns:xlink="http://www.w3.org/1999/xlink" x="0px" y="0px"
	 viewBox="0 0 500 375" style="enable-background:new 0 0 500 375;" xml:space="preserve">
<g id="LOGO">
	<g>
		<path style="fill:#FFFFFF;" d="M57.0092773,248.8608398c3.8994141,1.6601563,7.0507813,4.2988281,9.4560547,7.9169922
			c2.4038086,3.6191406,3.6069336,7.6855469,3.6069336,12.2001953c0,5.9755859-2.0805664,11.0888672-6.2392578,15.3369141
			c-4.159668,4.25-9.1635742,6.3745117-15.0126953,6.3745117c-2.2758789,0-4.4848633-0.3666992-6.6293945-1.0961914v-68.2197266
			c0.3901367-0.2646484,0.8120117-0.4638672,1.2675781-0.5976563c1.7543945-0.7304688,3.5415039-1.0957031,5.3618164-1.0957031
			c3.9633789,0,7.3266602,1.4287109,10.0898438,4.2822266c2.7617188,2.8554688,4.1430664,6.3085938,4.1430664,10.3574219
			c0,2.7236328-0.6821289,5.2460938-2.0473633,7.5693359c-1.3647461,2.3242188-3.2167969,4.0830078-5.5566406,5.2783203
			c-0.4555664,0.265625-0.9106445,0.4980469-1.3647461,0.6972656
			C55.0595703,248.1303711,56.0341797,248.4624023,57.0092773,248.8608398z M45.5053711,221.9702148v25.1972656h3.3149414
			c2.9882813,0,5.5566406-1.2607422,7.7011719-3.7841797c2.1450195-2.5224609,3.2172852-5.5605469,3.2172852-9.1132813
			c0-3.5507813-1.0722656-6.5888672-3.2172852-9.1123047c-2.1445313-2.5224609-4.7128906-3.7841797-7.7011719-3.7841797
			C47.6503906,221.3735352,46.5444336,221.5727539,45.5053711,221.9702148z M48.8203125,288.9956055
			c4.9379883,0,9.1635742-1.9570313,12.6733398-5.8759766c3.5092773-3.9169922,5.2641602-8.6474609,5.2641602-14.1914063
			c0-5.5429688-1.7548828-10.2734375-5.2641602-14.1923828c-3.5097656-3.9160156-7.7353516-5.875-12.6733398-5.875h-3.3149414
			v39.7363281C46.5444336,288.8637695,47.6503906,288.9956055,48.8203125,288.9956055z"/>
		<path style="fill:#FFFFFF;" d="M78.5532227,287.8999023h15.1108398l1.3647461,1.6933594H75.2387695v-68.8173828h19.7900391
			l-1.3647461,1.6923828H78.5532227v23.703125h13.1611328l-1.1699219,1.6933594H78.5532227V287.8999023z"/>
		<path style="fill:#FFFFFF;" d="M118.6196289,287.8999023l1.3647461,1.6933594h-19.7900391v-68.8173828h3.3144531v67.1240234
			H118.6196289z"/>
		<path style="fill:#FFFFFF;" d="M129.3417969,247.8647461l23.5917969,41.7285156h-3.8017578l-20.6674805-36.4501953v36.4501953
			h-3.3144531v-68.8173828h3.3144531v25.4951172l19.4975586-25.4951172h2.0478516L129.3417969,247.8647461z"/>
		<path style="fill:#FFFFFF;" d="M178.0859375,219.6801758l18.328125,69.9130859h-3.3154297l-6.7265625-25.7939453h-19.8867188
			l-6.7275391,25.7939453h-1.7539063l17.546875-66.9257813L178.0859375,219.6801758z M166.9726563,262.105957h18.9121094
			l-9.4560547-36.1513672L166.9726563,262.105957z"/>
		<path style="fill:#FFFFFF;" d="M245.4492188,287.8999023l1.3642578,1.6933594h-19.7890625v-68.8173828h3.3144531v67.1240234
			H245.4492188z"/>
		<path style="fill:#FFFFFF;" d="M257.5849609,224.4604492c5.3613281-3.1865234,11.1777344-4.7802734,17.4501953-4.7802734
			c6.2714844,0,12.0712891,1.59375,17.4013672,4.7802734c5.328125,3.1865234,9.5537109,7.5039063,12.6738281,12.9472656
			c3.1191406,5.4443359,4.6787109,11.3701172,4.6787109,17.7763672c0,6.4082031-1.5595703,12.3339844-4.6787109,17.7773438
			c-3.1201172,5.4453125-7.3457031,9.7597656-12.6738281,12.9472656
			c-5.3300781,3.1865234-11.1298828,4.7807617-17.4013672,4.7807617c-6.2724609,0-12.0888672-1.5942383-17.4501953-4.7807617
			c-5.3623047-3.1875-9.5869141-7.5019531-12.6738281-12.9472656c-3.0869141-5.4433594-4.6298828-11.3691406-4.6298828-17.7773438
			c0-6.40625,1.5429688-12.3320313,4.6298828-17.7763672C247.9980469,231.9643555,252.2226563,227.6469727,257.5849609,224.4604492z
			 M284.1015625,287.2524414c5.4912109-1.359375,10.2509766-4.0830078,14.2822266-8.1660156
			c4.0283203-4.0830078,6.7099609-8.9462891,8.0419922-14.5898438c1.3320313-5.6425781,1.2021484-11.3037109-0.3896484-16.9804688
			c-1.5927734-5.6767578-4.5175781-10.6894531-8.7734375-15.0380859c-4.2578125-4.3486328-9.1640625-7.3359375-14.7207031-8.9638672
			c-5.5566406-1.6259766-11.0986328-1.7578125-16.6220703-0.3984375
			c-5.5244141,1.3623047-10.3017578,4.0830078-14.3300781,8.1669922c-4.03125,4.0830078-6.6953125,8.9472656-7.9941406,14.5898438
			c-1.3007813,5.6445313-1.1552734,11.3037109,0.4384766,16.9804688c1.5917969,5.6767578,4.5,10.6904297,8.7246094,15.0380859
			c4.2246094,4.3496094,9.1308594,7.3369141,14.7207031,8.9638672
			C273.0683594,288.4819336,278.6083984,288.6147461,284.1015625,287.2524414z"/>
		<path style="fill:#FFFFFF;" d="M341.0820313,220.7758789h1.5595703v55.7705078
			c0,3.9189453-1.3642578,7.2548828-4.09375,10.0097656c-2.7304688,2.7558594-5.9804688,4.1333008-9.7490234,4.1333008
			c-2.4707031,0-4.7773438-0.6323242-6.921875-1.8930664s-3.8505859-2.9873047-5.1181641-5.1787109
			c-1.2675781-2.1904297-1.9003906-4.5810547-1.9003906-7.1708984v-55.6708984h3.3144531v55.6708984
			c0,3.453125,1.1210938,6.4082031,3.3632813,8.8642578c2.2421875,2.4570313,4.9228516,3.6845703,8.0419922,3.6845703
			c3.1835938,0,5.8818359-1.2109375,8.0917969-3.6347656c2.2089844-2.4228516,3.3466797-5.3613281,3.4121094-8.8144531V220.7758789z
			"/>
		<path style="fill:#FFFFFF;" d="M374.0322266,220.7758789h1.5595703v68.8173828h-1.0722656l-0.4873047-1.1953125
			l-24.5664063-57.8623047v59.0576172h-1.6572266v-68.8173828h1.0722656l0.5849609,1.1943359l24.5664063,57.8632813V220.7758789z"/>
		<path style="fill:#FFFFFF;" d="M423.4570313,269.0776367l-1.4619141-1.6933594h15.8896484v14.9384766l-1.1699219,0.9960938
			c-2.2753906,1.7929688-4.6787109,3.2539063-7.2138672,4.3818359c-4.4199219,1.9921875-9.0996094,2.9887695-14.0380859,2.9887695
			c-6.2392578,0-12.0400391-1.5942383-17.4013672-4.7807617c-5.3623047-3.1875-9.5869141-7.5019531-12.6738281-12.9472656
			c-3.0869141-5.4433594-4.6298828-11.3857422-4.6298828-17.8271484c0-4.7802734,0.9091797-9.3613281,2.7294922-13.7431641
			c1.8183594-4.3818359,4.2890625-8.1494141,7.4091797-11.3037109c3.1191406-3.1523438,6.8232422-5.6767578,11.1132813-7.5693359
			c4.2890625-1.8916016,8.7734375-2.8378906,13.453125-2.8378906c8.5136719,0,15.9882813,2.7880859,22.421875,8.3652344
			l-2.1445313,2.5898438c-6.4335938-5.7099609-13.859375-8.515625-22.2753906-8.4160156
			c-8.4179688,0.0996094-15.5498047,3.1044922-21.3984375,9.0136719c-4.03125,4.1171875-6.6953125,8.9970703-7.9941406,14.6396484
			c-1.3007813,5.6445313-1.1552734,11.3037109,0.4384766,16.9804688c1.5917969,5.6767578,4.5,10.7060547,8.7246094,15.0878906
			c5.1992188,5.2460938,11.3085938,8.4824219,18.328125,9.7099609c7.0195313,1.2294922,13.4853516,0.2832031,19.4003906-2.8378906
			c1.1699219-0.5302734,2.4033203-1.2275391,3.7041016-2.0917969v-13.6435547H423.4570313z"/>
		<path style="fill:#FFFFFF;" d="M446.3671875,287.8999023h15.1103516l1.3642578,1.6933594h-19.7890625v-68.8173828h19.7890625
			l-1.3642578,1.6923828h-15.1103516v23.703125h13.1601563l-1.1699219,1.6933594h-11.9902344V287.8999023z"/>
	</g>
	<path id="BelkaLogoVector" style="fill:#FFFFFF;" d="M270.5782471,195.7449951c0,0,58.9999084-14.9724731,24.0086975-109.1734772
		c-0.055603-0.1497192-0.2773743-0.1475296-0.3248291,0.004837l-5.057251,15.6295776
		c-0.0917969,0.2837677-0.5169373,0.2569199-0.572052-0.0357742c-6.4089966-34.0363235,16.5411682-52.1192741,16.5411682-52.1192741
		c-55.6434631-7.15205-62.4791107,33.3740578-63.0043335,37.2534904c-0.0252228,0.1864014-0.0344849,0.3744888-0.0280914,0.5624084
		c0.7570801,22.2621307,26.8991241,39.5371628,26.8991241,39.5371628
		c24.6013794,21.7790222,9.9942932,45.0600281,9.9942932,45.0600281
		c5.3815613-23.2810059-11.5318909-35.2970276-11.5318909-35.2970276l-33.058136-18.7750092
		c-9.2255249-9.0120087-12.3006897-18.7750168-12.3006897-18.7750168c-8.4567413,0-9.2255249,9.7630081-9.2255249,9.7630081
		c-18.4510498,3.7550049-16.9134674,21.7790222-16.9134674,21.7790222
		c5.3815613,7.5099945,25.5193634,1.3182983,25.5193634,1.3182983c2.0309906,6.0929871-18.2789307,12.1859589-22.3409119,14.2169495
		c-6.5497589,3.2748718-4.0619965,6.0929718-4.0619965,6.0929718c1.5375977,7.5100098,22.3409271,0,22.3409271,0
		c26.4028931-4.0619812,26.2078247,14.4197998,26.2078247,14.4197998
		c-6.9191437-22.530014-44.5495453-1.0968323-15.3758698,20.2770233c-6.9191437,0.7509918-6.1503448,8.2610016-6.1503448,8.2610016
		c-21.5262299,0-39.2084808,3.7550049-39.2084808,3.7550049h136.0764923
		C305.9427795,195.7449951,270.5782471,195.7449951,270.5782471,195.7449951z"/>
	
		<line style="stroke:#FFFFFF;stroke-linecap:round;stroke-miterlimit:10;" x1="220.8747406" y1="195.752243" x2="177.8582916" y2="123.3377838"/>
</g>
<g id="RUS">
	<path style="fill:#FFFFFF;" d="M189.1405334,148.2346649l-36.9163818,19.8128967
		c-1.8096619,0.9712524-4.0831604,0.3888397-5.0779877-1.3008575l-12.4910431-21.2157288
		c-0.9948273-1.6896973-0.334259-3.8468018,1.4754028-4.8180389l36.9163818-19.812912
		c1.8096619-0.9712448,4.0831604-0.3888245,5.0779877,1.3008575l12.4910431,21.215744
		C191.6107483,145.106308,190.9501953,147.2634125,189.1405334,148.2346649z"/>
	<path style="fill:#FF4A55;" d="M188.8489838,147.8959045l-36.846405,19.675705
		c-1.5982208,0.8534546-3.6023712,0.3355103-4.4763794-1.1568451l-3.1494141-5.3775177
		c-0.8740082-1.4923553-0.286911-3.3939972,1.3113098-4.2474365l36.846405-19.675705
		c1.5982208-0.8534546,3.6023712-0.3355103,4.4763794,1.1568451l3.1494141,5.3775177
		C191.0343018,145.1408234,190.4472198,147.0424652,188.8489838,147.8959045z"/>
	<polygon style="fill:#3C459F;" points="187.1323547,138.4913025 144.5497284,161.3452759 138.6263885,151.2846069 
		181.2090149,128.4306488 	"/>
</g>
</svg>
